# 3ds Max Wavefront OBJ Exporter v0.97b - (c)2007 guruware
# File Created: 30.04.2016 15:58:23

mtllib HollowLog_1.mtl

#
# object HollowLog_1
#

v  -114.1319 -2.6482 8.1618
v  -115.9243 3.9829 -12.4705
v  -76.9798 6.6313 -14.4679
v  -76.9798 0.6154 8.1618
v  -117.0323 21.3679 -25.2162
v  -76.9798 22.3813 -28.4539
v  -117.0323 42.8628 -25.2162
v  -76.9798 41.8494 -28.4539
v  -115.9243 60.2478 -12.4705
v  -76.9798 57.5994 -14.4679
v  -114.1319 66.8788 8.1618
v  -76.9798 63.6154 8.1618
v  -112.3402 60.2307 28.8070
v  -76.9798 57.5994 30.7915
v  -111.2333 42.8522 41.5737
v  -76.9798 41.8494 44.7775
v  -111.2333 21.3785 41.5737
v  -76.9798 22.3813 44.7775
v  -112.3402 4.0000 28.8070
v  -76.9798 6.6313 30.7915
v  16.5091 6.6313 -14.4679
v  16.5091 0.6154 8.1618
v  16.5091 22.3813 -28.4539
v  16.5091 41.8494 -28.4539
v  16.5091 57.5994 -14.4679
v  16.5091 63.6154 8.1618
v  10.7823 59.2477 30.2189
v  14.4248 60.4500 28.7860
v  16.5091 41.8494 44.7775
v  14.4248 55.7487 34.3888
v  16.5091 22.3813 44.7775
v  16.5091 6.6313 30.7915
v  80.4746 4.5364 -14.4679
v  80.4769 -2.7624 8.1618
v  80.4737 23.6445 -28.4539
v  80.4828 47.2643 -28.4539
v  80.4982 66.3750 -14.4679
v  80.5059 73.6754 8.1618
v  18.0573 59.4462 29.9823
v  80.4901 66.4413 30.7582
v  80.4828 47.2643 44.7775
v  80.4737 23.6445 44.7775
v  80.4746 4.5364 30.7915
v  -115.0984 8.5190 -8.9167
v  -115.5181 -0.5185 8.1618
v  -113.6042 2.9487 8.1618
v  -117.2199 5.6738 -10.9760
v  -116.0219 23.1023 -19.4718
v  -118.2732 22.0066 -22.8315
v  -116.0219 41.1283 -19.4718
v  -118.2732 42.2241 -22.8315
v  -117.2199 58.5569 -10.9760
v  -115.0984 55.7117 -8.9167
v  -115.5181 64.7492 8.1618
v  -113.6042 61.2820 8.1618
v  -113.8198 58.4738 27.2395
v  -112.1101 55.7117 25.2403
v  -112.7720 42.1727 38.9973
v  -111.1866 41.1283 35.7954
v  -111.1866 23.1023 35.7954
v  -112.7720 22.0580 38.9973
v  -112.1101 8.5190 25.2403
v  -113.8198 5.7569 27.2395
v  82.5683 -0.2714 8.1618
v  82.5683 6.5785 -12.9200
v  81.6956 9.6391 -10.6963
v  81.6956 3.5117 8.1618
v  82.5683 24.5117 -25.9493
v  81.6956 25.6808 -22.3513
v  82.5683 46.6784 -25.9493
v  81.6956 45.5094 -22.3513
v  82.5683 64.6117 -12.9200
v  81.6956 61.5510 -10.6963
v  82.5683 71.4615 8.1618
v  81.6956 67.6784 8.1618
v  82.5683 64.6117 29.2436
v  81.6956 61.5510 27.0199
v  82.5683 46.6784 42.2729
v  81.6956 45.5094 38.6749
v  82.5683 24.5117 42.2729
v  81.6956 25.6808 38.6749
v  82.5683 6.5784 29.2436
v  81.6956 9.6391 27.0199
v  14.4230 68.5854 36.6960
v  14.4230 65.8430 39.9642
v  16.5435 67.6279 37.8371
v  12.2997 67.5121 37.9751
v  14.4228 63.3797 36.9985
v  12.9062 64.5719 35.5776
v  15.9374 64.6547 35.4791
v  14.4228 65.3386 34.6640
v  16.9544 8.3032 -8.4333
v  16.9544 2.9111 8.1618
v  16.9544 22.4198 -18.6897
v  16.9544 39.8690 -18.6897
v  16.9544 53.9857 -8.4333
v  16.9544 59.3777 8.1618
v  16.9544 53.9856 24.7569
v  16.9544 39.8690 35.0133
v  16.9544 22.4198 35.0133
v  16.9544 8.3032 24.7569
v  -76.6287 2.8711 8.1618
v  -76.6287 8.3857 -8.8105
v  -76.6287 22.8232 -19.3000
v  -76.6287 40.6689 -19.3000
v  -76.6287 55.1064 -8.8105
v  -76.6287 60.6211 8.1618
v  -76.6287 55.1064 25.1341
v  -76.6287 40.6689 35.6235
v  -76.6287 22.8232 35.6235
v  -76.6287 8.3857 25.1341
# 111 vertices

vn -0.9497 -0.0487 -0.3094
vn -0.9630 -0.0846 -0.2560
vn -0.5926 0.0500 -0.8039
vn -0.6640 -0.0068 -0.7477
vn -0.0000 0.0806 -0.9967
vn 0.0000 0.0806 -0.9967
vn 0.5913 0.0011 -0.8064
vn 0.6634 0.0436 -0.7470
vn 0.9466 -0.0832 -0.3115
vn 0.9651 -0.0525 -0.2566
vn 0.9518 -0.0539 0.3018
vn 0.9630 -0.0846 0.2560
vn 0.5886 0.0582 0.8063
vn 0.6640 -0.0074 0.7477
vn -0.0000 0.0931 0.9957
vn -0.5920 0.0012 0.8059
vn -0.6631 0.0504 0.7468
vn -0.9506 -0.0835 0.2989
vn -0.9648 -0.0574 0.2565
vn -0.9664 -0.0000 -0.2569
vn -0.6640 -0.0000 -0.7477
vn 0.0000 0.0000 -1.0000
vn -0.0000 0.0000 -1.0000
vn 0.6640 0.0000 -0.7477
vn 0.9664 0.0000 -0.2569
vn 0.7790 0.0105 0.6269
vn 0.9661 0.0245 0.2568
vn 0.9884 0.0000 0.1517
vn 0.6640 0.0000 0.7477
vn 0.5157 0.3823 0.7667
vn 0.6404 0.0070 0.7680
vn 0.0000 0.0000 1.0000
vn -0.6640 -0.0000 0.7477
vn -0.9664 -0.0000 0.2569
vn -0.9659 0.0316 -0.2568
vn -0.9505 0.0502 -0.3066
vn -0.6639 -0.0131 -0.7477
vn -0.5905 0.0193 -0.8068
vn 0.0000 -0.0000 -1.0000
vn 0.6613 0.0907 -0.7447
vn 0.5899 0.0499 -0.8060
vn 0.9555 0.1502 -0.2540
vn 0.9437 0.1294 -0.3044
vn 0.9629 -0.2104 0.1690
vn 0.9746 0.1116 0.1941
vn 0.9419 0.1481 0.3014
vn 0.5931 0.0502 0.8036
vn 0.5894 0.0511 0.8062
vn 0.8004 0.0970 0.5916
vn -0.6638 0.0217 0.7476
vn -0.5906 -0.0117 0.8069
vn -0.9652 0.0510 0.2566
vn -0.9513 0.0312 0.3068
vn 0.4705 0.8524 0.2280
vn 0.2854 0.8366 0.4675
vn -0.0000 0.8307 0.5567
vn -0.2854 0.8366 0.4675
vn -0.4705 0.8524 0.2280
vn -0.4817 0.8726 -0.0808
vn -0.3035 0.8896 -0.3415
vn -0.0000 0.8962 -0.4437
vn 0.3035 0.8896 -0.3415
vn 0.4817 0.8726 -0.0808
vn 0.2242 -0.9718 0.0728
vn 0.1386 -0.9718 0.1907
vn 0.0000 -0.9718 0.2357
vn -0.1386 -0.9718 0.1907
vn -0.2242 -0.9718 0.0728
vn -0.2242 -0.9718 -0.0728
vn -0.1386 -0.9718 -0.1907
vn 0.0000 -0.9718 -0.2357
vn 0.1386 -0.9718 -0.1907
vn 0.2242 -0.9718 -0.0728
vn 0.7660 -0.0000 0.6428
vn -0.1888 0.8126 0.5514
vn -0.2799 0.7643 0.5810
vn -0.2044 -0.8326 0.5148
vn -0.2048 -0.7738 0.5995
vn 0.7082 -0.3896 -0.5888
vn 0.6994 -0.5569 -0.4480
vn 0.7168 0.4471 -0.5350
vn 0.6079 0.6120 -0.5058
vn -0.4917 0.7691 0.4084
vn -0.4717 -0.7900 0.3917
vn 0.4355 -0.5711 -0.6959
vn 0.4186 0.6145 -0.6688
vn 0.9510 0.0088 0.3090
vn 0.5877 -0.0161 0.8089
vn 0.0000 -0.0565 0.9984
vn -0.5850 -0.0965 0.8052
vn -0.9441 -0.1210 0.3067
vn -0.9441 -0.1210 -0.3067
vn -0.5850 -0.0965 -0.8052
vn 0.0000 -0.0565 -0.9984
vn 0.5877 -0.0161 -0.8089
vn 0.9510 0.0088 -0.3090
vn 0.9511 0.0004 0.3090
vn 0.5878 0.0027 0.8090
vn -0.0000 0.0065 1.0000
vn -0.5878 0.0103 0.8090
vn -0.9510 0.0126 0.3090
vn -0.9510 0.0126 -0.3090
vn -0.5878 0.0103 -0.8090
vn -0.0000 0.0065 -1.0000
vn 0.5878 0.0027 -0.8090
vn 0.9511 0.0004 -0.3090
vn 0.9511 -0.0024 0.3090
vn 0.9508 -0.0020 0.3099
vn 0.5878 -0.0006 0.8090
vn 0.5863 0.0002 0.8101
vn -0.0000 0.0044 1.0000
vn -0.5877 0.0115 0.8090
vn -0.5859 0.0104 0.8103
vn -0.9509 0.0170 0.3090
vn -0.9502 0.0158 0.3113
vn -0.9509 0.0171 -0.3090
vn -0.9510 0.0170 -0.3087
vn -0.5877 0.0118 -0.8090
vn -0.5868 0.0124 -0.8096
vn -0.0000 0.0050 -1.0000
vn 0.5878 0.0002 -0.8090
vn 0.5863 -0.0007 -0.8101
vn 0.9511 -0.0020 -0.3090
vn 0.9506 -0.0026 -0.3103
vn -0.6222 -0.7563 -0.2022
vn -0.6296 -0.7499 -0.2031
vn -0.3743 -0.7710 -0.5152
vn -0.3832 -0.7609 -0.5236
vn 0.0000 -0.7685 -0.6399
vn -0.0003 -0.7671 -0.6415
vn 0.3943 -0.7416 -0.5427
vn 0.3899 -0.7504 -0.5337
vn 0.6655 -0.7144 -0.2162
vn 0.6594 -0.7210 -0.2130
vn 0.6518 -0.7282 0.2118
vn 0.6659 -0.7148 0.2137
vn 0.3882 -0.7508 0.5344
vn 0.3953 -0.7423 0.5411
vn 0.0000 -0.7671 0.6415
vn -0.0003 -0.7684 0.6399
vn -0.3816 -0.7606 0.5253
vn -0.3763 -0.7707 0.5142
vn -0.6294 -0.7497 0.2045
vn -0.6229 -0.7561 0.2010
vn -0.5427 0.8338 -0.1015
vn -0.5459 0.8315 -0.1032
vn -0.3297 0.8654 -0.3773
vn -0.3245 0.8719 -0.3668
vn -0.0000 0.8871 -0.4616
vn 0.3229 0.8722 -0.3674
vn 0.3308 0.8655 -0.3760
vn 0.5461 0.8314 -0.1028
vn 0.5427 0.8337 -0.1020
vn 0.5287 0.8123 0.2462
vn 0.4967 0.8362 0.2325
vn 0.2849 0.8357 0.4695
vn 0.2691 0.8565 0.4405
vn -0.0000 0.8585 0.5128
vn -0.2639 0.8571 0.4423
vn -0.2889 0.8364 0.4657
vn -0.4935 0.8369 0.2368
vn -0.5294 0.8134 0.2411
# 162 vertex normals

vt 0.0169 0.6165 0.0000
vt 0.0835 0.6209 0.0000
vt 0.0900 0.5012 0.0000
vt 0.0181 0.5021 0.0000
vt 0.1499 0.6226 0.0000
vt 0.1543 0.5000 0.0000
vt 0.2166 0.6229 0.0000
vt 0.2132 0.5000 0.0000
vt 0.2837 0.6215 0.0000
vt 0.2782 0.5012 0.0000
vt 0.3501 0.6171 0.0000
vt 0.3516 0.5020 0.0000
vt 0.4148 0.6108 0.0000
vt 0.4235 0.5019 0.0000
vt 0.4787 0.6074 0.0000
vt 0.4877 0.5029 0.0000
vt 0.5423 0.6116 0.0000
vt 0.5447 0.5067 0.0000
vt 0.6065 0.6223 0.0000
vt 0.6076 0.5132 0.0000
vt 0.6719 0.6340 0.0000
vt 0.6792 0.5197 0.0000
vt 0.0862 0.2146 0.0000
vt 0.0141 0.2155 0.0000
vt 0.1519 0.2142 0.0000
vt 0.2140 0.2140 0.0000
vt 0.2817 0.2139 0.0000
vt 0.3564 0.2143 0.0000
vt 0.4286 0.2323 0.0000
vt 0.4227 0.2201 0.0000
vt 0.5035 0.2170 0.0000
vt 0.4472 0.2214 0.0000
vt 0.5659 0.2216 0.0000
vt 0.6318 0.2274 0.0000
vt 0.7036 0.2339 0.0000
vt 0.0810 0.0186 0.0000
vt 0.0086 0.0192 0.0000
vt 0.1526 0.0190 0.0000
vt 0.2225 0.0181 0.0000
vt 0.2907 0.0157 0.0000
vt 0.3591 0.0140 0.0000
vt 0.4290 0.2089 0.0000
vt 0.4311 0.0157 0.0000
vt 0.5033 0.0205 0.0000
vt 0.5772 0.0263 0.0000
vt 0.6506 0.0320 0.0000
vt 0.7232 0.0384 0.0000
vt 0.0678 0.8333 0.0000
vt 0.1004 0.9194 0.0000
vt 0.1130 0.9054 0.0000
vt 0.0487 0.8374 0.0000
vt 0.0735 0.7479 0.0000
vt 0.0550 0.7402 0.0000
vt 0.1279 0.6814 0.0000
vt 0.1168 0.6647 0.0000
vt 0.2108 0.6392 0.0000
vt 0.2105 0.6588 0.0000
vt 0.3014 0.6736 0.0000
vt 0.2902 0.6888 0.0000
vt 0.3536 0.7555 0.0000
vt 0.3361 0.7607 0.0000
vt 0.3476 0.8531 0.0000
vt 0.3307 0.8467 0.0000
vt 0.2759 0.9138 0.0000
vt 0.2854 0.9290 0.0000
vt 0.1926 0.9361 0.0000
vt 0.1910 0.9543 0.0000
vt 0.3474 0.8539 0.0000
vt 0.2854 0.9288 0.0000
vt 0.2762 0.9145 0.0000
vt 0.3316 0.8477 0.0000
vt 0.1912 0.9537 0.0000
vt 0.1920 0.9367 0.0000
vt 0.1002 0.9192 0.0000
vt 0.1109 0.9060 0.0000
vt 0.0473 0.8381 0.0000
vt 0.0637 0.8338 0.0000
vt 0.0534 0.7416 0.0000
vt 0.0692 0.7479 0.0000
vt 0.1153 0.6668 0.0000
vt 0.1245 0.6812 0.0000
vt 0.2094 0.6419 0.0000
vt 0.2086 0.6589 0.0000
vt 0.3004 0.6763 0.0000
vt 0.2897 0.6895 0.0000
vt 0.3534 0.7573 0.0000
vt 0.3370 0.7616 0.0000
vt 0.2632 0.7451 0.0000
vt 0.2837 0.7815 0.0000
vt 0.2529 0.7690 0.0000
vt 0.2887 0.7474 0.0000
vt 0.1353 0.8251 0.0000
vt 0.1014 0.7705 0.0000
vt 0.1783 0.7508 0.0000
vt 0.1945 0.7721 0.0000
vt 0.2572 0.8945 0.0000
vt 0.1950 0.8719 0.0000
vt 0.2354 0.8024 0.0000
vt 0.2627 0.8135 0.0000
vt 0.1657 0.8491 0.0000
vt 0.2134 0.7887 0.0000
vt 0.2237 0.7445 0.0000
vt 0.2030 0.7220 0.0000
vt 0.2376 0.7607 0.0000
vt 0.4547 0.9384 0.0000
vt 0.4518 0.8878 0.0000
vt 0.6183 0.8846 0.0000
vt 0.6199 0.9295 0.0000
vt 0.4489 0.8371 0.0000
vt 0.6166 0.8393 0.0000
vt 0.4468 0.7864 0.0000
vt 0.6153 0.7937 0.0000
vt 0.4469 0.7357 0.0000
vt 0.6150 0.7479 0.0000
vt 0.4503 0.6852 0.0000
vt 0.6160 0.7029 0.0000
vt 0.9642 0.4478 0.0000
vt 0.9300 0.6164 0.0000
vt 0.9192 0.4485 0.0000
vt 0.9806 0.6135 0.0000
vt 0.8794 0.6161 0.0000
vt 0.8735 0.4478 0.0000
vt 0.8288 0.6137 0.0000
vt 0.8279 0.4462 0.0000
vt 0.7783 0.6104 0.0000
vt 0.7827 0.4442 0.0000
vt 0.7278 0.6071 0.0000
vt 0.7379 0.4423 0.0000
vt 0.8604 0.9259 0.0000
vt 0.8597 0.8800 0.0000
vt 0.8590 0.8341 0.0000
vt 0.8583 0.7882 0.0000
vt 0.8575 0.7423 0.0000
vt 0.8564 0.6964 0.0000
vt 0.9266 0.2064 0.0000
vt 0.9724 0.2079 0.0000
vt 0.8807 0.2052 0.0000
vt 0.8349 0.2042 0.0000
vt 0.7891 0.2033 0.0000
vt 0.7433 0.2022 0.0000
vt 0.9586 0.8782 0.0000
vt 0.9554 0.9244 0.0000
vt 0.9603 0.8319 0.0000
vt 0.9597 0.7856 0.0000
vt 0.9564 0.7394 0.0000
vt 0.9513 0.6933 0.0000
vt 0.9300 0.1153 0.0000
vt 0.9761 0.1131 0.0000
vt 0.8837 0.1165 0.0000
vt 0.8375 0.1155 0.0000
vt 0.7914 0.1122 0.0000
vt 0.7454 0.1074 0.0000
vt 0.2931 0.9413 0.0000
vt 0.3607 0.8592 0.0000
vt 0.1906 0.9687 0.0000
vt 0.0918 0.9311 0.0000
vt 0.0342 0.8426 0.0000
vt 0.0410 0.7367 0.0000
vt 0.1084 0.6548 0.0000
vt 0.2111 0.6273 0.0000
vt 0.3099 0.6648 0.0000
vt 0.3674 0.7533 0.0000
vt 0.0931 0.9292 0.0000
vt 0.0364 0.8400 0.0000
vt 0.0427 0.7349 0.0000
vt 0.1091 0.6537 0.0000
vt 0.2108 0.6266 0.0000
vt 0.3096 0.6645 0.0000
vt 0.3670 0.7537 0.0000
vt 0.3612 0.8594 0.0000
vt 0.2943 0.9411 0.0000
vt 0.1919 0.9677 0.0000
# 172 texture coords

g HollowLog_1
usemtl 01___Default
s off
f 1/1/1 2/2/1 3/3/1 
f 3/3/2 4/4/2 1/1/2 
f 2/2/3 5/5/3 6/6/3 
f 6/6/4 3/3/4 2/2/4 
f 6/6/5 7/7/5 8/8/5 
f 7/7/6 6/6/6 5/5/6 
f 7/7/7 9/9/7 10/10/7 
f 10/10/8 8/8/8 7/7/8 
f 9/9/9 11/11/9 12/12/9 
f 12/12/10 10/10/10 9/9/10 
f 11/11/11 13/13/11 14/14/11 
f 14/14/12 12/12/12 11/11/12 
f 13/13/13 15/15/13 16/16/13 
f 16/16/14 14/14/14 13/13/14 
f 15/15/15 17/17/15 18/18/15 
f 18/18/15 16/16/15 15/15/15 
f 17/17/16 19/19/16 20/20/16 
f 20/20/17 18/18/17 17/17/17 
f 19/19/18 1/21/18 4/22/18 
f 4/22/19 20/20/19 19/19/19 
f 4/4/20 3/3/20 21/23/20 
f 21/23/20 22/24/20 4/4/20 
f 21/23/21 6/6/21 23/25/21 
f 6/6/21 21/23/21 3/3/21 
f 23/25/22 8/8/22 24/26/22 
f 8/8/23 23/25/23 6/6/23 
f 24/26/24 10/10/24 25/27/24 
f 10/10/24 24/26/24 8/8/24 
f 10/10/25 12/12/25 26/28/25 
f 26/28/25 25/27/25 10/10/25 
f 14/14/26 27/29/26 28/30/26 
f 12/12/27 14/14/27 28/30/27 
f 12/12/28 28/30/28 26/28/28 
f 14/14/29 16/16/29 29/31/29 
f 29/31/30 30/32/30 27/29/30 
f 14/14/31 29/31/31 27/29/31 
f 16/16/32 18/18/32 31/33/32 
f 31/33/32 29/31/32 16/16/32 
f 18/18/33 20/20/33 32/34/33 
f 32/34/33 31/33/33 18/18/33 
f 32/34/34 4/22/34 22/35/34 
f 4/22/34 32/34/34 20/20/34 
f 22/24/35 21/23/35 33/36/35 
f 33/36/36 34/37/36 22/24/36 
f 21/23/37 23/25/37 35/38/37 
f 35/38/38 33/36/38 21/23/38 
f 35/38/22 24/26/22 36/39/22 
f 24/26/39 35/38/39 23/25/39 
f 24/26/40 25/27/40 37/40/40 
f 37/40/41 36/39/41 24/26/41 
f 25/27/42 26/28/42 38/41/42 
f 38/41/43 37/40/43 25/27/43 
f 26/28/44 28/30/44 39/42/44 
f 26/28/45 39/42/45 40/43/45 
f 26/28/46 40/43/46 38/41/46 
f 30/32/47 29/31/47 41/44/47 
f 30/32/48 41/44/48 40/43/48 
f 39/42/49 30/32/49 40/43/49 
f 29/31/32 31/33/32 42/45/32 
f 42/45/32 41/44/32 29/31/32 
f 31/33/50 32/34/50 43/46/50 
f 43/46/51 42/45/51 31/33/51 
f 32/34/52 22/35/52 34/47/52 
f 34/47/53 43/46/53 32/34/53 
f 44/48/54 45/49/54 46/50/54 
f 45/49/54 44/48/54 47/51/54 
f 48/52/55 47/51/55 44/48/55 
f 47/51/55 48/52/55 49/53/55 
f 50/54/56 49/53/56 48/52/56 
f 49/53/56 50/54/56 51/55/56 
f 52/56/57 51/55/57 50/54/57 
f 50/54/57 53/57/57 52/56/57 
f 54/58/58 52/56/58 53/57/58 
f 53/57/58 55/59/58 54/58/58 
f 56/60/59 54/58/59 55/59/59 
f 55/59/59 57/61/59 56/60/59 
f 58/62/60 56/60/60 57/61/60 
f 57/61/60 59/63/60 58/62/60 
f 60/64/61 58/62/61 59/63/61 
f 58/62/61 60/64/61 61/65/61 
f 62/66/62 61/65/62 60/64/62 
f 61/65/62 62/66/62 63/67/62 
f 46/50/63 63/67/63 62/66/63 
f 63/67/63 46/50/63 45/49/63 
f 64/68/64 65/69/64 66/70/64 
f 66/70/64 67/71/64 64/68/64 
f 66/70/65 68/72/65 69/73/65 
f 68/72/65 66/70/65 65/69/65 
f 69/73/66 70/74/66 71/75/66 
f 70/74/66 69/73/66 68/72/66 
f 70/74/67 72/76/67 73/77/67 
f 73/77/67 71/75/67 70/74/67 
f 72/76/68 74/78/68 75/79/68 
f 75/79/68 73/77/68 72/76/68 
f 75/79/69 76/80/69 77/81/69 
f 76/80/69 75/79/69 74/78/69 
f 76/80/70 78/82/70 79/83/70 
f 79/83/70 77/81/70 76/80/70 
f 78/82/71 80/84/71 81/85/71 
f 81/85/71 79/83/71 78/82/71 
f 80/84/72 82/86/72 83/87/72 
f 83/87/72 81/85/72 80/84/72 
f 82/86/73 64/68/73 67/71/73 
f 67/71/73 83/87/73 82/86/73 
f 84/88/74 85/89/74 86/90/74 
f 85/89/74 84/88/74 87/91/74 
f 27/92/75 30/93/75 88/94/75 
f 88/94/76 89/95/76 27/92/76 
f 30/96/77 39/97/77 90/98/77 
f 90/98/78 88/99/78 30/96/78 
f 39/97/79 28/100/79 91/101/79 
f 91/101/80 90/98/80 39/97/80 
f 28/100/81 27/92/81 89/95/81 
f 89/95/82 91/101/82 28/100/82 
f 87/102/83 88/94/83 85/103/83 
f 88/94/83 87/102/83 89/95/83 
f 88/99/84 90/98/84 86/90/84 
f 86/90/84 85/89/84 88/99/84 
f 90/98/85 91/101/85 84/104/85 
f 84/104/85 86/90/85 90/98/85 
f 84/104/86 89/95/86 87/102/86 
f 89/95/86 84/104/86 91/101/86 
f 67/105/87 66/106/87 92/107/87 
f 92/107/87 93/108/87 67/105/87 
f 66/106/88 69/109/88 94/110/88 
f 94/110/88 92/107/88 66/106/88 
f 69/109/89 71/111/89 95/112/89 
f 95/112/89 94/110/89 69/109/89 
f 71/111/90 73/113/90 96/114/90 
f 96/114/90 95/112/90 71/111/90 
f 73/113/91 75/115/91 97/116/91 
f 97/116/91 96/114/91 73/113/91 
f 97/117/92 77/118/92 98/119/92 
f 77/118/92 97/117/92 75/120/92 
f 98/119/93 79/121/93 99/122/93 
f 79/121/93 98/119/93 77/118/93 
f 99/122/94 81/123/94 100/124/94 
f 81/123/94 99/122/94 79/121/94 
f 100/124/95 83/125/95 101/126/95 
f 83/125/95 100/124/95 81/123/95 
f 101/126/96 67/127/96 93/128/96 
f 67/127/96 101/126/96 83/125/96 
f 102/129/97 92/107/97 103/130/97 
f 92/107/97 102/129/97 93/108/97 
f 103/130/98 94/110/98 104/131/98 
f 94/110/98 103/130/98 92/107/98 
f 104/131/99 95/112/99 105/132/99 
f 95/112/99 104/131/99 94/110/99 
f 105/132/100 96/114/100 106/133/100 
f 96/114/100 105/132/100 95/112/100 
f 106/133/101 97/116/101 107/134/101 
f 97/116/101 106/133/101 96/114/101 
f 97/117/102 98/119/102 108/135/102 
f 108/135/102 107/136/102 97/117/102 
f 98/119/103 99/122/103 109/137/103 
f 109/137/103 108/135/103 98/119/103 
f 99/122/104 100/124/104 110/138/104 
f 110/138/104 109/137/104 99/122/104 
f 100/124/105 101/126/105 111/139/105 
f 111/139/105 110/138/105 100/124/105 
f 101/126/106 93/128/106 102/140/106 
f 102/140/106 111/139/106 101/126/106 
f 102/129/107 103/130/107 44/141/107 
f 44/141/108 46/142/108 102/129/108 
f 103/130/109 104/131/109 48/143/109 
f 48/143/110 44/141/110 103/130/110 
f 48/143/111 105/132/111 50/144/111 
f 105/132/111 48/143/111 104/131/111 
f 105/132/112 106/133/112 53/145/112 
f 53/145/113 50/144/113 105/132/113 
f 106/133/114 107/134/114 55/146/114 
f 55/146/115 53/145/115 106/133/115 
f 107/136/116 108/135/116 57/147/116 
f 57/147/117 55/148/117 107/136/117 
f 108/135/118 109/137/118 59/149/118 
f 59/149/119 57/147/119 108/135/119 
f 109/137/120 110/138/120 60/150/120 
f 60/150/120 59/149/120 109/137/120 
f 110/138/121 111/139/121 62/151/121 
f 62/151/122 60/150/122 110/138/122 
f 111/139/123 102/140/123 46/152/123 
f 46/152/124 62/151/124 111/139/124 
f 33/153/125 65/69/125 64/68/125 
f 64/68/126 34/154/126 33/153/126 
f 35/155/127 68/72/127 65/69/127 
f 65/69/128 33/153/128 35/155/128 
f 36/156/129 70/74/129 68/72/129 
f 68/72/130 35/155/130 36/156/130 
f 37/157/131 72/76/131 70/74/131 
f 70/74/132 36/156/132 37/157/132 
f 38/158/133 74/78/133 72/76/133 
f 72/76/134 37/157/134 38/158/134 
f 40/159/135 76/80/135 74/78/135 
f 74/78/136 38/158/136 40/159/136 
f 41/160/137 78/82/137 76/80/137 
f 76/80/138 40/159/138 41/160/138 
f 42/161/139 80/84/139 78/82/139 
f 78/82/140 41/160/140 42/161/140 
f 43/162/141 82/86/141 80/84/141 
f 80/84/142 42/161/142 43/162/142 
f 34/154/143 64/68/143 82/86/143 
f 82/86/144 43/162/144 34/154/144 
f 1/163/145 45/49/145 47/51/145 
f 47/51/146 2/164/146 1/163/146 
f 2/164/147 47/51/147 49/53/147 
f 49/53/148 5/165/148 2/164/148 
f 5/165/149 49/53/149 51/55/149 
f 51/55/149 7/166/149 5/165/149 
f 7/166/150 51/55/150 52/56/150 
f 52/56/151 9/167/151 7/166/151 
f 9/167/152 52/56/152 54/58/152 
f 54/58/153 11/168/153 9/167/153 
f 11/168/154 54/58/154 56/60/154 
f 56/60/155 13/169/155 11/168/155 
f 13/169/156 56/60/156 58/62/156 
f 58/62/157 15/170/157 13/169/157 
f 15/170/158 58/62/158 61/65/158 
f 61/65/158 17/171/158 15/170/158 
f 17/171/159 61/65/159 63/67/159 
f 63/67/160 19/172/160 17/171/160 
f 19/172/161 63/67/161 45/49/161 
f 45/49/162 1/163/162 19/172/162 
# 0 polygons - 222 triangles

