# 3ds Max Wavefront OBJ Exporter v0.97b - (c)2007 guruware
# File Created: 30.04.2016 16:00:01

mtllib Mushroom_Iteration_1.mtl

#
# object Mushroom_Iteration_1
#

v  0.8428 -0.0106 -0.0000
v  0.6818 -0.0106 -0.4954
v  0.5667 3.6873 -0.4117
v  0.7005 3.6873 -0.0000
v  0.2604 -0.0106 -0.8015
v  0.2165 3.6873 -0.6662
v  -0.2604 -0.0106 -0.8015
v  -0.2165 3.6873 -0.6662
v  -0.6818 -0.0106 -0.4954
v  -0.5667 3.6873 -0.4117
v  -0.8428 -0.0106 0.0000
v  -0.7005 3.6873 0.0000
v  -0.6818 -0.0106 0.4954
v  -0.5667 3.6873 0.4117
v  -0.2604 -0.0106 0.8015
v  -0.2165 3.6873 0.6662
v  0.2604 -0.0106 0.8015
v  0.2165 3.6873 0.6662
v  0.6818 -0.0106 0.4954
v  0.5667 3.6873 0.4117
v  0.0000 -0.0106 0.0000
v  2.9230 2.8489 0.0000
v  2.3647 2.8489 -1.7181
v  0.9033 2.8489 -2.7799
v  -0.9033 2.8489 -2.7799
v  -2.3647 2.8489 -1.7181
v  -2.9230 2.8489 0.0000
v  -2.3647 2.8489 1.7181
v  -0.9033 2.8489 2.7799
v  0.9033 2.8489 2.7799
v  2.3647 2.8489 1.7181
v  2.1949 3.7430 -1.5947
v  2.7130 3.7430 0.0000
v  0.8384 3.7430 -2.5802
v  -0.8384 3.7430 -2.5802
v  -2.1949 3.7430 -1.5947
v  -2.7130 3.7430 0.0000
v  -2.1949 3.7430 1.5947
v  -0.8384 3.7430 2.5802
v  0.8384 3.7430 2.5802
v  2.1949 3.7430 1.5947
v  1.6163 4.8705 -1.1743
v  1.9978 4.8705 0.0000
v  0.6174 4.8705 -1.9000
v  -0.6174 4.8705 -1.9000
v  -1.6163 4.8705 -1.1743
v  -1.9978 4.8705 0.0000
v  -1.6163 4.8705 1.1743
v  -0.6174 4.8705 1.9000
v  0.6174 4.8705 1.9000
v  1.6163 4.8705 1.1743
v  0.7721 5.5578 -0.5610
v  0.9544 5.5578 0.0000
v  0.2949 5.5578 -0.9077
v  -0.2949 5.5578 -0.9077
v  -0.7721 5.5578 -0.5610
v  -0.9544 5.5578 0.0000
v  -0.7721 5.5578 0.5610
v  -0.2949 5.5578 0.9077
v  0.2949 5.5578 0.9077
v  0.7721 5.5578 0.5610
v  0.2816 5.7461 -0.2046
v  0.3481 5.7461 0.0000
v  0.1076 5.7461 -0.3311
v  -0.1076 5.7461 -0.3311
v  -0.2816 5.7461 -0.2046
v  -0.3481 5.7461 0.0000
v  -0.2816 5.7461 0.2046
v  -0.1076 5.7461 0.3311
v  0.1076 5.7461 0.3311
v  0.2816 5.7461 0.2046
v  0.0000 5.8077 -0.0000
# 72 vertices

vn 0.9504 0.0366 -0.3088
vn 0.5874 0.0366 -0.8085
vn -0.0000 0.0366 -0.9993
vn 0.0000 0.0366 -0.9993
vn -0.5874 0.0366 -0.8085
vn -0.9504 0.0366 -0.3088
vn -0.9504 0.0366 0.3088
vn -0.5874 0.0366 0.8085
vn 0.0000 0.0366 0.9993
vn 0.5874 0.0366 0.8085
vn 0.9504 0.0366 0.3088
vn 0.0000 -1.0000 -0.0000
vn -0.3507 -0.9295 0.1139
vn -0.2167 -0.9295 0.2983
vn 0.0000 -0.9295 0.3687
vn 0.2167 -0.9295 0.2983
vn 0.3507 -0.9295 0.1139
vn 0.3507 -0.9295 -0.1139
vn 0.2167 -0.9295 -0.2983
vn 0.0000 -0.9295 -0.3687
vn -0.2167 -0.9295 -0.2983
vn -0.3507 -0.9295 -0.1139
vn 0.9282 0.2180 -0.3016
vn 0.5736 0.2180 -0.7896
vn 0.0000 0.2180 -0.9759
vn -0.5736 0.2180 -0.7896
vn -0.9282 0.2180 -0.3016
vn -0.9282 0.2180 0.3016
vn -0.5736 0.2180 0.7896
vn 0.0000 0.2180 0.9759
vn 0.5736 0.2180 0.7896
vn 0.9282 0.2180 0.3016
vn 0.8144 0.5165 -0.2646
vn 0.5033 0.5165 -0.6927
vn 0.0000 0.5165 -0.8563
vn -0.5033 0.5165 -0.6927
vn -0.8144 0.5165 -0.2646
vn -0.8144 0.5165 0.2646
vn -0.5033 0.5165 0.6927
vn 0.0000 0.5165 0.8563
vn 0.5033 0.5165 0.6927
vn 0.8144 0.5165 0.2646
vn 0.5415 0.8221 -0.1759
vn 0.3347 0.8221 -0.4606
vn 0.0000 0.8221 -0.5694
vn -0.3347 0.8221 -0.4606
vn -0.5415 0.8221 -0.1759
vn -0.5415 0.8221 0.1759
vn -0.3347 0.8221 0.4606
vn 0.0000 0.8221 0.5694
vn 0.3347 0.8221 0.4606
vn 0.5415 0.8221 0.1759
vn 0.2952 0.9506 -0.0959
vn 0.1824 0.9506 -0.2511
vn 0.0000 0.9506 -0.3103
vn -0.1824 0.9506 -0.2511
vn -0.2952 0.9506 -0.0959
vn -0.2952 0.9506 0.0959
vn -0.1824 0.9506 0.2511
vn 0.0000 0.9506 0.3103
vn 0.1824 0.9506 0.2511
vn 0.2952 0.9506 0.0959
vn -0.1076 0.9831 -0.1481
vn -0.1742 0.9831 0.0566
vn 0.0000 0.9831 0.1831
vn 0.1742 0.9831 0.0566
vn 0.1076 0.9831 -0.1481
vn 0.0000 0.9831 -0.1831
vn -0.1742 0.9831 -0.0566
vn 0.1076 0.9831 0.1481
vn -0.1076 0.9831 0.1481
vn 0.1742 0.9831 -0.0566
# 72 vertex normals

vt 0.3099 0.1009 0.0000
vt 0.3116 0.1407 0.0000
vt 0.0330 0.1483 0.0000
vt 0.0316 0.1163 0.0000
vt 0.3121 0.1805 0.0000
vt 0.0334 0.1803 0.0000
vt 0.3115 0.2202 0.0000
vt 0.0329 0.2124 0.0000
vt 0.3098 0.2598 0.0000
vt 0.0315 0.2446 0.0000
vt 0.3071 0.2992 0.0000
vt 0.0293 0.2768 0.0000
vt 0.3035 0.3385 0.0000
vt 0.0263 0.3091 0.0000
vt 0.2988 0.3776 0.0000
vt 0.0224 0.3413 0.0000
vt 0.2932 0.4165 0.0000
vt 0.0178 0.3736 0.0000
vt 0.2867 0.4552 0.0000
vt 0.0124 0.4057 0.0000
vt 0.3072 0.0616 0.0000
vt 0.0294 0.0842 0.0000
vt 0.3733 0.1402 0.0000
vt 0.3352 0.1309 0.0000
vt 0.3688 0.0769 0.0000
vt 0.0121 0.8229 0.0000
vt 0.1792 0.8162 0.0000
vt 0.0717 0.9312 0.0000
vt 0.1666 0.7932 0.0000
vt 0.2029 0.8275 0.0000
vt 0.1836 0.9837 0.0000
vt 0.2288 0.8227 0.0000
vt 0.3049 0.9604 0.0000
vt 0.2469 0.8035 0.0000
vt 0.3895 0.8703 0.0000
vt 0.2504 0.7774 0.0000
vt 0.4049 0.7477 0.0000
vt 0.2378 0.7544 0.0000
vt 0.3453 0.6394 0.0000
vt 0.2140 0.7431 0.0000
vt 0.2334 0.5869 0.0000
vt 0.1881 0.7480 0.0000
vt 0.1120 0.6102 0.0000
vt 0.1700 0.7671 0.0000
vt 0.0275 0.7003 0.0000
vt 0.9502 0.8160 0.0000
vt 0.7882 0.8420 0.0000
vt 0.7864 0.7676 0.0000
vt 0.9311 0.7336 0.0000
vt 0.6252 0.8260 0.0000
vt 0.6441 0.7540 0.0000
vt 0.4767 0.7523 0.0000
vt 0.5193 0.6898 0.0000
vt 0.3693 0.6210 0.0000
vt 0.4332 0.5788 0.0000
vt 0.3290 0.4525 0.0000
vt 0.4051 0.4397 0.0000
vt 0.3664 0.2808 0.0000
vt 0.4417 0.3011 0.0000
vt 0.4729 0.1401 0.0000
vt 0.5341 0.1908 0.0000
vt 0.6250 0.0528 0.0000
vt 0.6625 0.1261 0.0000
vt 0.7949 0.0233 0.0000
vt 0.8053 0.1093 0.0000
vt 0.9617 0.0389 0.0000
vt 0.9499 0.1293 0.0000
vt 0.7812 0.6525 0.0000
vt 0.8802 0.6182 0.0000
vt 0.6811 0.6464 0.0000
vt 0.5948 0.6036 0.0000
vt 0.5372 0.5290 0.0000
vt 0.5210 0.4365 0.0000
vt 0.5496 0.3463 0.0000
vt 0.6154 0.2773 0.0000
vt 0.7044 0.2398 0.0000
vt 0.8034 0.2347 0.0000
vt 0.9075 0.2594 0.0000
vt 0.7682 0.5379 0.0000
vt 0.8117 0.5200 0.0000
vt 0.7155 0.5396 0.0000
vt 0.6707 0.5207 0.0000
vt 0.6420 0.4856 0.0000
vt 0.6349 0.4418 0.0000
vt 0.6508 0.3997 0.0000
vt 0.6855 0.3690 0.0000
vt 0.7319 0.3545 0.0000
vt 0.7806 0.3553 0.0000
vt 0.8377 0.3707 0.0000
vt 0.7515 0.4780 0.0000
vt 0.7702 0.4710 0.0000
vt 0.7298 0.4835 0.0000
vt 0.7107 0.4771 0.0000
vt 0.6986 0.4637 0.0000
vt 0.6957 0.4468 0.0000
vt 0.7028 0.4309 0.0000
vt 0.7184 0.4202 0.0000
vt 0.7394 0.4183 0.0000
vt 0.7620 0.4225 0.0000
vt 0.7914 0.4214 0.0000
vt 0.7314 0.4500 0.0000
vt 0.7655 0.4495 0.0000
vt 0.3279 0.0283 0.0000
vt 0.3642 0.0136 0.0000
vt 0.4304 0.0922 0.0000
vt 0.4097 0.1255 0.0000
vt 0.4023 0.0230 0.0000
vt 0.4276 0.0530 0.0000
# 108 texture coords

g Mushroom_Iteration_1
usemtl 01___Default
s off
f 1/1/1 2/2/1 3/3/1 
f 3/3/1 4/4/1 1/1/1 
f 2/2/2 5/5/2 6/6/2 
f 6/6/2 3/3/2 2/2/2 
f 6/6/3 7/7/3 8/8/3 
f 7/7/4 6/6/4 5/5/4 
f 8/8/5 9/9/5 10/10/5 
f 9/9/5 8/8/5 7/7/5 
f 10/10/6 11/11/6 12/12/6 
f 11/11/6 10/10/6 9/9/6 
f 11/11/7 13/13/7 14/14/7 
f 14/14/7 12/12/7 11/11/7 
f 13/13/8 15/15/8 16/16/8 
f 16/16/8 14/14/8 13/13/8 
f 15/15/9 17/17/9 18/18/9 
f 18/18/9 16/16/9 15/15/9 
f 17/17/10 19/19/10 20/20/10 
f 20/20/10 18/18/10 17/17/10 
f 19/21/11 1/1/11 4/4/11 
f 4/4/11 20/22/11 19/21/11 
f 5/23/12 2/24/12 21/25/12 
f 22/26/13 3/27/13 23/28/13 
f 3/27/13 22/26/13 4/29/13 
f 23/28/14 6/30/14 24/31/14 
f 6/30/14 23/28/14 3/27/14 
f 6/30/15 8/32/15 25/33/15 
f 25/33/15 24/31/15 6/30/15 
f 8/32/16 10/34/16 26/35/16 
f 26/35/16 25/33/16 8/32/16 
f 10/34/17 12/36/17 27/37/17 
f 27/37/17 26/35/17 10/34/17 
f 27/37/18 14/38/18 28/39/18 
f 14/38/18 27/37/18 12/36/18 
f 14/38/19 16/40/19 29/41/19 
f 29/41/19 28/39/19 14/38/19 
f 29/41/20 18/42/20 30/43/20 
f 18/42/20 29/41/20 16/40/20 
f 30/43/21 20/44/21 31/45/21 
f 20/44/21 30/43/21 18/42/21 
f 20/44/22 4/29/22 22/26/22 
f 22/26/22 31/45/22 20/44/22 
f 22/46/23 23/47/23 32/48/23 
f 32/48/23 33/49/23 22/46/23 
f 23/47/24 24/50/24 34/51/24 
f 34/51/24 32/48/24 23/47/24 
f 34/51/25 25/52/25 35/53/25 
f 25/52/25 34/51/25 24/50/25 
f 35/53/26 26/54/26 36/55/26 
f 26/54/26 35/53/26 25/52/26 
f 36/55/27 27/56/27 37/57/27 
f 27/56/27 36/55/27 26/54/27 
f 27/56/28 28/58/28 38/59/28 
f 38/59/28 37/57/28 27/56/28 
f 28/58/29 29/60/29 39/61/29 
f 39/61/29 38/59/29 28/58/29 
f 29/60/30 30/62/30 40/63/30 
f 40/63/30 39/61/30 29/60/30 
f 40/63/31 31/64/31 41/65/31 
f 31/64/31 40/63/31 30/62/31 
f 31/64/32 22/66/32 33/67/32 
f 33/67/32 41/65/32 31/64/32 
f 33/49/33 32/48/33 42/68/33 
f 42/68/33 43/69/33 33/49/33 
f 42/68/34 34/51/34 44/70/34 
f 34/51/34 42/68/34 32/48/34 
f 34/51/35 35/53/35 45/71/35 
f 45/71/35 44/70/35 34/51/35 
f 35/53/36 36/55/36 46/72/36 
f 46/72/36 45/71/36 35/53/36 
f 46/72/37 37/57/37 47/73/37 
f 37/57/37 46/72/37 36/55/37 
f 37/57/38 38/59/38 48/74/38 
f 48/74/38 47/73/38 37/57/38 
f 48/74/39 39/61/39 49/75/39 
f 39/61/39 48/74/39 38/59/39 
f 49/75/40 40/63/40 50/76/40 
f 40/63/40 49/75/40 39/61/40 
f 50/76/41 41/65/41 51/77/41 
f 41/65/41 50/76/41 40/63/41 
f 51/77/42 33/67/42 43/78/42 
f 33/67/42 51/77/42 41/65/42 
f 43/69/43 42/68/43 52/79/43 
f 52/79/43 53/80/43 43/69/43 
f 42/68/44 44/70/44 54/81/44 
f 54/81/44 52/79/44 42/68/44 
f 44/70/45 45/71/45 55/82/45 
f 55/82/45 54/81/45 44/70/45 
f 45/71/46 46/72/46 56/83/46 
f 56/83/46 55/82/46 45/71/46 
f 56/83/47 47/73/47 57/84/47 
f 47/73/47 56/83/47 46/72/47 
f 47/73/48 48/74/48 58/85/48 
f 58/85/48 57/84/48 47/73/48 
f 58/85/49 49/75/49 59/86/49 
f 49/75/49 58/85/49 48/74/49 
f 49/75/50 50/76/50 60/87/50 
f 60/87/50 59/86/50 49/75/50 
f 60/87/51 51/77/51 61/88/51 
f 51/77/51 60/87/51 50/76/51 
f 61/88/52 43/78/52 53/89/52 
f 43/78/52 61/88/52 51/77/52 
f 53/80/53 52/79/53 62/90/53 
f 62/90/53 63/91/53 53/80/53 
f 52/79/54 54/81/54 64/92/54 
f 64/92/54 62/90/54 52/79/54 
f 54/81/55 55/82/55 65/93/55 
f 65/93/55 64/92/55 54/81/55 
f 55/82/56 56/83/56 66/94/56 
f 66/94/56 65/93/56 55/82/56 
f 66/94/57 57/84/57 67/95/57 
f 57/84/57 66/94/57 56/83/57 
f 57/84/58 58/85/58 68/96/58 
f 68/96/58 67/95/58 57/84/58 
f 58/85/59 59/86/59 69/97/59 
f 69/97/59 68/96/59 58/85/59 
f 69/97/60 60/87/60 70/98/60 
f 60/87/60 69/97/60 59/86/60 
f 70/98/61 61/88/61 71/99/61 
f 61/88/61 70/98/61 60/87/61 
f 71/99/62 53/89/62 63/100/62 
f 53/89/62 71/99/62 61/88/62 
f 65/93/63 66/94/63 72/101/63 
f 67/95/64 68/96/64 72/101/64 
f 72/101/65 69/97/65 70/98/65 
f 71/99/66 63/102/66 72/101/66 
f 72/101/67 62/90/67 64/92/67 
f 72/101/68 64/92/68 65/93/68 
f 66/94/69 67/95/69 72/101/69 
f 72/101/70 70/98/70 71/99/70 
f 68/96/71 69/97/71 72/101/71 
f 72/101/72 63/102/72 62/90/72 
f 1/1/12 19/21/12 21/25/12 
f 17/103/12 15/104/12 21/25/12 
f 21/25/12 9/105/12 7/106/12 
f 13/107/12 11/108/12 21/25/12 
f 21/25/12 7/106/12 5/23/12 
f 2/24/12 1/1/12 21/25/12 
f 21/25/12 15/104/12 13/107/12 
f 19/21/12 17/103/12 21/25/12 
f 21/25/12 11/108/12 9/105/12 
# 0 polygons - 140 triangles

