# 3ds Max Wavefront OBJ Exporter v0.97b - (c)2007 guruware
# File Created: 30.04.2016 16:03:12

mtllib TreeStump_1.mtl

#
# object TreeStump_1
#

v  6.6179 0.0000 0.7106
v  4.7303 0.0000 -4.1741
v  4.7303 3.9287 -4.1741
v  7.0220 3.9287 0.8882
v  9.1216 -0.5833 -13.1239
v  7.0381 -0.6237 -14.3582
v  7.9304 -0.9424 -15.8538
v  10.0138 -0.9020 -14.6195
v  0.3566 0.0000 -7.2974
v  -4.9653 0.0000 -4.9653
v  -4.9653 3.9287 -4.9653
v  0.3566 3.9287 -7.2974
v  -7.0220 0.0000 0.0000
v  -7.0220 3.9287 0.7367
v  -15.6958 -0.0727 5.1907
v  -14.7690 -0.0727 7.4283
v  -14.3533 0.7103 6.6855
v  -15.0324 0.7103 5.6112
v  -4.9653 0.0000 4.9653
v  0.0000 0.0000 7.0220
v  0.0000 3.9287 6.5483
v  -4.9653 3.9287 4.2286
v  4.8641 1.6978 14.8905
v  7.4283 -0.0727 14.7690
v  7.1017 1.6978 13.9637
v  5.1907 -0.0727 15.6958
v  14.7690 -0.0727 7.4283
v  15.6958 -0.0727 5.1907
v  15.4090 1.6978 2.1952
v  15.0558 1.6978 4.5912
v  4.5676 8.6677 -4.5676
v  6.4595 7.8574 0.0000
v  -0.0000 7.3063 -6.4595
v  -4.5676 6.8917 -4.5676
v  -6.4595 8.3315 0.0000
v  -4.5676 8.3833 4.5676
v  0.0000 10.7590 6.4595
v  4.9653 3.9287 5.4390
v  3.2630 7.8574 4.5676
v  0.1466 0.0000 0.1466
v  4.9653 0.0000 4.9653
v  3.8631 2.6671 -10.9375
v  7.0354 2.6671 -8.6721
v  3.8631 5.4694 -10.9375
v  7.0354 5.4694 -8.6721
v  -11.1991 0.3199 4.8878
v  -12.3180 0.3199 2.2789
v  -11.1991 2.4570 4.7037
v  -12.3180 2.4570 2.4630
v  6.1968 -0.6048 7.3040
v  2.5953 -0.2009 8.7958
v  6.1968 3.3817 7.5409
v  3.7625 2.6346 11.0836
v  10.7233 -0.0363 -0.0591
v  10.2641 -0.0363 3.4035
v  10.9409 2.8132 -0.0223
v  10.3218 2.8132 3.6332
v  0.0000 6.4890 0.0000
v  6.8774 0.5965 -13.7312
v  9.0038 0.3824 -12.5916
v  7.7061 1.2427 -15.1560
v  9.8325 1.0286 -14.0164
# 62 vertices

vn 0.9328 0.0000 -0.3605
vn 0.9084 -0.0748 -0.4112
vn -0.0776 -0.9835 0.1633
vn -0.4014 0.0000 -0.9159
vn -0.9215 0.0716 -0.3817
vn -0.9407 0.0000 -0.3393
vn -0.7027 0.6492 0.2911
vn -0.7767 0.3945 0.4910
vn -0.3803 0.1107 0.9182
vn -0.4173 0.1675 0.8932
vn 0.3435 0.4406 0.8294
vn 0.7224 0.6233 0.2992
vn 0.9867 0.0732 0.1454
vn 0.9110 -0.0030 -0.4124
vn 0.9258 0.0478 -0.3750
vn 0.5620 0.2546 -0.7870
vn 0.3977 -0.0623 -0.9154
vn -0.3952 0.1741 -0.9019
vn -0.3903 0.1826 -0.9024
vn -0.9388 0.0633 -0.3386
vn -0.8886 0.1761 -0.4236
vn -0.8610 0.0383 0.5071
vn -0.9097 0.1789 0.3748
vn -0.4232 0.0118 0.9059
vn -0.3654 -0.0381 0.9301
vn 0.2082 0.2969 0.9319
vn 0.5090 0.0112 0.8607
vn 0.8893 0.2182 0.4019
vn 0.7380 0.4343 0.5165
vn 0.0000 -1.0000 -0.0000
vn 0.0387 0.5759 -0.8166
vn 0.2735 -0.8823 -0.3830
vn -0.7202 0.0000 -0.6938
vn -0.1711 0.9557 0.2396
vn 0.8899 0.0000 0.4561
vn -0.0515 -0.9984 0.0221
vn -0.0512 -0.9985 0.0212
vn 0.0314 0.1842 0.9824
vn -0.0080 0.0859 0.9963
vn -0.2309 0.9661 0.1153
vn -0.2185 0.9673 0.1287
vn -0.3900 0.0791 -0.9174
vn -0.3483 0.1728 -0.9213
vn -0.1749 -0.9716 -0.1592
vn -0.0291 -0.9971 -0.0703
vn 0.8680 0.0594 -0.4931
vn 0.8874 0.0273 -0.4602
vn 0.0522 0.9709 0.2337
vn 0.0377 0.9722 0.2309
vn -0.5415 -0.3815 0.7491
vn -0.7562 0.0783 0.6497
vn -0.0091 -1.0000 -0.0012
vn -0.0077 -1.0000 -0.0030
vn -0.2081 0.0655 -0.9759
vn -0.1840 0.0268 -0.9826
vn 0.2372 0.9655 0.1072
vn 0.2838 0.9577 0.0481
vn 0.2812 -0.0828 0.9561
vn 0.2959 -0.1143 0.9484
vn 0.2722 0.9543 -0.1236
vn -0.2051 0.9682 -0.1435
vn -0.0380 0.9914 0.1254
vn -0.2875 -0.8832 0.3705
vn -0.2658 -0.8892 0.3723
vn -0.7523 -0.3132 -0.5796
vn -0.7392 0.0000 -0.6734
vn 0.3433 0.8012 -0.4900
vn 0.3467 0.8026 -0.4855
vn 0.8754 -0.0671 0.4787
vn 0.8860 0.0000 0.4637
vn 0.0853 -0.9957 -0.0353
vn 0.0839 -0.9958 -0.0360
vn 0.4829 0.4540 0.7488
vn 0.5007 0.0743 0.8624
vn -0.3399 0.9156 0.2149
vn -0.3813 0.9046 0.1904
vn -0.5109 0.7005 -0.4983
vn -0.7710 0.0547 -0.6345
vn 0.0067 -0.9998 0.0161
vn -0.0768 -0.9935 0.0835
vn 0.9801 0.1039 -0.1691
vn 0.9905 0.0082 -0.1374
vn 0.0991 0.9659 0.2393
vn 0.0351 0.9727 0.2292
vn -0.9358 -0.0124 0.3522
vn -0.9414 0.1399 0.3069
vn -0.0051 -1.0000 -0.0021
vn -0.0072 -1.0000 -0.0010
vn 0.4974 -0.7251 -0.4762
vn 0.4400 -0.0220 -0.8977
vn 0.2265 0.9735 0.0334
vn 0.2220 0.9743 0.0376
vn -0.4006 0.7950 0.4556
vn -0.2146 -0.0742 0.9739
vn -0.4561 -0.4535 0.7657
vn -0.4420 -0.4738 0.7617
vn -0.8749 0.0635 -0.4801
vn -0.8316 0.1633 -0.5309
vn 0.4737 0.3029 -0.8270
vn 0.4799 0.3112 -0.8203
vn 0.8822 -0.1402 0.4495
vn 0.8478 -0.0840 0.5236
vn 0.0633 0.9427 -0.3276
vn -0.2006 0.9469 0.2511
vn -0.3284 0.9371 0.1186
vn 0.2695 0.9448 -0.1862
# 106 vertex normals

vt 0.5448 0.5228 0.0000
vt 0.4358 0.5722 0.0000
vt 0.4085 0.4988 0.0000
vt 0.5064 0.4286 0.0000
vt 0.5757 0.4580 0.0000
vt 0.5705 0.3975 0.0000
vt 0.6118 0.3953 0.0000
vt 0.6195 0.4555 0.0000
vt 0.2593 0.6106 0.0000
vt 0.1336 0.5648 0.0000
vt 0.1643 0.4854 0.0000
vt 0.2816 0.5307 0.0000
vt 0.0252 0.5093 0.0000
vt 0.0547 0.4172 0.0000
vt 0.7273 0.3236 0.0000
vt 0.6632 0.3303 0.0000
vt 0.6672 0.3021 0.0000
vt 0.7092 0.3036 0.0000
vt 0.0255 0.1307 0.0000
vt 0.0936 0.0283 0.0000
vt 0.1652 0.0787 0.0000
vt 0.0965 0.1871 0.0000
vt 0.2765 0.6818 0.0000
vt 0.3183 0.7461 0.0000
vt 0.2712 0.7354 0.0000
vt 0.3260 0.6893 0.0000
vt 0.7566 0.6525 0.0000
vt 0.7990 0.6854 0.0000
vt 0.8161 0.7628 0.0000
vt 0.7768 0.7366 0.0000
vt 0.3617 0.4269 0.0000
vt 0.4217 0.3643 0.0000
vt 0.3032 0.5470 0.0000
vt 0.2818 0.4662 0.0000
vt 0.1892 0.4268 0.0000
vt 0.1348 0.3300 0.0000
vt 0.0481 0.2823 0.0000
vt 0.1886 0.2196 0.0000
vt 0.2999 0.1539 0.0000
vt 0.4572 0.1282 0.0000
vt 0.4850 0.2370 0.0000
vt 0.3783 0.2363 0.0000
vt 0.4979 0.3453 0.0000
vt 0.5228 0.6767 0.0000
vt 0.6398 0.5718 0.0000
vt 0.9455 0.5798 0.0000
vt 0.7565 0.6032 0.0000
vt 0.8105 0.5177 0.0000
vt 0.8607 0.6923 0.0000
vt 0.7863 0.3380 0.0000
vt 0.9048 0.3213 0.0000
vt 0.8213 0.3861 0.0000
vt 0.8546 0.2260 0.0000
vt 0.9499 0.4643 0.0000
vt 0.8336 0.4561 0.0000
vt 0.6058 0.0384 0.0000
vt 0.6149 0.2070 0.0000
vt 0.5323 0.2167 0.0000
vt 0.4905 0.0779 0.0000
vt 0.6830 0.0272 0.0000
vt 0.6756 0.1936 0.0000
vt 0.7622 0.0593 0.0000
vt 0.7399 0.1984 0.0000
vt 0.8535 0.0880 0.0000
vt 0.7871 0.2184 0.0000
vt 0.1154 0.8782 0.0000
vt 0.1623 0.8510 0.0000
vt 0.2190 0.9206 0.0000
vt 0.1939 0.9898 0.0000
vt 0.0647 0.7877 0.0000
vt 0.1179 0.7707 0.0000
vt 0.0153 0.6688 0.0000
vt 0.1698 0.6793 0.0000
vt 0.0590 0.5746 0.0000
vt 0.1368 0.5911 0.0000
vt 0.8646 0.9589 0.0000
vt 0.8363 0.8811 0.0000
vt 0.9093 0.8606 0.0000
vt 0.9843 0.9649 0.0000
vt 0.7540 0.9624 0.0000
vt 0.7829 0.8742 0.0000
vt 0.6252 0.9697 0.0000
vt 0.7060 0.8454 0.0000
vt 0.5604 0.8869 0.0000
vt 0.6533 0.7906 0.0000
vt 0.2814 0.3229 0.0000
vt 0.6667 0.5398 0.0000
vt 0.6811 0.4889 0.0000
vt 0.6616 0.4048 0.0000
vt 0.6764 0.3668 0.0000
vt 0.6624 0.4591 0.0000
vt 0.6310 0.3254 0.0000
vt 0.5689 0.3181 0.0000
vt 0.7384 0.3216 0.0000
vt 0.3098 0.7561 0.0000
vt 0.3518 0.7955 0.0000
vt 0.3086 0.6519 0.0000
vt 0.8902 0.7246 0.0000
vt 0.9475 0.7185 0.0000
vt 0.7468 0.6749 0.0000
vt 0.6329 0.5381 0.0000
vt 0.6480 0.4854 0.0000
vt 0.6400 0.3605 0.0000
vt 0.6747 0.6905 0.0000
vt 0.6201 0.7993 0.0000
vt 0.5060 0.8390 0.0000
vt 0.3991 0.7861 0.0000
vt 0.3581 0.6649 0.0000
# 108 texture coords

g TreeStump_1
usemtl 01___Default
s off
f 1/1/1 2/2/1 3/3/1 
f 3/3/2 4/4/2 1/1/2 
f 5/5/3 6/6/3 7/7/3 
f 7/7/3 8/8/3 5/5/3 
f 9/9/4 10/10/4 11/11/4 
f 11/11/4 12/12/4 9/9/4 
f 10/10/5 13/13/5 14/14/5 
f 14/14/6 11/11/6 10/10/6 
f 15/15/7 16/16/7 17/17/7 
f 17/17/8 18/18/8 15/15/8 
f 19/19/9 20/20/9 21/21/9 
f 21/21/10 22/22/10 19/19/10 
f 23/23/11 24/24/11 25/25/11 
f 24/24/11 23/23/11 26/26/11 
f 27/27/12 28/28/12 29/29/12 
f 29/29/13 30/30/13 27/27/13 
f 4/4/14 3/3/14 31/31/14 
f 31/31/15 32/32/15 4/4/15 
f 3/3/16 12/33/16 33/34/16 
f 33/34/17 31/31/17 3/3/17 
f 12/12/18 11/11/18 34/35/18 
f 34/35/19 33/34/19 12/12/19 
f 11/11/20 14/14/20 35/36/20 
f 35/36/21 34/35/21 11/11/21 
f 14/37/22 22/22/22 36/38/22 
f 36/38/23 35/36/23 14/37/23 
f 22/22/24 21/21/24 37/39/24 
f 37/39/25 36/38/25 22/22/25 
f 21/40/26 38/41/26 39/42/26 
f 39/42/27 37/39/27 21/40/27 
f 38/41/28 4/43/28 32/32/28 
f 32/32/29 39/42/29 38/41/29 
f 40/44/30 2/2/30 1/1/30 
f 1/1/30 41/45/30 40/44/30 
f 36/38/31 37/39/31 39/42/31 
f 2/46/32 42/47/32 43/48/32 
f 42/47/32 2/46/32 9/49/32 
f 42/50/33 12/51/33 44/52/33 
f 12/51/33 42/50/33 9/53/33 
f 3/54/34 45/55/34 44/52/34 
f 44/52/34 12/51/34 3/54/34 
f 3/54/35 43/48/35 45/55/35 
f 43/48/35 3/54/35 2/46/35 
f 19/56/36 46/57/36 47/58/36 
f 47/58/37 13/59/37 19/56/37 
f 19/56/38 22/60/38 48/61/38 
f 48/61/39 46/57/39 19/56/39 
f 14/62/40 49/63/40 48/61/40 
f 48/61/41 22/60/41 14/62/41 
f 13/64/42 47/65/42 49/63/42 
f 49/63/43 14/62/43 13/64/43 
f 41/66/44 50/67/44 51/68/44 
f 51/68/45 20/69/45 41/66/45 
f 41/66/46 38/70/46 52/71/46 
f 52/71/47 50/67/47 41/66/47 
f 38/70/48 21/72/48 53/73/48 
f 53/73/49 52/71/49 38/70/49 
f 20/74/50 51/75/50 53/73/50 
f 53/73/51 21/72/51 20/74/51 
f 1/76/52 54/77/52 55/78/52 
f 55/78/53 41/79/53 1/76/53 
f 1/76/54 4/80/54 56/81/54 
f 56/81/55 54/77/55 1/76/55 
f 4/80/56 38/82/56 57/83/56 
f 57/83/57 56/81/57 4/80/57 
f 41/84/58 55/85/58 57/83/58 
f 57/83/59 38/82/59 41/84/59 
f 35/36/60 36/38/60 58/86/60 
f 39/42/61 32/32/61 58/86/61 
f 58/86/62 33/34/62 34/35/62 
f 59/87/63 60/88/63 43/48/63 
f 43/48/64 42/47/64 59/87/64 
f 61/89/65 59/90/65 42/50/65 
f 42/50/66 44/52/66 61/89/66 
f 62/91/67 61/89/67 44/52/67 
f 44/52/68 45/55/68 62/91/68 
f 43/48/69 60/88/69 62/91/69 
f 62/91/70 45/55/70 43/48/70 
f 16/92/71 15/93/71 47/58/71 
f 47/58/72 46/57/72 16/92/72 
f 17/17/73 16/92/73 46/57/73 
f 46/57/74 48/61/74 17/17/74 
f 49/63/75 18/18/75 17/17/75 
f 17/17/76 48/61/76 49/63/76 
f 47/65/77 15/94/77 18/18/77 
f 18/18/78 49/63/78 47/65/78 
f 24/95/79 26/96/79 51/68/79 
f 51/68/80 50/67/80 24/95/80 
f 25/25/81 24/95/81 50/67/81 
f 50/67/82 52/71/82 25/25/82 
f 23/23/83 25/25/83 52/71/83 
f 52/71/84 53/73/84 23/23/84 
f 51/75/85 26/97/85 23/23/85 
f 23/23/86 53/73/86 51/75/86 
f 54/77/87 28/98/87 27/99/87 
f 27/99/88 55/78/88 54/77/88 
f 29/29/89 28/98/89 54/77/89 
f 54/77/90 56/81/90 29/29/90 
f 30/30/91 29/29/91 56/81/91 
f 56/81/92 57/83/92 30/30/92 
f 55/85/93 27/100/93 30/30/93 
f 30/30/94 57/83/94 55/85/94 
f 60/88/95 59/87/95 6/101/95 
f 6/101/96 5/102/96 60/88/96 
f 59/90/97 61/89/97 7/7/97 
f 7/7/98 6/103/98 59/90/98 
f 61/89/99 62/91/99 8/8/99 
f 8/8/100 7/7/100 61/89/100 
f 62/91/101 60/88/101 5/102/101 
f 5/102/102 8/8/102 62/91/102 
f 39/42/103 58/86/103 36/38/103 
f 32/32/104 31/31/104 58/86/104 
f 58/86/105 31/31/105 33/34/105 
f 58/86/106 34/35/106 35/36/106 
f 20/104/30 19/105/30 40/44/30 
f 40/44/30 41/45/30 20/104/30 
f 13/106/30 10/107/30 40/44/30 
f 40/44/30 19/105/30 13/106/30 
f 40/44/30 10/107/30 9/108/30 
f 9/108/30 2/2/30 40/44/30 
# 0 polygons - 120 triangles

