# 3ds Max Wavefront OBJ Exporter v0.97b - (c)2007 guruware
# File Created: 26.04.2016 23:21:20

mtllib Flower_Iteration_3.mtl

#
# object Flowe_Iteration_3
#

v  -0.3250 0.0000 0.3250
v  -0.3250 0.0000 -0.3250
v  0.3250 0.0000 -0.3250
v  0.3250 0.0000 0.3250
v  -0.2000 20.0000 0.0300
v  0.2000 20.0000 0.0300
v  0.2000 20.0000 -0.0300
v  -0.2000 20.0000 -0.0300
v  0.1497 4.4324 0.2500
v  -0.2500 4.4324 0.2500
v  0.1497 4.4324 -0.2500
v  -0.2500 4.4324 -0.2500
v  0.1497 4.9676 0.2500
v  -0.1882 10.0365 0.2500
v  -0.2500 4.9676 0.2500
v  0.2500 10.0365 0.2500
v  0.2500 10.0365 -0.2500
v  0.1497 4.9676 -0.2500
v  -0.1882 10.0365 -0.2500
v  -0.2500 4.9676 -0.2500
v  -2.5703 6.1971 -0.0750
v  -2.0371 6.1505 0.0750
v  -2.0371 6.1505 -0.0750
v  -2.5703 6.1971 0.0750
v  -0.1882 10.5717 0.2500
v  0.2500 10.5717 0.2500
v  0.2500 10.5717 -0.2500
v  -0.1882 10.5717 -0.2500
v  2.3644 12.8838 -0.0700
v  1.8474 12.7453 -0.0700
v  1.8474 12.7453 0.0700
v  2.3644 12.8838 0.0700
v  -1.3644 17.2525 0.2274
v  -2.1034 16.6298 0.0000
v  -0.0190 15.6695 0.0000
v  -0.0187 16.4846 0.0000
v  -1.0271 18.6804 0.0000
v  -2.1447 18.8477 0.0000
v  1.5389 16.1197 -0.2412
v  2.3983 15.4970 0.0000
v  0.1935 14.5366 0.0000
v  0.1932 15.3517 0.0000
v  0.5216 16.3593 0.0000
v  2.4021 16.9694 0.0000
v  0.0047 13.0798 -0.1642
v  0.0048 13.4573 -0.1644
v  -0.9467 14.2180 0.7871
v  -1.1403 13.6524 1.3949
v  -1.1795 15.3401 0.0678
v  -1.5571 15.5126 1.3975
v  0.1383 19.0564 0.0000
v  1.5976 19.1580 0.0000
v  0.1385 18.4858 0.0000
v  1.0803 19.5939 0.0000
v  0.8442 20.5934 0.0000
v  1.6265 20.7106 0.0000
v  0.4883 20.8616 0.0451
v  1.2739 20.6852 -0.2062
v  0.2513 19.9771 -0.0259
v  0.0137 19.9763 0.0160
v  0.0040 21.6677 0.0177
v  0.6535 22.1045 -0.0968
v  -0.4241 20.4455 -0.0600
v  -0.9254 20.1940 0.1245
v  -0.1062 19.8920 0.0165
v  0.0550 19.9325 -0.0138
v  -0.2402 21.0778 -0.0682
v  -0.7583 21.2609 0.0008
# 68 vertices

vn 0.0000 -1.0000 -0.0000
vn 0.0000 1.0000 -0.0000
vn 0.0000 0.0169 0.9999
vn 0.9992 0.0395 -0.0000
vn 0.0000 0.0169 -0.9999
vn -0.9999 0.0169 -0.0000
vn 0.0000 0.0000 1.0000
vn 0.9998 -0.0198 -0.0000
vn 0.0000 0.0000 -1.0000
vn -0.9999 0.0122 -0.0000
vn 1.0000 0.0000 -0.0000
vn 0.0872 0.9962 -0.0000
vn -0.6054 -0.7959 -0.0000
vn -0.0975 0.0000 0.9952
vn 0.0097 0.1114 0.9937
vn 0.5519 0.8339 -0.0000
vn -0.0752 0.0000 -0.9972
vn 0.0147 0.1680 -0.9857
vn 0.0000 0.0233 0.9997
vn 1.0000 0.0053 -0.0000
vn 0.0000 0.0233 -0.9997
vn -1.0000 -0.0012 0.0000
vn -1.0000 -0.0012 -0.0000
vn -0.2588 0.9659 -0.0000
vn -1.0000 0.0000 -0.0000
vn 0.8028 -0.5962 -0.0000
vn 0.1120 0.0000 -0.9937
vn -0.0211 0.0787 -0.9967
vn -0.8058 0.5922 -0.0000
vn 0.0848 0.0000 0.9964
vn -0.0275 0.1025 0.9943
vn -0.1053 -0.2285 0.9678
vn 0.1666 -0.0001 0.9860
vn -0.0000 -0.0000 1.0000
vn 0.3147 0.2831 0.9060
vn -0.2899 -0.0054 0.9570
vn 0.1019 -0.2339 -0.9669
vn -0.1764 -0.0001 -0.9843
vn -0.1255 0.3868 -0.9136
vn 0.2697 -0.0007 -0.9629
vn 0.7071 0.0000 0.7071
vn 0.8212 0.2631 0.5064
vn 0.9184 0.3303 0.2179
vn 0.8681 0.1939 0.4569
vn 0.7860 0.4409 0.4334
vn -0.2145 0.0699 -0.9742
vn -0.2707 0.1488 -0.9511
vn -0.1727 0.1246 -0.9771
vn -0.1082 -0.0985 -0.9892
vn -0.3173 -0.0658 -0.9460
vn 0.0585 0.0013 -0.9983
vn 0.2183 0.2555 0.9418
vn 0.1295 0.2083 0.9695
vn 0.1239 -0.0231 0.9920
vn 0.3181 0.0599 0.9462
vn -0.0628 0.0312 0.9975
# 56 vertex normals

vt 1.0000 0.0000 0.0000
vt 1.0000 1.0000 0.0000
vt 0.0000 1.0000 0.0000
vt 0.0000 0.0000 0.0000
vt 1.0000 0.2216 0.0000
vt 0.0000 0.2216 0.0000
vt 1.0000 0.2484 0.0000
vt 0.0000 0.5018 0.0000
vt 0.0000 0.2484 0.0000
vt 1.0000 0.5018 0.0000
vt 0.0000 0.5286 0.0000
vt 1.0000 0.5286 0.0000
vt 0.5891 0.4742 0.0000
vt 1.0000 0.5753 0.0000
vt 0.5957 0.4758 0.0000
# 15 texture coords

g Flowe_Iteration_3
usemtl wire_027177148
s off
f 1/1/1 2/2/1 3/3/1 
f 3/3/1 4/4/1 1/1/1 
f 5/4/2 6/1/2 7/2/2 
f 7/2/2 8/3/2 5/4/2 
f 1/4/3 9/5/3 10/6/3 
f 9/5/3 1/4/3 4/1/3 
f 3/1/4 11/5/4 9/6/4 
f 9/6/4 4/4/4 3/1/4 
f 2/1/5 12/5/5 11/6/5 
f 11/6/5 3/4/5 2/1/5 
f 1/1/6 10/5/6 12/6/6 
f 12/6/6 2/4/6 1/1/6 
f 13/7/7 14/8/7 15/9/7 
f 14/8/7 13/7/7 16/10/7 
f 17/10/8 16/8/8 13/9/8 
f 13/9/8 18/7/8 17/10/8 
f 19/10/9 17/8/9 18/9/9 
f 18/9/9 20/7/9 19/10/9 
f 15/7/10 19/8/10 20/9/10 
f 19/8/10 15/7/10 14/10/10 
f 9/5/7 13/7/7 15/9/7 
f 15/9/7 10/6/7 9/5/7 
f 11/5/11 18/7/11 13/9/11 
f 13/9/11 9/6/11 11/5/11 
f 12/5/9 20/7/9 18/9/9 
f 18/9/9 11/6/9 12/5/9 
f 21/6/12 22/7/12 23/9/12 
f 22/7/12 21/6/12 24/5/12 
f 21/6/13 10/5/13 24/5/13 
f 10/5/13 21/6/13 12/6/13 
f 10/5/14 15/7/14 22/7/14 
f 22/7/15 24/5/15 10/5/15 
f 15/7/16 20/9/16 23/9/16 
f 23/9/16 22/7/16 15/7/16 
f 20/9/17 12/6/17 21/6/17 
f 21/6/18 23/9/18 20/9/18 
f 6/2/19 5/3/19 25/11/19 
f 25/11/19 26/12/19 6/2/19 
f 7/2/20 6/3/20 26/11/20 
f 26/11/20 27/12/20 7/2/20 
f 28/12/21 7/3/21 27/11/21 
f 7/3/21 28/12/21 8/2/21 
f 25/12/22 8/3/22 28/11/22 
f 8/3/23 25/12/23 5/2/23 
f 14/8/7 26/12/7 25/11/7 
f 26/12/7 14/8/7 16/10/7 
f 29/10/24 30/12/24 31/11/24 
f 31/11/24 32/8/24 29/10/24 
f 19/10/9 28/12/9 27/11/9 
f 27/11/9 17/8/9 19/10/9 
f 14/10/25 25/12/25 28/11/25 
f 28/11/25 19/8/25 14/10/25 
f 16/8/26 17/10/26 29/10/26 
f 29/10/26 32/8/26 16/8/26 
f 17/10/27 27/12/27 30/12/27 
f 30/12/28 29/10/28 17/10/28 
f 30/12/29 26/11/29 31/11/29 
f 26/11/29 30/12/29 27/12/29 
f 26/11/30 16/8/30 32/8/30 
f 32/8/31 31/11/31 26/11/31 
f 33/13/32 34/4/32 35/1/32 
f 35/1/33 36/14/33 33/13/33 
f 36/14/34 37/2/34 38/3/34 
f 38/3/35 33/13/35 36/14/35 
f 33/13/36 38/3/36 34/4/36 
f 39/13/37 40/4/37 41/1/37 
f 41/1/38 42/14/38 39/13/38 
f 39/13/39 43/2/39 44/3/39 
f 39/13/40 44/3/40 40/4/40 
f 45/1/41 46/14/41 47/15/41 
f 47/15/42 48/4/42 45/1/42 
f 47/15/43 49/2/43 50/3/43 
f 47/15/44 50/3/44 48/4/44 
f 51/14/9 52/4/9 53/1/9 
f 52/4/9 51/14/9 54/13/9 
f 54/13/9 55/2/9 56/3/9 
f 55/2/9 54/13/9 51/14/9 
f 54/13/9 56/3/9 52/4/9 
f 47/15/45 46/14/45 49/2/45 
f 39/13/46 42/14/46 43/2/46 
f 57/13/47 58/4/47 59/1/47 
f 59/1/48 60/14/48 57/13/48 
f 57/13/49 61/2/49 62/3/49 
f 57/13/50 62/3/50 58/4/50 
f 57/13/51 60/14/51 61/2/51 
f 63/13/52 64/4/52 65/1/52 
f 65/1/53 66/14/53 63/13/53 
f 63/13/54 67/2/54 68/3/54 
f 63/13/55 68/3/55 64/4/55 
f 63/13/56 66/14/56 67/2/56 
# 0 polygons - 90 triangles

