# 3ds Max Wavefront OBJ Exporter v0.97b - (c)2007 guruware
# File Created: 26.04.2016 00:05:48

mtllib Grass_Iteration_2.mtl

#
# object Grass_Iteration_2
#

v  0.1581 0.0000 -0.1692
v  0.1181 0.0000 -0.2092
v  0.1181 1.3505 -0.2092
v  0.1581 1.3505 -0.1692
v  0.0781 0.0000 -0.1692
v  0.0781 1.3505 -0.1692
v  0.1181 0.0000 -0.1292
v  0.1181 1.3505 -0.1292
v  0.2163 2.6469 -0.2092
v  0.2563 2.6469 -0.1692
v  0.1763 2.6469 -0.1692
v  0.2163 2.6469 -0.1292
v  0.3592 3.9433 -0.2092
v  0.3992 3.9433 -0.1692
v  0.3192 3.9433 -0.1692
v  0.3592 3.9433 -0.1292
v  0.3648 3.9861 -0.2908
v  0.4859 3.9728 -0.1692
v  0.2436 3.9993 -0.1692
v  0.3648 3.9861 -0.0476
v  0.5303 4.6157 -0.1692
v  0.4092 4.6289 -0.2908
v  0.2881 4.6422 -0.1692
v  0.4092 4.6289 -0.0476
v  0.4169 4.6619 -0.2148
v  0.4623 4.6579 -0.1692
v  0.3715 4.6658 -0.1692
v  0.4169 4.6619 -0.1236
v  0.0801 -0.0115 -0.1320
v  0.0740 -0.0091 -0.1653
v  0.0036 0.7950 -0.0946
v  0.0097 0.7927 -0.0613
v  0.0407 -0.0125 -0.1594
v  -0.0296 0.7916 -0.0888
v  0.0468 -0.0149 -0.1261
v  -0.0235 0.7892 -0.0555
v  -0.0156 1.5683 0.0068
v  -0.0095 1.5659 0.0401
v  -0.0488 1.5648 0.0127
v  -0.0427 1.5624 0.0460
v  -0.0128 2.3420 0.1236
v  -0.0066 2.3397 0.1569
v  -0.0460 2.3386 0.1295
v  -0.0399 2.3362 0.1628
v  0.0154 2.3735 0.0878
v  0.0345 2.3583 0.1882
v  -0.0861 2.3710 0.1065
v  -0.0671 2.3558 0.2069
v  0.0229 2.7417 0.2370
v  0.0038 2.7569 0.1366
v  -0.0978 2.7543 0.1553
v  -0.0787 2.7392 0.2557
v  -0.0199 2.7710 0.1782
v  -0.0128 2.7660 0.2159
v  -0.0579 2.7695 0.1852
v  -0.0508 2.7644 0.2229
v  0.0240 0.0000 -0.1692
v  -0.0160 0.0000 -0.2092
v  -0.0877 1.3505 -0.2092
v  -0.0483 1.3575 -0.1692
v  -0.0560 0.0000 -0.1692
v  -0.1271 1.3436 -0.1692
v  -0.0160 0.0000 -0.1292
v  -0.0877 1.3505 -0.1292
v  -0.2855 2.6469 -0.2092
v  -0.2493 2.6638 -0.1692
v  -0.3218 2.6300 -0.1692
v  -0.2855 2.6469 -0.1292
v  -0.4711 3.1486 -0.2343
v  -0.4502 3.1718 -0.1940
v  -0.5045 3.1255 -0.2036
v  -0.4836 3.1486 -0.1634
v  -0.4789 3.1813 -0.3102
v  -0.4082 3.2423 -0.1866
v  -0.5877 3.1204 -0.2183
v  -0.5170 3.1813 -0.0947
v  -0.7442 3.7112 -0.2459
v  -0.8150 3.6502 -0.3695
v  -0.9238 3.5893 -0.2775
v  -0.8530 3.6502 -0.1539
v  -0.8405 3.6774 -0.3045
v  -0.8145 3.7009 -0.2582
v  -0.8807 3.6538 -0.2699
v  -0.8547 3.6774 -0.2237
v  0.0187 0.6714 -0.2075
v  0.0223 -0.0212 -0.2139
v  -0.0086 0.6699 -0.1874
v  0.0496 -0.0197 -0.2340
v  0.0424 -0.0213 -0.1866
v  0.0115 0.6698 -0.1601
v  0.0697 -0.0199 -0.2067
v  0.0388 0.6713 -0.1802
v  -0.0294 1.3353 -0.2202
v  -0.0021 1.3367 -0.2402
v  -0.0093 1.3352 -0.1928
v  0.0180 1.3366 -0.2129
v  -0.0463 2.0015 -0.2795
v  -0.0190 2.0030 -0.2995
v  -0.0261 2.0014 -0.2521
v  0.0012 2.0029 -0.2722
v  -0.0951 2.0221 -0.2893
v  -0.0119 2.0197 -0.3504
v  -0.0342 2.0286 -0.2062
v  0.0491 2.0262 -0.2673
v  -0.0226 2.3496 -0.3641
v  -0.1058 2.3520 -0.3030
v  -0.0449 2.3584 -0.2199
v  0.0383 2.3561 -0.2810
v  -0.0608 2.3703 -0.3000
v  -0.0296 2.3699 -0.3229
v  -0.0380 2.3722 -0.2689
v  -0.0068 2.3718 -0.2918
v  0.2967 -0.0357 0.0753
v  0.1976 -0.0358 0.0608
v  0.1987 1.6347 0.2054
v  0.2978 1.6347 0.2192
v  0.0985 -0.0358 0.0783
v  0.0996 1.6346 0.2222
v  0.3879 3.2623 0.7410
v  0.4487 3.1080 0.7016
v  0.2861 3.1527 0.6671
v  0.4262 -0.0400 -0.1882
v  0.4419 -0.0363 -0.1145
v  0.7292 1.2734 -0.0780
v  0.7129 1.2698 -0.1519
v  0.3883 -0.0360 -0.0342
v  0.6750 1.2738 0.0021
v  1.3029 2.5046 -0.1075
v  1.2469 2.3849 -0.1634
v  1.2141 2.4276 -0.0445
v  -0.0701 -0.0434 -0.0284
v  -0.1074 -0.0508 -0.1211
v  -0.3225 1.1074 -0.1031
v  -0.2846 1.1149 -0.0108
v  -0.1723 -0.0596 -0.1975
v  -0.3867 1.0986 -0.1799
v  -0.8210 2.2343 0.1848
v  -0.7480 2.1333 0.2224
v  -0.8024 2.1529 0.0635
v  -0.0530 -0.0599 -0.2737
v  0.0396 -0.0494 -0.3111
v  -0.1793 1.3157 -0.5262
v  -0.2715 1.3053 -0.4882
v  0.1164 -0.0439 -0.3759
v  -0.1021 1.3213 -0.5904
v  -0.6585 2.5874 -1.0246
v  -0.6780 2.4603 -0.9517
v  -0.5249 2.5164 -1.0061
v  0.2542 -0.0459 -0.4314
v  0.3259 -0.0468 -0.4080
v  0.5496 1.2697 -0.5347
v  0.4775 1.2706 -0.5576
v  0.3685 -0.0548 -0.3218
v  0.5918 1.2617 -0.4480
v  0.8568 2.5270 -0.9478
v  0.7761 2.4090 -0.9366
v  0.8641 2.4414 -0.8458
v  0.1135 -0.0331 0.0364
v  0.0235 -0.0443 -0.0833
v  -0.2812 1.6931 0.0263
v  -0.1904 1.7043 0.1453
v  -0.1001 -0.0575 -0.1689
v  -0.4041 1.6799 -0.0601
v  -0.8916 3.3834 0.6369
v  -0.7714 3.2320 0.6630
v  -0.9119 3.2613 0.4539
v  0.2451 -0.0498 -0.3911
v  0.3136 -0.0681 -0.2586
v  0.6316 1.7136 -0.2314
v  0.5878 1.7346 -0.3734
v  0.4212 -0.0846 -0.1540
v  0.7166 1.6906 -0.1091
v  1.4669 3.3976 -0.4943
v  1.3585 3.2536 -0.5691
v  1.4190 3.2665 -0.3231
v  0.1132 -0.0449 -0.3594
v  0.1785 -0.0464 -0.3390
v  0.1457 0.5046 -0.4923
v  0.0805 0.5061 -0.5124
v  0.2393 -0.0495 -0.3338
v  0.2066 0.5015 -0.4868
v  0.0976 1.0194 -0.8375
v  0.0341 0.9739 -0.8193
v  0.1745 0.9842 -0.7830
v  -0.0510 -0.0403 -0.1876
v  -0.0197 -0.0475 -0.2480
v  -0.1680 0.5042 -0.2900
v  -0.1989 0.5114 -0.2296
v  -0.0041 -0.0560 -0.3065
v  -0.1521 0.4958 -0.3486
v  -0.5084 1.0212 -0.3471
v  -0.5021 0.9815 -0.2776
v  -0.4421 0.9794 -0.4100
# 193 vertices

vn 1.0000 0.0000 -0.0000
vn -0.0000 0.0000 -1.0000
vn 0.0000 0.0000 -1.0000
vn 1.0000 0.0000 0.0000
vn -1.0000 0.0000 0.0000
vn -1.0000 0.0000 -0.0000
vn 0.0000 0.0000 1.0000
vn -0.0000 0.0000 1.0000
vn 0.0000 -1.0000 -0.0000
vn 0.7061 -0.0535 -0.7061
vn -0.7061 0.0535 -0.7061
vn -0.7061 0.0535 0.7061
vn 0.7061 -0.0535 0.7061
vn 0.7050 -0.0777 -0.7050
vn -0.7050 0.0777 -0.7050
vn -0.7050 0.0777 0.7050
vn 0.7050 -0.0777 0.7050
vn 0.4029 -0.8218 -0.4029
vn 0.2964 -0.8717 -0.3902
vn -0.5114 -0.6906 -0.5114
vn -0.5095 -0.7476 -0.4261
vn -0.4399 -0.7830 0.4399
vn -0.5312 -0.7173 0.4510
vn 0.3064 -0.9012 0.3064
vn 0.3294 -0.8455 0.4203
vn 0.7050 -0.0487 -0.7076
vn -0.7050 0.0487 -0.7076
vn -0.7050 0.0487 0.7076
vn 0.7050 -0.0487 0.7076
vn 0.4771 0.7879 -0.3894
vn 0.4804 0.7747 -0.4111
vn -0.2553 0.9004 -0.3524
vn -0.2808 0.8907 -0.3574
vn -0.2643 0.8945 0.3607
vn -0.2570 0.9065 0.3350
vn 0.4837 0.7800 0.3969
vn 0.4624 0.7956 0.3913
vn 0.0872 0.9962 -0.0000
vn 0.8204 0.0216 0.5714
vn 0.5652 0.1211 -0.8160
vn -0.8204 -0.0216 -0.5714
vn -0.5652 -0.1211 0.8160
vn 0.0868 -0.9924 -0.0872
vn 0.9830 0.0477 -0.1774
vn -0.1849 0.1233 -0.9750
vn -0.9830 -0.0477 0.1774
vn 0.1849 -0.1233 0.9750
vn 0.9835 0.0235 -0.1792
vn -0.1867 0.1473 -0.9713
vn -0.9835 -0.0235 0.1792
vn 0.1867 -0.1473 0.9713
vn 0.6295 -0.7581 -0.1702
vn 0.5394 -0.8114 -0.2251
vn -0.0706 -0.6345 -0.7697
vn -0.1122 -0.7013 -0.7040
vn -0.5415 -0.8398 0.0394
vn -0.6284 -0.7779 0.0020
vn 0.1565 -0.9249 0.3466
vn 0.1061 -0.8829 0.4575
vn 0.9825 0.0526 -0.1789
vn 0.9825 0.0526 -0.1788
vn -0.1827 0.1188 -0.9760
vn -0.9825 -0.0526 0.1789
vn 0.1827 -0.1188 0.9760
vn 0.5431 0.8394 0.0235
vn 0.5592 0.8290 0.0066
vn -0.0884 0.9307 -0.3549
vn -0.1057 0.9212 -0.3745
vn -0.4983 0.8383 0.2213
vn -0.4789 0.8535 0.2056
vn 0.1048 0.7365 0.6683
vn 0.0891 0.7522 0.6529
vn -0.0150 0.9905 0.1366
vn 0.9986 0.0531 0.0000
vn 0.0238 0.0014 -0.9997
vn 0.0548 0.0030 -0.9985
vn -0.9986 -0.0530 -0.0000
vn 0.0239 0.0014 0.9997
vn 0.0549 0.0030 0.9985
vn 0.6991 0.1067 -0.7070
vn 0.7130 0.1097 -0.6925
vn -0.6993 -0.1058 -0.7070
vn -0.7132 -0.1088 -0.6924
vn -0.6991 -0.1067 0.7070
vn -0.7135 -0.1080 0.6923
vn 0.6990 0.1075 0.7070
vn 0.7132 0.1088 0.6924
vn 0.6767 0.2151 -0.7042
vn 0.7767 0.2796 -0.5643
vn -0.6461 -0.2874 -0.7070
vn -0.5575 -0.2459 -0.7929
vn -0.6753 -0.2186 0.7044
vn -0.7912 -0.2531 0.5566
vn 0.6451 0.2898 0.7071
vn 0.5436 0.2688 0.7951
vn 0.8941 -0.3706 -0.2514
vn 0.8432 -0.4772 -0.2476
vn 0.1402 -0.8578 -0.4946
vn 0.1629 -0.9002 -0.4040
vn 0.0874 -0.8825 0.4621
vn -0.0250 -0.8909 0.4536
vn 0.7485 -0.4934 0.4431
vn 0.7107 -0.4360 0.5521
vn 0.6855 0.4158 -0.5976
vn -0.4398 -0.4158 -0.7960
vn -0.6855 -0.4158 0.5976
vn 0.4398 0.4158 0.7960
vn -0.0712 0.9102 -0.4080
vn -0.0566 0.9023 -0.4274
vn -0.7013 0.5256 -0.4815
vn -0.7137 0.5018 -0.4888
vn -0.8282 0.5153 0.2202
vn -0.8259 0.5292 0.1946
vn -0.1978 0.9085 0.3682
vn -0.2227 0.9067 0.3581
vn -0.5649 0.8192 -0.0996
vn 0.1445 0.0444 -0.9885
vn -0.9870 -0.0381 -0.1562
vn -0.9886 -0.0386 -0.1454
vn 0.1537 0.0447 -0.9871
vn -0.1445 -0.0444 0.9885
vn -0.1537 -0.0447 0.9871
vn 0.9886 0.0386 0.1454
vn 0.9870 0.0381 0.1561
vn 0.0325 -0.9991 -0.0279
vn 0.0326 -0.9991 -0.0279
vn -0.5899 -0.0581 -0.8054
vn -0.8052 0.0040 0.5930
vn -0.8052 0.0040 0.5931
vn 0.5899 0.0581 0.8054
vn 0.8052 -0.0040 -0.5930
vn 0.8052 -0.0040 -0.5931
vn -0.5877 -0.0864 -0.8045
vn -0.8047 0.0324 0.5928
vn 0.5877 0.0864 0.8045
vn 0.8047 -0.0324 -0.5928
vn -0.2743 -0.8578 -0.4346
vn -0.2721 -0.9018 -0.3357
vn -0.5079 -0.7774 0.3710
vn -0.4233 -0.8249 0.3746
vn 0.3598 -0.8286 0.4288
vn 0.3603 -0.7737 0.5211
vn 0.3376 -0.9069 -0.2522
vn 0.4445 -0.8574 -0.2594
vn -0.5917 -0.0527 -0.8044
vn -0.8063 -0.0016 0.5915
vn 0.5917 0.0527 0.8044
vn 0.8063 0.0016 -0.5915
vn -0.3094 0.8355 -0.4541
vn -0.3289 0.8237 -0.4620
vn -0.3709 0.9065 0.2016
vn -0.3793 0.8979 0.2235
vn 0.2483 0.9202 0.3026
vn 0.2260 0.9292 0.2924
vn 0.3898 0.8509 -0.3521
vn 0.3801 0.8632 -0.3323
vn -0.0213 0.9987 -0.0457
vn -0.0214 0.9987 -0.0457
vn 0.1441 0.0853 -0.9859
vn 0.1368 0.0849 -0.9870
vn -0.1732 0.0846 -0.9812
vn -0.1660 0.0852 -0.9824
vn 0.1310 0.2961 -0.9461
vn 0.1371 0.2955 -0.9454
vn -0.1593 0.2956 -0.9419
vn 0.3792 0.2492 -0.8911
vn -0.9594 0.2051 0.1937
vn -0.9581 0.2042 0.2008
vn -0.8155 0.1936 -0.5453
vn -0.8123 0.1935 -0.5502
vn -0.8907 0.4193 0.1755
vn -0.9019 0.4316 -0.0194
vn -0.7776 0.3420 -0.5276
vn -0.7168 0.3192 -0.6199
vn 0.9084 0.1746 -0.3799
vn 0.9057 0.1736 -0.3867
vn 0.7457 0.1480 -0.6497
vn 0.7502 0.1494 -0.6441
vn 0.8108 0.4532 -0.3703
vn 0.8144 0.4535 -0.3620
vn 0.6770 0.4083 -0.6124
vn 0.8883 0.4324 -0.1547
vn 0.3468 0.2000 0.9164
vn 0.3537 0.2002 0.9137
vn 0.6205 0.2177 0.7534
vn 0.6147 0.2180 0.7581
vn 0.2981 0.4436 0.8452
vn 0.2895 0.4425 0.8488
vn 0.5545 0.4415 0.7054
vn 0.0798 0.3897 0.9175
vn -0.3055 0.1425 0.9415
vn -0.2988 0.1412 0.9438
vn -0.8730 0.1911 0.4488
vn -0.8756 0.1914 0.4436
vn -0.2790 0.3606 0.8900
vn -0.4526 0.3863 0.8037
vn -0.8331 0.3395 0.4366
vn -0.8833 0.3264 0.3364
vn 0.7791 0.1746 -0.6020
vn 0.7748 0.1736 -0.6079
vn 0.5521 0.1480 -0.8205
vn 0.5580 0.1494 -0.8163
vn 0.6874 0.4532 -0.5675
vn 0.6930 0.4535 -0.5605
vn 0.4954 0.4083 -0.7667
vn 0.8180 0.4324 -0.3793
vn -0.8700 0.1481 0.4704
vn -0.9330 0.1761 0.3137
vn -0.6865 0.0960 0.7208
vn -0.8018 0.1342 0.5824
vn -0.8268 0.4605 0.3230
vn -0.8296 0.4614 0.3145
vn -0.7168 0.3973 0.5730
vn -0.8850 0.4547 0.1005
vn -0.2843 0.2413 0.9279
vn -0.2799 0.2413 0.9292
vn -0.0686 0.2631 0.9623
vn -0.0743 0.2632 0.9619
vn -0.2387 0.5253 0.8168
vn -0.1421 0.5330 0.8341
vn -0.0514 0.5198 0.8527
vn -0.3349 0.5029 0.7968
vn 0.8686 0.2654 0.4185
vn 0.8706 0.2650 0.4145
vn 0.9400 0.2681 0.2111
vn 0.9385 0.2688 0.2165
vn 0.7713 0.5443 0.3300
vn 0.8051 0.5435 0.2376
vn 0.8389 0.5224 0.1530
vn 0.7347 0.5304 0.4229
# 230 vertex normals

vt 0.7500 0.0000 1.0000
vt 1.0000 0.0000 1.0000
vt 1.0000 1.0000 1.0000
vt 0.7500 1.0000 1.0000
vt 0.0000 0.0000 1.0000
vt 0.2500 0.0000 1.0000
vt 0.2500 1.0000 1.0000
vt 0.0000 1.0000 1.0000
vt 0.5000 0.0000 1.0000
vt 0.5000 1.0000 1.0000
vt 1.0000 0.5000 -0.2500
vt 0.0000 0.5000 -0.2500
vt 0.5000 1.0000 -0.2500
vt 0.5000 0.0000 -0.2500
vt 0.5000 1.0000 0.2500
vt 0.0000 0.5000 0.2500
vt 0.5000 0.0000 0.2500
vt 1.0000 0.5000 0.2500
vt 0.0000 0.0000 0.0000
vt 0.5000 0.0000 0.0000
vt 0.5000 0.5000 0.0000
vt 0.0000 0.5000 0.0000
vt 1.0000 0.0000 0.0000
vt 1.0000 0.5000 0.0000
vt 0.5000 1.0000 0.0000
vt 0.0000 1.0000 0.0000
vt 1.0000 1.0000 0.0000
# 27 texture coords

g Grass_Iteration_2
usemtl wire_184155229
s 8
f 1/1/1 2/2/2 3/3/3 
f 3/3/3 4/4/4 1/1/1 
f 2/5/2 5/6/5 6/7/6 
f 6/7/6 3/8/3 2/5/2 
f 5/6/5 7/9/7 8/10/8 
f 8/10/8 6/7/6 5/6/5 
f 7/9/7 1/1/1 4/4/4 
f 4/4/4 8/10/8 7/9/7 
s 1
f 7/11/9 2/12/9 1/13/9 
f 2/12/9 7/11/9 5/14/9 
s off
f 4/15/10 3/16/10 9/16/10 
f 9/16/10 10/15/10 4/15/10 
f 3/16/11 6/17/11 11/17/11 
f 11/17/11 9/16/11 3/16/11 
f 11/17/12 8/18/12 12/18/12 
f 8/18/12 11/17/12 6/17/12 
f 12/18/13 4/15/13 10/15/13 
f 4/15/13 12/18/13 8/18/13 
f 10/15/14 9/16/14 13/16/14 
f 13/16/14 14/15/14 10/15/14 
f 9/16/15 11/17/15 15/17/15 
f 15/17/15 13/16/15 9/16/15 
f 15/17/16 12/18/16 16/18/16 
f 12/18/16 15/17/16 11/17/16 
f 16/18/17 10/15/17 14/15/17 
f 10/15/17 16/18/17 12/18/17 
f 14/15/18 13/16/18 17/16/18 
f 17/16/19 18/15/19 14/15/19 
f 13/16/20 15/17/20 19/17/20 
f 19/17/21 17/16/21 13/16/21 
f 15/17/22 16/18/22 20/18/22 
f 20/18/23 19/17/23 15/17/23 
f 16/18/24 14/15/24 18/15/24 
f 18/15/25 20/18/25 16/18/25 
f 21/15/26 17/16/26 22/16/26 
f 17/16/26 21/15/26 18/15/26 
f 22/16/27 19/17/27 23/17/27 
f 19/17/27 22/16/27 17/16/27 
f 19/17/28 20/18/28 24/18/28 
f 24/18/28 23/17/28 19/17/28 
f 20/18/29 18/15/29 21/15/29 
f 21/15/29 24/18/29 20/18/29 
f 21/15/30 22/16/30 25/16/30 
f 25/16/31 26/15/31 21/15/31 
f 22/16/32 23/17/32 27/17/32 
f 27/17/33 25/16/33 22/16/33 
f 23/17/34 24/18/34 28/18/34 
f 28/18/35 27/17/35 23/17/35 
f 24/18/36 21/15/36 26/15/36 
f 26/15/37 28/18/37 24/18/37 
f 25/16/38 28/18/38 26/15/38 
f 28/18/38 25/16/38 27/17/38 
s 8
f 29/1/39 30/2/40 31/3/40 
f 31/3/40 32/4/39 29/1/39 
f 31/8/40 33/6/41 34/7/41 
f 33/6/41 31/8/40 30/5/40 
f 33/6/41 35/9/42 36/10/42 
f 36/10/42 34/7/41 33/6/41 
f 35/9/42 29/1/39 32/4/39 
f 32/4/39 36/10/42 35/9/42 
s 1
f 33/14/43 30/12/43 29/13/43 
f 29/13/43 35/11/43 33/14/43 
s off
f 32/15/44 31/16/44 37/16/44 
f 37/16/44 38/15/44 32/15/44 
f 31/16/45 34/17/45 39/17/45 
f 39/17/45 37/16/45 31/16/45 
f 39/17/46 36/18/46 40/18/46 
f 36/18/46 39/17/46 34/17/46 
f 40/18/47 32/15/47 38/15/47 
f 32/15/47 40/18/47 36/18/47 
f 38/15/48 37/16/48 41/16/48 
f 41/16/48 42/15/48 38/15/48 
f 37/16/49 39/17/49 43/17/49 
f 43/17/49 41/16/49 37/16/49 
f 43/17/50 40/18/50 44/18/50 
f 40/18/50 43/17/50 39/17/50 
f 44/18/51 38/15/51 42/15/51 
f 38/15/51 44/18/51 40/18/51 
f 42/15/52 41/16/52 45/16/52 
f 45/16/53 46/15/53 42/15/53 
f 41/16/54 43/17/54 47/17/54 
f 47/17/55 45/16/55 41/16/55 
f 43/17/56 44/18/56 48/18/56 
f 48/18/57 47/17/57 43/17/57 
f 44/18/58 42/15/58 46/15/58 
f 46/15/59 48/18/59 44/18/59 
f 49/15/60 45/16/60 50/16/60 
f 45/16/61 49/15/61 46/15/61 
f 50/16/62 47/17/62 51/17/62 
f 47/17/62 50/16/62 45/16/62 
f 47/17/63 48/18/63 52/18/63 
f 52/18/63 51/17/63 47/17/63 
f 48/18/64 46/15/64 49/15/64 
f 49/15/64 52/18/64 48/18/64 
f 49/15/65 50/16/65 53/16/65 
f 53/16/66 54/15/66 49/15/66 
f 50/16/67 51/17/67 55/17/67 
f 55/17/68 53/16/68 50/16/68 
f 51/17/69 52/18/69 56/18/69 
f 56/18/70 55/17/70 51/17/70 
f 52/18/71 49/15/71 54/15/71 
f 54/15/72 56/18/72 52/18/72 
f 55/17/73 56/18/73 54/15/73 
f 54/15/73 53/16/73 55/17/73 
s 8
f 57/1/74 58/2/75 59/3/76 
f 59/3/76 60/4/74 57/1/74 
f 58/5/75 61/6/77 62/7/77 
f 62/7/77 59/8/76 58/5/75 
f 61/6/77 63/9/78 64/10/79 
f 64/10/79 62/7/77 61/6/77 
f 63/9/78 57/1/74 60/4/74 
f 60/4/74 64/10/79 63/9/78 
s 1
f 63/11/9 58/12/9 57/13/9 
f 58/12/9 63/11/9 61/14/9 
s off
f 60/15/80 59/16/80 65/16/80 
f 65/16/81 66/15/81 60/15/81 
f 59/16/82 62/17/82 67/17/82 
f 67/17/83 65/16/83 59/16/83 
f 62/17/84 64/18/84 68/18/84 
f 68/18/85 67/17/85 62/17/85 
f 64/18/86 60/15/86 66/15/86 
f 66/15/87 68/18/87 64/18/87 
f 66/15/88 65/16/88 69/16/88 
f 69/16/89 70/15/89 66/15/89 
f 65/16/90 67/17/90 71/17/90 
f 71/17/91 69/16/91 65/16/91 
f 67/17/92 68/18/92 72/18/92 
f 72/18/93 71/17/93 67/17/93 
f 68/18/94 66/15/94 70/15/94 
f 70/15/95 72/18/95 68/18/95 
f 70/15/96 69/16/96 73/16/96 
f 73/16/97 74/15/97 70/15/97 
f 69/16/98 71/17/98 75/17/98 
f 75/17/99 73/16/99 69/16/99 
f 71/17/100 72/18/100 76/18/100 
f 76/18/101 75/17/101 71/17/101 
f 72/18/102 70/15/102 74/15/102 
f 74/15/103 76/18/103 72/18/103 
f 77/15/104 73/16/104 78/16/104 
f 73/16/104 77/15/104 74/15/104 
f 78/16/105 75/17/105 79/17/105 
f 75/17/105 78/16/105 73/16/105 
f 75/17/106 76/18/106 80/18/106 
f 80/18/106 79/17/106 75/17/106 
f 76/18/107 74/15/107 77/15/107 
f 77/15/107 80/18/107 76/18/107 
f 77/15/108 78/16/108 81/16/108 
f 81/16/109 82/15/109 77/15/109 
f 78/16/110 79/17/110 83/17/110 
f 83/17/111 81/16/111 78/16/111 
f 79/17/112 80/18/112 84/18/112 
f 84/18/113 83/17/113 79/17/113 
f 80/18/114 77/15/114 82/15/114 
f 82/15/115 84/18/115 80/18/115 
f 83/17/116 84/18/116 82/15/116 
f 82/15/116 81/16/116 83/17/116 
s 8
f 85/4/117 86/2/118 87/3/119 
f 86/2/118 85/4/117 88/1/120 
f 87/8/119 89/6/121 90/7/122 
f 89/6/121 87/8/119 86/5/118 
f 89/6/121 91/9/123 92/10/124 
f 92/10/124 90/7/122 89/6/121 
f 91/9/123 88/1/120 85/4/117 
f 85/4/117 92/10/124 91/9/123 
s 1
f 89/14/125 86/12/125 88/13/125 
f 88/13/125 91/11/126 89/14/125 
s off
f 85/15/127 87/16/127 93/16/127 
f 93/16/127 94/15/127 85/15/127 
f 87/16/128 90/17/128 95/17/128 
f 95/17/129 93/16/129 87/16/129 
f 95/17/130 92/18/130 96/18/130 
f 92/18/130 95/17/130 90/17/130 
f 96/18/131 85/15/131 94/15/131 
f 85/15/132 96/18/132 92/18/132 
f 94/15/133 93/16/133 97/16/133 
f 97/16/133 98/15/133 94/15/133 
f 93/16/134 95/17/134 99/17/134 
f 99/17/134 97/16/134 93/16/134 
f 99/17/135 96/18/135 100/18/135 
f 96/18/135 99/17/135 95/17/135 
f 100/18/136 94/15/136 98/15/136 
f 94/15/136 100/18/136 96/18/136 
f 98/15/137 97/16/137 101/16/137 
f 101/16/138 102/15/138 98/15/138 
f 97/16/139 99/17/139 103/17/139 
f 103/17/140 101/16/140 97/16/140 
f 99/17/141 100/18/141 104/18/141 
f 104/18/142 103/17/142 99/17/142 
f 100/18/143 98/15/143 102/15/143 
f 102/15/144 104/18/144 100/18/144 
f 105/15/145 101/16/145 106/16/145 
f 101/16/145 105/15/145 102/15/145 
f 106/16/146 103/17/146 107/17/146 
f 103/17/146 106/16/146 101/16/146 
f 103/17/147 104/18/147 108/18/147 
f 108/18/147 107/17/147 103/17/147 
f 104/18/148 102/15/148 105/15/148 
f 105/15/148 108/18/148 104/18/148 
f 105/15/149 106/16/149 109/16/149 
f 109/16/150 110/15/150 105/15/150 
f 106/16/151 107/17/151 111/17/151 
f 111/17/152 109/16/152 106/16/152 
f 107/17/153 108/18/153 112/18/153 
f 112/18/154 111/17/154 107/17/154 
f 108/18/155 105/15/155 110/15/155 
f 110/15/156 112/18/156 108/18/156 
f 111/17/157 112/18/157 110/15/157 
f 110/15/158 109/16/158 111/17/158 
f 113/19/159 114/20/159 115/21/159 
f 115/21/160 116/22/160 113/19/160 
f 114/20/161 117/23/161 118/24/161 
f 118/24/162 115/21/162 114/20/162 
f 116/22/163 115/21/163 119/25/163 
f 119/25/164 120/26/164 116/22/164 
f 115/21/165 118/24/165 121/27/165 
f 121/27/166 119/25/166 115/21/166 
f 122/19/167 123/20/167 124/21/167 
f 124/21/168 125/22/168 122/19/168 
f 123/20/169 126/23/169 127/24/169 
f 127/24/170 124/21/170 123/20/170 
f 125/22/171 124/21/171 128/25/171 
f 128/25/172 129/26/172 125/22/172 
f 124/21/173 127/24/173 130/27/173 
f 130/27/174 128/25/174 124/21/174 
f 131/19/175 132/20/175 133/21/175 
f 133/21/176 134/22/176 131/19/176 
f 132/20/177 135/23/177 136/24/177 
f 136/24/178 133/21/178 132/20/178 
f 134/22/179 133/21/179 137/25/179 
f 137/25/180 138/26/180 134/22/180 
f 133/21/181 136/24/181 139/27/181 
f 139/27/182 137/25/182 133/21/182 
f 140/19/183 141/20/183 142/21/183 
f 142/21/184 143/22/184 140/19/184 
f 141/20/185 144/23/185 145/24/185 
f 145/24/186 142/21/186 141/20/186 
f 143/22/187 142/21/187 146/25/187 
f 146/25/188 147/26/188 143/22/188 
f 142/21/189 145/24/189 148/27/189 
f 148/27/190 146/25/190 142/21/190 
f 149/19/191 150/20/191 151/21/191 
f 151/21/192 152/22/192 149/19/192 
f 150/20/193 153/23/193 154/24/193 
f 154/24/194 151/21/194 150/20/194 
f 152/22/195 151/21/195 155/25/195 
f 155/25/196 156/26/196 152/22/196 
f 151/21/197 154/24/197 157/27/197 
f 157/27/198 155/25/198 151/21/198 
f 158/19/199 159/20/199 160/21/199 
f 160/21/200 161/22/200 158/19/200 
f 159/20/201 162/23/201 163/24/201 
f 163/24/202 160/21/202 159/20/202 
f 161/22/203 160/21/203 164/25/203 
f 164/25/204 165/26/204 161/22/204 
f 160/21/205 163/24/205 166/27/205 
f 166/27/206 164/25/206 160/21/206 
f 167/19/207 168/20/207 169/21/207 
f 169/21/208 170/22/208 167/19/208 
f 168/20/209 171/23/209 172/24/209 
f 172/24/210 169/21/210 168/20/210 
f 170/22/211 169/21/211 173/25/211 
f 173/25/212 174/26/212 170/22/212 
f 169/21/213 172/24/213 175/27/213 
f 175/27/214 173/25/214 169/21/214 
f 176/19/215 177/20/215 178/21/215 
f 178/21/216 179/22/216 176/19/216 
f 177/20/217 180/23/217 181/24/217 
f 181/24/218 178/21/218 177/20/218 
f 179/22/219 178/21/219 182/25/219 
f 182/25/220 183/26/220 179/22/220 
f 178/21/221 181/24/221 184/27/221 
f 184/27/222 182/25/222 178/21/222 
f 185/19/223 186/20/223 187/21/223 
f 187/21/224 188/22/224 185/19/224 
f 186/20/225 189/23/225 190/24/225 
f 190/24/226 187/21/226 186/20/226 
f 188/22/227 187/21/227 191/25/227 
f 191/25/228 192/26/228 188/22/228 
f 187/21/229 190/24/229 193/27/229 
f 193/27/230 191/25/230 187/21/230 
# 0 polygons - 280 triangles

