# 3ds Max Wavefront OBJ Exporter v0.97b - (c)2007 guruware
# File Created: 27.04.2016 01:16:03

mtllib HollowLog_1.mtl

#
# object HollowLog_1
#

v  -114.1319 -2.6482 8.1618
v  -115.9243 3.9829 -12.4705
v  -76.9798 6.6313 -14.4679
v  -76.9798 0.6154 8.1618
v  -117.0323 21.3679 -25.2162
v  -76.9798 22.3813 -28.4539
v  -117.0323 42.8628 -25.2162
v  -76.9798 41.8494 -28.4539
v  -115.9243 60.2478 -12.4705
v  -76.9798 57.5994 -14.4679
v  -114.1319 66.8788 8.1618
v  -76.9798 63.6154 8.1618
v  -112.3402 60.2307 28.8070
v  -76.9798 57.5994 30.7915
v  -111.2333 42.8522 41.5737
v  -76.9798 41.8494 44.7775
v  -111.2333 21.3785 41.5737
v  -76.9798 22.3813 44.7775
v  -112.3402 4.0000 28.8070
v  -76.9798 6.6313 30.7915
v  16.5091 6.6313 -14.4679
v  16.5091 0.6154 8.1618
v  16.5091 22.3813 -28.4539
v  16.5091 41.8494 -28.4539
v  16.5091 57.5994 -14.4679
v  16.5091 63.6154 8.1618
v  10.7823 59.2477 30.2189
v  14.4248 60.4500 28.7860
v  16.5091 41.8494 44.7775
v  14.4248 55.7487 34.3888
v  16.5091 22.3813 44.7775
v  16.5091 6.6313 30.7915
v  80.4746 4.5364 -14.4679
v  80.4769 -2.7624 8.1618
v  80.4737 23.6445 -28.4539
v  80.4828 47.2643 -28.4539
v  80.4982 66.3750 -14.4679
v  80.5059 73.6754 8.1618
v  18.0573 59.4462 29.9823
v  80.4901 66.4413 30.7582
v  80.4828 47.2643 44.7775
v  80.4737 23.6445 44.7775
v  80.4746 4.5364 30.7915
v  -117.2199 5.6738 -10.9760
v  -115.5181 -0.5185 8.1618
v  -113.6042 2.9487 8.1618
v  -115.0984 8.5190 -8.9167
v  -118.2732 22.0066 -22.8315
v  -116.0219 23.1023 -19.4718
v  -118.2732 42.2241 -22.8315
v  -116.0219 41.1283 -19.4718
v  -117.2199 58.5569 -10.9760
v  -115.0984 55.7117 -8.9167
v  -115.5181 64.7492 8.1618
v  -113.6042 61.2820 8.1618
v  -113.8198 58.4738 27.2395
v  -112.1101 55.7117 25.2403
v  -112.7720 42.1727 38.9973
v  -111.1866 41.1283 35.7954
v  -112.7720 22.0580 38.9973
v  -111.1866 23.1023 35.7954
v  -113.8198 5.7569 27.2395
v  -112.1101 8.5190 25.2403
v  82.5683 -0.2714 8.1618
v  82.5683 6.5785 -12.9200
v  81.6956 9.6391 -10.6963
v  81.6956 3.5117 8.1618
v  82.5683 24.5117 -25.9493
v  81.6956 25.6808 -22.3513
v  82.5683 46.6784 -25.9493
v  81.6956 45.5094 -22.3513
v  82.5683 64.6117 -12.9200
v  81.6956 61.5510 -10.6963
v  82.5683 71.4615 8.1618
v  81.6956 67.6784 8.1618
v  82.5683 64.6117 29.2436
v  81.6956 61.5510 27.0199
v  82.5683 46.6784 42.2729
v  81.6956 45.5094 38.6749
v  82.5683 24.5117 42.2729
v  81.6956 25.6808 38.6749
v  82.5683 6.5784 29.2436
v  81.6956 9.6391 27.0199
v  12.2997 67.5121 37.9751
v  14.4230 65.8430 39.9642
v  16.5435 67.6279 37.8371
v  14.4230 68.5854 36.6960
v  14.4228 63.3797 36.9985
v  12.9062 64.5719 35.5776
v  15.9374 64.6547 35.4791
v  14.4228 65.3386 34.6640
v  16.9544 8.3032 -8.4333
v  16.9544 2.9111 8.1618
v  16.9544 22.4198 -18.6897
v  16.9544 39.8690 -18.6897
v  16.9544 53.9857 -8.4333
v  16.9544 59.3777 8.1618
v  16.9544 53.9856 24.7569
v  16.9544 39.8690 35.0133
v  16.9544 22.4198 35.0133
v  16.9544 8.3032 24.7569
v  -76.6287 8.3857 -8.8105
v  -76.6287 2.8711 8.1618
v  -76.6287 22.8232 -19.3000
v  -76.6287 40.6689 -19.3000
v  -76.6287 55.1064 -8.8105
v  -76.6287 60.6211 8.1618
v  -76.6287 55.1064 25.1341
v  -76.6287 40.6689 35.6235
v  -76.6287 22.8232 35.6235
v  -76.6287 8.3857 25.1341
# 111 vertices

vn 0.0669 -0.9569 -0.2825
vn -0.0224 -0.6282 -0.7777
vn -0.0806 0.0000 -0.9967
vn -0.0224 0.6282 -0.7777
vn 0.0669 0.9569 -0.2825
vn 0.0703 0.9582 0.2775
vn -0.0252 0.6276 0.7782
vn -0.0931 -0.0000 0.9957
vn -0.0252 -0.6276 0.7782
vn 0.0703 -0.9582 0.2775
vn 0.0000 -0.9664 -0.2569
vn 0.0000 -0.6640 -0.7477
vn -0.0000 0.0000 -1.0000
vn -0.0000 0.6640 -0.7477
vn -0.0000 0.9664 -0.2569
vn -0.0237 0.9585 0.2840
vn -0.0000 0.9884 0.1517
vn -0.0035 0.6522 0.7581
vn -0.3823 0.5157 0.7667
vn 0.0000 0.0000 1.0000
vn 0.0000 -0.6640 0.7477
vn 0.0000 -0.9664 0.2569
vn -0.0410 -0.9585 -0.2820
vn -0.0041 -0.6259 -0.7799
vn 0.0000 0.0000 -1.0000
vn -0.0692 0.6243 -0.7781
vn -0.1398 0.9499 -0.2795
vn -0.0943 0.9766 0.1933
vn -0.1481 0.9419 0.3014
vn -0.0507 0.5909 0.8051
vn -0.0970 0.8004 0.5916
vn -0.0041 -0.6259 0.7799
vn -0.0410 -0.9585 0.2820
vn -0.8524 0.4705 0.2280
vn -0.8366 0.2854 0.4675
vn -0.8307 -0.0000 0.5567
vn -0.8366 -0.2854 0.4675
vn -0.8524 -0.4705 0.2280
vn -0.8726 -0.4817 -0.0808
vn -0.8896 -0.3035 -0.3415
vn -0.8962 -0.0000 -0.4437
vn -0.8896 0.3035 -0.3415
vn -0.8726 0.4817 -0.0808
vn 0.9718 0.2242 0.0728
vn 0.9718 0.1386 0.1907
vn 0.9718 0.0000 0.2357
vn 0.9718 -0.1386 0.1907
vn 0.9718 -0.2242 0.0728
vn 0.9718 -0.2242 -0.0728
vn 0.9718 -0.1386 -0.1907
vn 0.9718 0.0000 -0.2357
vn 0.9718 0.1386 -0.1907
vn 0.9718 0.2242 -0.0728
vn 0.0000 0.7660 0.6428
vn -0.8007 -0.2132 0.5599
vn 0.8175 -0.2047 0.5383
vn 0.4459 0.7091 -0.5462
vn -0.5017 0.6852 -0.5280
vn -0.7691 -0.4917 0.4084
vn 0.7900 -0.4717 0.3917
vn 0.5711 0.4355 -0.6959
vn -0.6145 0.4186 -0.6688
vn -0.0088 0.9510 0.3090
vn 0.0161 0.5877 0.8089
vn 0.0565 0.0000 0.9984
vn 0.0965 -0.5850 0.8052
vn 0.1210 -0.9441 0.3067
vn 0.1210 -0.9441 -0.3067
vn 0.0965 -0.5850 -0.8052
vn 0.0565 0.0000 -0.9984
vn 0.0161 0.5877 -0.8089
vn -0.0088 0.9510 -0.3090
vn -0.0004 0.9511 0.3090
vn -0.0027 0.5878 0.8090
vn -0.0065 -0.0000 1.0000
vn -0.0103 -0.5878 0.8090
vn -0.0126 -0.9510 0.3090
vn -0.0126 -0.9510 -0.3090
vn -0.0103 -0.5878 -0.8090
vn -0.0065 -0.0000 -1.0000
vn -0.0027 0.5878 -0.8090
vn -0.0004 0.9511 -0.3090
vn 0.0022 0.9509 0.3095
vn 0.0002 0.5871 0.8095
vn -0.0044 -0.0000 1.0000
vn -0.0109 -0.5868 0.8097
vn -0.0164 -0.9505 0.3102
vn -0.0171 -0.9510 -0.3088
vn -0.0121 -0.5873 -0.8093
vn -0.0050 -0.0000 -1.0000
vn 0.0002 0.5870 -0.8096
vn 0.0023 0.9509 -0.3096
vn 0.7530 -0.6260 -0.2027
vn 0.7659 -0.3789 -0.5195
vn 0.7678 -0.0002 -0.6407
vn 0.7463 0.3920 -0.5380
vn 0.7178 0.6623 -0.2145
vn 0.7214 0.6590 0.2128
vn 0.7465 0.3918 0.5378
vn 0.7678 -0.0002 0.6407
vn 0.7659 -0.3789 0.5195
vn 0.7530 -0.6260 0.2027
vn -0.8326 -0.5444 -0.1024
vn -0.8689 -0.3269 -0.3718
vn -0.8871 -0.0000 -0.4616
vn -0.8689 0.3269 -0.3718
vn -0.8326 0.5444 -0.1024
vn -0.8251 0.5120 0.2391
vn -0.8469 0.2766 0.4542
vn -0.8585 -0.0000 0.5128
vn -0.8469 -0.2766 0.4542
vn -0.8251 -0.5120 0.2391
# 112 vertex normals

vt 0.7500 0.0225 1.0000
vt 0.8500 0.0216 1.0000
vt 0.8500 0.3333 1.0000
vt 0.7500 0.3333 1.0000
vt 0.9500 0.0210 1.0000
vt 0.9500 0.3333 1.0000
vt 1.0500 0.0210 1.0000
vt 1.0500 0.3333 1.0000
vt 0.0500 0.0210 1.0000
vt 0.1500 0.0216 1.0000
vt 0.1500 0.3333 1.0000
vt 0.0500 0.3333 1.0000
vt 0.2500 0.0225 1.0000
vt 0.2500 0.3333 1.0000
vt 0.3500 0.0236 1.0000
vt 0.3500 0.3333 1.0000
vt 0.4500 0.0243 1.0000
vt 0.4500 0.3333 1.0000
vt 0.5500 0.0243 1.0000
vt 0.5500 0.3333 1.0000
vt 0.6500 0.0236 1.0000
vt 0.6500 0.3333 1.0000
vt 0.8500 0.6667 1.0000
vt 0.7500 0.6667 1.0000
vt 0.9500 0.6667 1.0000
vt 1.0500 0.6667 1.0000
vt 0.1500 0.6667 1.0000
vt 0.0500 0.6667 1.0000
vt 0.2500 0.6667 1.0000
vt 0.3500 0.6631 1.0000
vt 0.3457 0.6667 1.0000
vt 0.4500 0.6667 1.0000
vt 0.3547 0.6667 1.0000
vt 0.5500 0.6667 1.0000
vt 0.6500 0.6667 1.0000
vt 0.8500 0.9865 1.0000
vt 0.7500 0.9865 1.0000
vt 0.9500 0.9865 1.0000
vt 1.0500 0.9865 1.0000
vt 0.1500 0.9866 1.0000
vt 0.0500 0.9865 1.0000
vt 0.2500 0.9867 1.0000
vt 0.3500 0.6717 1.0000
vt 0.3500 0.9865 1.0000
vt 0.4500 0.9865 1.0000
vt 0.5500 0.9865 1.0000
vt 0.6500 0.9865 1.0000
vt 0.2256 0.8777 -0.2500
vt 0.5000 0.9662 -0.2500
vt 0.5000 0.9167 -0.2500
vt 0.2551 0.8371 -0.2500
vt 0.0555 0.6444 -0.2500
vt 0.1037 0.6288 -0.2500
vt 0.0555 0.3556 -0.2500
vt 0.1037 0.3712 -0.2500
vt 0.2256 0.1223 -0.2500
vt 0.2551 0.1629 -0.2500
vt 0.5000 0.0338 -0.2500
vt 0.5000 0.0833 -0.2500
vt 0.7736 0.1235 -0.2500
vt 0.7449 0.1629 -0.2500
vt 0.9422 0.3563 -0.2500
vt 0.8963 0.3712 -0.2500
vt 0.9422 0.6437 -0.2500
vt 0.8963 0.6288 -0.2500
vt 0.7736 0.8765 -0.2500
vt 0.7449 0.8371 -0.2500
vt 0.5000 0.9658 0.2500
vt 0.2262 0.8768 0.2500
vt 0.2551 0.8371 0.2500
vt 0.5000 0.9167 0.2500
vt 0.0570 0.6439 0.2500
vt 0.1037 0.6288 0.2500
vt 0.0570 0.3561 0.2500
vt 0.1037 0.3712 0.2500
vt 0.2262 0.1232 0.2500
vt 0.2551 0.1629 0.2500
vt 0.5000 0.0342 0.2500
vt 0.5000 0.0833 0.2500
vt 0.7738 0.1232 0.2500
vt 0.7449 0.1629 0.2500
vt 0.9430 0.3561 0.2500
vt 0.8963 0.3712 0.2500
vt 0.9430 0.6439 0.2500
vt 0.8963 0.6288 0.2500
vt 0.7738 0.8768 0.2500
vt 0.7449 0.8371 0.2500
vt 0.1961 0.9340 0.2500
vt 0.4899 1.0294 0.2500
vt -0.0006 0.6734 0.2500
vt 0.1803 0.9221 0.2500
vt -0.0067 0.3485 0.2500
vt -0.0068 0.6552 0.2500
vt 0.1789 0.0805 0.2500
vt -0.0021 0.3292 0.2500
vt 0.4889 -0.0288 0.2500
vt 0.1952 0.0666 0.2500
vt 0.8042 0.0664 0.2500
vt 0.5111 -0.0288 0.2500
vt 1.0021 0.3292 0.2500
vt 0.8205 0.0797 0.2500
vt 1.0068 0.6552 0.2500
vt 1.0067 0.3485 0.2500
vt 0.8197 0.9221 0.2500
vt 1.0006 0.6734 0.2500
vt 0.5101 1.0294 0.2500
vt 0.8039 0.9340 0.2500
vt 0.5144 0.9620 -0.2500
vt 0.2189 0.8658 -0.2500
vt 0.2383 0.8794 -0.2500
vt 0.0572 0.6297 -0.2500
vt 0.0655 0.6535 -0.2500
vt 0.0655 0.3465 -0.2500
vt 0.0572 0.3703 -0.2500
vt 0.2383 0.1206 -0.2500
vt 0.2189 0.1342 -0.2500
vt 0.5144 0.0380 -0.2500
vt 0.4912 0.0400 -0.2500
vt 0.7869 0.1361 -0.2500
vt 0.7635 0.1242 -0.2500
vt 0.9444 0.3741 -0.2500
vt 0.9330 0.3466 -0.2500
vt 0.9330 0.6534 -0.2500
vt 0.9444 0.6259 -0.2500
vt 0.7635 0.8758 -0.2500
vt 0.7869 0.8639 -0.2500
vt 0.4912 0.9600 -0.2500
# 127 texture coords

g HollowLog_1
usemtl wire_086086086
s off
f 1/1/1 2/2/1 3/3/1 4/4/1 
f 2/2/2 5/5/2 6/6/2 3/3/2 
f 5/5/3 7/7/3 8/8/3 6/6/3 
f 7/9/4 9/10/4 10/11/4 8/12/4 
f 9/10/5 11/13/5 12/14/5 10/11/5 
f 11/13/6 13/15/6 14/16/6 12/14/6 
f 13/15/7 15/17/7 16/18/7 14/16/7 
f 15/17/8 17/19/8 18/20/8 16/18/8 
f 17/19/9 19/21/9 20/22/9 18/20/9 
f 19/21/10 1/1/10 4/4/10 20/22/10 
f 4/4/11 3/3/11 21/23/11 22/24/11 
f 3/3/12 6/6/12 23/25/12 21/23/12 
f 6/6/13 8/8/13 24/26/13 23/25/13 
f 8/12/14 10/11/14 25/27/14 24/28/14 
f 10/11/15 12/14/15 26/29/15 25/27/15 
f 14/16/16 27/30/16 28/31/16 12/14/16 
f 12/14/17 28/31/17 26/29/17 
f 14/16/18 16/18/18 29/32/18 27/30/18 
f 29/32/19 30/33/19 27/30/19 
f 16/18/20 18/20/20 31/34/20 29/32/20 
f 18/20/21 20/22/21 32/35/21 31/34/21 
f 20/22/22 4/4/22 22/24/22 32/35/22 
f 22/24/23 21/23/23 33/36/23 34/37/23 
f 21/23/24 23/25/24 35/38/24 33/36/24 
f 23/25/25 24/26/25 36/39/25 35/38/25 
f 24/28/26 25/27/26 37/40/26 36/41/26 
f 25/27/27 26/29/27 38/42/27 37/40/27 
f 26/29/28 28/31/28 39/43/28 40/44/28 
f 26/29/29 40/44/29 38/42/29 
f 30/33/30 29/32/30 41/45/30 40/44/30 
f 39/43/31 30/33/31 40/44/31 
f 29/32/20 31/34/20 42/46/20 41/45/20 
f 31/34/32 32/35/32 43/47/32 42/46/32 
f 32/35/33 22/24/33 34/37/33 43/47/33 
f 44/48/34 45/49/34 46/50/34 47/51/34 
f 48/52/35 44/48/35 47/51/35 49/53/35 
f 50/54/36 48/52/36 49/53/36 51/55/36 
f 52/56/37 50/54/37 51/55/37 53/57/37 
f 54/58/38 52/56/38 53/57/38 55/59/38 
f 56/60/39 54/58/39 55/59/39 57/61/39 
f 58/62/40 56/60/40 57/61/40 59/63/40 
f 60/64/41 58/62/41 59/63/41 61/65/41 
f 62/66/42 60/64/42 61/65/42 63/67/42 
f 45/49/43 62/66/43 63/67/43 46/50/43 
f 64/68/44 65/69/44 66/70/44 67/71/44 
f 65/69/45 68/72/45 69/73/45 66/70/45 
f 68/72/46 70/74/46 71/75/46 69/73/46 
f 70/74/47 72/76/47 73/77/47 71/75/47 
f 72/76/48 74/78/48 75/79/48 73/77/48 
f 74/78/49 76/80/49 77/81/49 75/79/49 
f 76/80/50 78/82/50 79/83/50 77/81/50 
f 78/82/51 80/84/51 81/85/51 79/83/51 
f 80/84/52 82/86/52 83/87/52 81/85/52 
f 82/86/53 64/68/53 67/71/53 83/87/53 
f 84/30/54 85/33/54 86/43/54 87/31/54 
f 27/30/55 30/33/55 88/33/55 89/30/55 
f 30/33/56 39/43/56 90/43/56 88/33/56 
f 39/43/57 28/31/57 91/31/57 90/43/57 
f 28/31/58 27/30/58 89/30/58 91/31/58 
f 89/30/59 88/33/59 85/33/59 84/30/59 
f 88/33/60 90/43/60 86/43/60 85/33/60 
f 90/43/61 91/31/61 87/31/61 86/43/61 
f 91/31/62 89/30/62 84/30/62 87/31/62 
f 67/71/63 66/70/63 92/70/63 93/71/63 
f 66/70/64 69/73/64 94/73/64 92/70/64 
f 69/73/65 71/75/65 95/75/65 94/73/65 
f 71/75/66 73/77/66 96/77/66 95/75/66 
f 73/77/67 75/79/67 97/79/67 96/77/67 
f 75/79/68 77/81/68 98/81/68 97/79/68 
f 77/81/69 79/83/69 99/83/69 98/81/69 
f 79/83/70 81/85/70 100/85/70 99/83/70 
f 81/85/71 83/87/71 101/87/71 100/85/71 
f 83/87/72 67/71/72 93/71/72 101/87/72 
f 93/71/73 92/70/73 102/70/73 103/71/73 
f 92/70/74 94/73/74 104/73/74 102/70/74 
f 94/73/75 95/75/75 105/75/75 104/73/75 
f 95/75/76 96/77/76 106/77/76 105/75/76 
f 96/77/77 97/79/77 107/79/77 106/77/77 
f 97/79/78 98/81/78 108/81/78 107/79/78 
f 98/81/79 99/83/79 109/83/79 108/81/79 
f 99/83/80 100/85/80 110/85/80 109/83/80 
f 100/85/81 101/87/81 111/87/81 110/85/81 
f 101/87/82 93/71/82 103/71/82 111/87/82 
f 103/71/83 102/70/83 47/70/83 46/71/83 
f 102/70/84 104/73/84 49/73/84 47/70/84 
f 104/73/85 105/75/85 51/75/85 49/73/85 
f 105/75/86 106/77/86 53/77/86 51/75/86 
f 106/77/87 107/79/87 55/79/87 53/77/87 
f 107/79/88 108/81/88 57/81/88 55/79/88 
f 108/81/89 109/83/89 59/83/89 57/81/89 
f 109/83/90 110/85/90 61/85/90 59/83/90 
f 110/85/91 111/87/91 63/87/91 61/85/91 
f 111/87/92 103/71/92 46/71/92 63/87/92 
f 33/88/93 65/69/93 64/68/93 34/89/93 
f 35/90/94 68/72/94 65/69/94 33/91/94 
f 36/92/95 70/74/95 68/72/95 35/93/95 
f 37/94/96 72/76/96 70/74/96 36/95/96 
f 38/96/97 74/78/97 72/76/97 37/97/97 
f 40/98/98 76/80/98 74/78/98 38/99/98 
f 41/100/99 78/82/99 76/80/99 40/101/99 
f 42/102/100 80/84/100 78/82/100 41/103/100 
f 43/104/101 82/86/101 80/84/101 42/105/101 
f 34/106/102 64/68/102 82/86/102 43/107/102 
f 1/108/103 45/49/103 44/48/103 2/109/103 
f 2/110/104 44/48/104 48/52/104 5/111/104 
f 5/112/105 48/52/105 50/54/105 7/113/105 
f 7/114/106 50/54/106 52/56/106 9/115/106 
f 9/116/107 52/56/107 54/58/107 11/117/107 
f 11/118/108 54/58/108 56/60/108 13/119/108 
f 13/120/109 56/60/109 58/62/109 15/121/109 
f 15/122/110 58/62/110 60/64/110 17/123/110 
f 17/124/111 60/64/111 62/66/111 19/125/111 
f 19/126/112 62/66/112 45/49/112 1/127/112 
# 109 polygons - 4 triangles

