# 3ds Max Wavefront OBJ Exporter v0.97b - (c)2007 guruware
# File Created: 25.04.2016 21:40:12

mtllib Mushroom_Iteration_3.mtl

#
# object Mushroom_Iteration_3
#

v  0.6734 -0.0121 -0.0000
v  0.5448 -0.0121 -0.3958
v  0.4528 1.2254 -0.3290
v  0.5597 1.2254 -0.0000
v  0.2081 -0.0121 -0.6404
v  0.1730 1.2254 -0.5323
v  -0.2081 -0.0121 -0.6404
v  -0.1730 1.2254 -0.5323
v  -0.5448 -0.0121 -0.3958
v  -0.4528 1.2254 -0.3290
v  -0.6734 -0.0121 0.0000
v  -0.5597 1.2254 0.0000
v  -0.5448 -0.0121 0.3958
v  -0.4528 1.2254 0.3290
v  -0.2081 -0.0121 0.6404
v  -0.1730 1.2254 0.5323
v  0.2081 -0.0121 0.6404
v  0.1730 1.2254 0.5323
v  0.5448 -0.0121 0.3958
v  0.4528 1.2254 0.3290
v  0.0000 -0.0121 -0.0000
v  0.6236 1.1264 -0.4531
v  0.7709 1.1264 -0.0000
v  0.2382 1.1264 -0.7331
v  -0.2382 1.1264 -0.7331
v  -0.6236 1.1264 -0.4531
v  -0.7709 1.1264 0.0000
v  -0.6236 1.1264 0.4531
v  -0.2382 1.1264 0.7331
v  0.2382 1.1264 0.7331
v  0.6236 1.1264 0.4531
v  0.9193 1.1264 -0.6679
v  1.1363 1.1264 -0.0000
v  0.3511 1.1264 -1.0807
v  -0.3511 1.1264 -1.0807
v  -0.9193 1.1264 -0.6679
v  -1.1363 1.1264 0.0000
v  -0.9193 1.1264 0.6679
v  -0.3511 1.1264 1.0807
v  0.3511 1.1264 1.0807
v  0.9193 1.1264 0.6679
v  1.2435 1.2942 -0.9035
v  1.5370 1.2942 -0.0000
v  0.4750 1.2942 -1.4618
v  -0.4750 1.2942 -1.4618
v  -1.2435 1.2942 -0.9035
v  -1.5370 1.2942 0.0000
v  -1.2435 1.2942 0.9035
v  -0.4750 1.2942 1.4618
v  0.4750 1.2942 1.4618
v  1.2435 1.2942 0.9035
v  1.2435 1.8391 -0.9035
v  1.5370 1.8391 -0.0000
v  0.4750 1.8391 -1.4618
v  -0.4750 1.8391 -1.4618
v  -1.2435 1.8391 -0.9035
v  -1.5370 1.8391 0.0000
v  -1.2435 1.8391 0.9035
v  -0.4750 1.8391 1.4618
v  0.4750 1.8391 1.4618
v  1.2435 1.8391 0.9035
v  1.0570 2.2727 -0.0000
v  0.8552 2.2727 -0.6213
v  0.3266 2.2727 -1.0053
v  -0.3266 2.2727 -1.0053
v  -0.8552 2.2727 -0.6213
v  -1.0570 2.2727 0.0000
v  -0.8552 2.2727 0.6213
v  -0.3266 2.2727 1.0053
v  0.3266 2.2727 1.0053
v  0.8552 2.2727 0.6213
v  0.6024 2.4551 -0.0000
v  0.4874 2.4551 -0.3541
v  0.1862 2.4551 -0.5729
v  -0.1862 2.4551 -0.5729
v  -0.4874 2.4551 -0.3541
v  -0.6024 2.4551 0.0000
v  -0.4874 2.4551 0.3541
v  -0.1862 2.4551 0.5729
v  0.1862 2.4551 0.5729
v  0.4874 2.4551 0.3541
v  0.0000 2.5690 -0.0000
# 82 vertices

vn 0.9474 0.0871 -0.3078
vn 0.5856 0.0871 -0.8059
vn 0.0000 0.0871 -0.9962
vn -0.5856 0.0871 -0.8059
vn -0.9474 0.0871 -0.3078
vn -0.9474 0.0871 0.3078
vn -0.5856 0.0871 0.8059
vn 0.0000 0.0871 0.9962
vn 0.5856 0.0871 0.8059
vn 0.9474 0.0871 0.3078
vn 0.0000 -1.0000 -0.0000
vn -0.4204 -0.8970 0.1366
vn -0.2598 -0.8970 0.3576
vn 0.0000 -0.8970 0.4421
vn 0.2598 -0.8970 0.3576
vn 0.4204 -0.8970 0.1366
vn 0.4204 -0.8970 -0.1366
vn 0.2598 -0.8970 -0.3576
vn 0.0000 -0.8970 -0.4421
vn -0.2598 -0.8970 -0.3576
vn -0.4204 -0.8970 -0.1366
vn -0.0000 -1.0000 0.0000
vn 0.0000 -1.0000 0.0000
vn -0.0000 -1.0000 -0.0000
vn 0.3833 -0.9152 -0.1246
vn 0.2369 -0.9152 -0.3261
vn 0.0000 -0.9152 -0.4031
vn -0.2369 -0.9152 -0.3261
vn -0.3833 -0.9152 -0.1245
vn -0.3833 -0.9152 -0.1246
vn -0.3833 -0.9152 0.1246
vn -0.3833 -0.9152 0.1245
vn -0.2369 -0.9152 0.3261
vn 0.0000 -0.9152 0.4031
vn 0.2369 -0.9152 0.3261
vn 0.3833 -0.9152 0.1246
vn 0.9511 0.0000 -0.3090
vn 0.5878 0.0000 -0.8090
vn 0.0000 0.0000 -1.0000
vn -0.5878 0.0000 -0.8090
vn -0.9511 0.0000 -0.3090
vn -0.9511 0.0000 0.3090
vn -0.5878 0.0000 0.8090
vn 0.0000 0.0000 1.0000
vn 0.5878 0.0000 0.8090
vn 0.9511 0.0000 0.3090
vn 0.6550 0.7250 -0.2128
vn 0.4048 0.7250 -0.5572
vn 0.0000 0.7250 -0.6887
vn -0.4048 0.7250 -0.5572
vn -0.6550 0.7250 -0.2128
vn -0.6550 0.7250 0.2128
vn -0.4048 0.7250 0.5572
vn 0.0000 0.7250 0.6887
vn 0.4048 0.7250 0.5572
vn 0.6550 0.7250 0.2128
vn 0.3697 0.9214 -0.1201
vn 0.2285 0.9214 -0.3144
vn 0.0000 0.9214 -0.3887
vn -0.2285 0.9214 -0.3144
vn -0.3697 0.9214 -0.1201
vn -0.3697 0.9214 0.1201
vn -0.2285 0.9214 0.3144
vn 0.0000 0.9214 0.3887
vn 0.2285 0.9214 0.3144
vn 0.3697 0.9214 0.1201
vn 0.0000 0.9808 0.1950
vn 0.1146 0.9808 -0.1577
vn 0.0000 0.9808 -0.1950
vn -0.1854 0.9808 0.0603
vn -0.1146 0.9808 0.1577
vn 0.1854 0.9808 0.0603
vn 0.1854 0.9808 -0.0603
vn -0.1146 0.9808 -0.1577
vn -0.1854 0.9808 -0.0603
vn 0.1146 0.9808 0.1577
# 76 vertex normals

vt 0.7500 0.0000 1.0000
vt 0.8500 0.0000 1.0000
vt 0.8500 1.0000 1.0000
vt 0.7500 1.0000 1.0000
vt 0.9500 0.0000 1.0000
vt 0.9500 1.0000 1.0000
vt 1.0500 0.0000 1.0000
vt 1.0500 1.0000 1.0000
vt 0.0500 1.0000 1.0000
vt 0.1500 0.0000 1.0000
vt 0.1500 1.0000 1.0000
vt 0.0500 0.0000 1.0000
vt 0.2500 0.0000 1.0000
vt 0.2500 1.0000 1.0000
vt 0.3500 0.0000 1.0000
vt 0.3500 1.0000 1.0000
vt 0.4500 0.0000 1.0000
vt 0.4500 1.0000 1.0000
vt 0.5500 0.0000 1.0000
vt 0.5500 1.0000 1.0000
vt 0.6500 0.0000 1.0000
vt 0.6500 1.0000 1.0000
vt 0.7939 0.0955 -0.2500
vt 0.5000 0.0000 -0.2500
vt 0.5000 0.5000 -0.2500
vt 0.9755 0.6545 -0.2500
vt 0.9755 0.3455 -0.2500
vt 0.2061 0.0955 -0.2500
vt 0.0245 0.3455 -0.2500
vt 0.0245 0.6545 -0.2500
vt 0.2061 0.9045 -0.2500
vt 0.7939 0.9045 -0.2500
vt 0.5000 1.0000 -0.2500
vt 0.8000 1.0000 1.0000
# 34 texture coords

g Mushroom_Iteration_3
usemtl wire_087225143
s off
f 1/1/1 2/2/1 3/3/1 
f 3/3/1 4/4/1 1/1/1 
f 2/2/2 5/5/2 6/6/2 
f 6/6/2 3/3/2 2/2/2 
f 5/5/3 7/7/3 8/8/3 
f 8/8/3 6/6/3 5/5/3 
f 8/9/4 9/10/4 10/11/4 
f 9/10/4 8/9/4 7/12/4 
f 10/11/5 11/13/5 12/14/5 
f 11/13/5 10/11/5 9/10/5 
f 11/13/6 13/15/6 14/16/6 
f 14/16/6 12/14/6 11/13/6 
f 13/15/7 15/17/7 16/18/7 
f 16/18/7 14/16/7 13/15/7 
f 15/17/8 17/19/8 18/20/8 
f 18/20/8 16/18/8 15/17/8 
f 17/19/9 19/21/9 20/22/9 
f 20/22/9 18/20/9 17/19/9 
f 19/21/10 1/1/10 4/4/10 
f 4/4/10 20/22/10 19/21/10 
f 13/23/11 11/24/11 21/25/11 
f 17/26/11 15/27/11 21/25/11 
f 9/28/11 7/29/11 21/25/11 
f 21/25/11 5/30/11 2/31/11 
f 7/29/11 5/30/11 21/25/11 
f 21/25/11 19/32/11 17/26/11 
f 1/33/11 19/32/11 21/25/11 
f 21/25/11 15/27/11 13/23/11 
f 11/24/11 9/28/11 21/25/11 
f 21/25/11 2/31/11 1/33/11 
f 4/4/12 3/3/12 22/3/12 
f 22/3/12 23/4/12 4/4/12 
f 3/3/13 6/6/13 24/6/13 
f 24/6/13 22/3/13 3/3/13 
f 6/6/14 8/8/14 25/8/14 
f 25/8/14 24/6/14 6/6/14 
f 8/9/15 10/11/15 26/11/15 
f 26/11/15 25/9/15 8/9/15 
f 10/11/16 12/14/16 27/14/16 
f 27/14/16 26/11/16 10/11/16 
f 27/14/17 14/16/17 28/16/17 
f 14/16/17 27/14/17 12/14/17 
f 14/16/18 16/18/18 29/18/18 
f 29/18/18 28/16/18 14/16/18 
f 16/18/19 18/20/19 30/20/19 
f 30/20/19 29/18/19 16/18/19 
f 30/20/20 20/22/20 31/22/20 
f 20/22/20 30/20/20 18/20/20 
f 31/22/21 4/4/21 23/4/21 
f 4/4/21 31/22/21 20/22/21 
f 23/4/22 22/3/22 32/3/22 
f 32/3/22 33/4/22 23/4/22 
f 32/3/22 24/6/22 34/6/22 
f 24/6/22 32/3/22 22/3/22 
f 34/6/23 25/8/23 35/8/23 
f 25/8/23 34/6/23 24/6/23 
f 25/9/23 26/11/23 36/11/23 
f 36/11/23 35/9/23 25/9/23 
f 36/11/23 27/14/23 37/14/23 
f 27/14/23 36/11/23 26/11/23 
f 37/14/11 28/16/11 38/16/11 
f 28/16/11 37/14/11 27/14/11 
f 28/16/11 29/18/11 39/18/11 
f 39/18/11 38/16/11 28/16/11 
f 29/18/11 30/20/11 40/20/11 
f 40/20/11 39/18/11 29/18/11 
f 40/20/24 31/22/24 41/22/24 
f 31/22/24 40/20/24 30/20/24 
f 31/22/24 23/4/24 33/4/24 
f 33/4/24 41/22/24 31/22/24 
f 33/4/25 32/3/25 42/3/25 
f 42/3/25 43/4/25 33/4/25 
f 42/3/26 34/6/26 44/6/26 
f 34/6/26 42/3/26 32/3/26 
f 44/6/27 35/8/27 45/8/27 
f 35/8/27 44/6/27 34/6/27 
f 35/9/28 36/11/28 46/11/28 
f 46/11/28 45/9/28 35/9/28 
f 36/11/29 37/14/29 47/14/29 
f 47/14/30 46/11/30 36/11/30 
f 47/14/31 38/16/31 48/16/31 
f 38/16/32 47/14/32 37/14/32 
f 38/16/33 39/18/33 49/18/33 
f 49/18/33 48/16/33 38/16/33 
f 39/18/34 40/20/34 50/20/34 
f 50/20/34 49/18/34 39/18/34 
f 50/20/35 41/22/35 51/22/35 
f 41/22/35 50/20/35 40/20/35 
f 51/22/36 33/4/36 43/4/36 
f 33/4/36 51/22/36 41/22/36 
f 43/4/37 42/3/37 52/3/37 
f 52/3/37 53/4/37 43/4/37 
f 42/3/38 44/6/38 54/6/38 
f 54/6/38 52/3/38 42/3/38 
f 44/6/39 45/8/39 55/8/39 
f 55/8/39 54/6/39 44/6/39 
f 45/9/40 46/11/40 56/11/40 
f 56/11/40 55/9/40 45/9/40 
f 46/11/41 47/14/41 57/14/41 
f 57/14/41 56/11/41 46/11/41 
f 47/14/42 48/16/42 58/16/42 
f 58/16/42 57/14/42 47/14/42 
f 48/16/43 49/18/43 59/18/43 
f 59/18/43 58/16/43 48/16/43 
f 59/18/44 50/20/44 60/20/44 
f 50/20/44 59/18/44 49/18/44 
f 60/20/45 51/22/45 61/22/45 
f 51/22/45 60/20/45 50/20/45 
f 61/22/46 43/4/46 53/4/46 
f 43/4/46 61/22/46 51/22/46 
f 62/4/47 52/3/47 63/3/47 
f 52/3/47 62/4/47 53/4/47 
f 52/3/48 54/6/48 64/6/48 
f 64/6/48 63/3/48 52/3/48 
f 54/6/49 55/8/49 65/8/49 
f 65/8/49 64/6/49 54/6/49 
f 65/9/50 56/11/50 66/11/50 
f 56/11/50 65/9/50 55/9/50 
f 66/11/51 57/14/51 67/14/51 
f 57/14/51 66/11/51 56/11/51 
f 57/14/52 58/16/52 68/16/52 
f 68/16/52 67/14/52 57/14/52 
f 68/16/53 59/18/53 69/18/53 
f 59/18/53 68/16/53 58/16/53 
f 69/18/54 60/20/54 70/20/54 
f 60/20/54 69/18/54 59/18/54 
f 60/20/55 61/22/55 71/22/55 
f 71/22/55 70/20/55 60/20/55 
f 61/22/56 53/4/56 62/4/56 
f 62/4/56 71/22/56 61/22/56 
f 72/4/57 63/3/57 73/3/57 
f 63/3/57 72/4/57 62/4/57 
f 63/3/58 64/6/58 74/6/58 
f 74/6/58 73/3/58 63/3/58 
f 64/6/59 65/8/59 75/8/59 
f 75/8/59 74/6/59 64/6/59 
f 75/9/60 66/11/60 76/11/60 
f 66/11/60 75/9/60 65/9/60 
f 76/11/61 67/14/61 77/14/61 
f 67/14/61 76/11/61 66/11/61 
f 67/14/62 68/16/62 78/16/62 
f 78/16/62 77/14/62 67/14/62 
f 78/16/63 69/18/63 79/18/63 
f 69/18/63 78/16/63 68/16/63 
f 79/18/64 70/20/64 80/20/64 
f 70/20/64 79/18/64 69/18/64 
f 70/20/65 71/22/65 81/22/65 
f 81/22/65 80/20/65 70/20/65 
f 71/22/66 62/4/66 72/4/66 
f 72/4/66 81/22/66 71/22/66 
f 79/18/67 80/20/67 82/34/67 
f 73/3/68 74/6/68 82/34/68 
f 74/6/69 75/8/69 82/34/69 
f 77/14/70 78/16/70 82/34/70 
f 78/16/71 79/18/71 82/34/71 
f 82/34/72 81/22/72 72/4/72 
f 72/4/73 73/3/73 82/34/73 
f 82/34/74 75/8/74 76/11/74 
f 76/11/75 77/14/75 82/34/75 
f 82/34/76 80/20/76 81/22/76 
# 0 polygons - 160 triangles

