# 3ds Max Wavefront OBJ Exporter v0.97b - (c)2007 guruware
# File Created: 27.04.2016 01:19:45

mtllib Stick_Iteration_1.mtl

#
# object Stick_Iteration_1
#

v  -0.8636 0.0833 5.3618
v  -0.7469 0.2000 -2.9715
v  -0.4469 0.2000 -2.9715
v  -0.4469 0.0625 5.7785
v  -0.1469 0.2000 -2.9715
v  -0.0303 0.0833 5.3618
v  -0.9469 0.0000 -12.9715
v  -0.4469 0.0000 -12.9715
v  0.0531 0.0000 -12.9715
v  -0.8636 0.9167 5.3618
v  -0.4469 0.9375 5.7785
v  -0.4469 0.8000 -2.9715
v  -0.7469 0.8000 -2.9715
v  -0.0303 0.9167 5.3618
v  -0.1469 0.8000 -2.9715
v  -0.4469 1.0000 -12.9715
v  -0.9469 1.0000 -12.9715
v  0.0531 1.0000 -11.9715
v  -0.4469 0.5000 7.0285
v  -0.8844 0.5000 5.7785
v  -0.0094 0.5000 5.7785
v  -0.1469 0.5000 -2.9715
v  0.0531 0.5000 -12.9715
v  -0.0930 -0.5722 -16.3133
v  -0.2786 -0.5518 -16.7449
v  -0.1133 -0.3699 -16.4387
v  -0.4891 -0.4602 -16.6212
v  -0.4491 -0.2457 -16.8347
v  -0.3048 -0.0330 -16.5349
v  -0.4891 0.0824 -16.4844
v  -0.7469 0.5000 -2.9715
v  -0.9469 0.5000 -12.9715
v  1.1219 2.0688 -13.0938
v  1.1219 1.9127 -13.4060
v  0.9658 2.0688 -13.4060
# 35 vertices

vn -0.0203 -0.9997 -0.0150
vn 0.0203 -0.9997 -0.0150
vn 0.0000 -0.9998 0.0200
vn -0.0203 0.9997 -0.0150
vn 0.0203 0.9997 -0.0150
vn 0.0000 0.9998 0.0200
vn -0.0260 0.9994 0.0208
vn -0.6667 -0.6667 0.3333
vn 0.6667 -0.6667 0.3333
vn -0.6667 0.6667 0.3333
vn 0.6667 0.6667 0.3333
vn 0.9997 -0.0203 -0.0150
vn 0.9998 0.0000 0.0200
vn 0.9997 0.0203 -0.0150
vn 0.9994 -0.0260 0.0208
vn 0.9048 -0.1554 -0.3964
vn -0.5898 -0.5117 -0.6248
vn 0.2733 0.7175 -0.6407
vn -0.9998 0.0000 0.0200
vn -0.9997 -0.0203 -0.0150
vn -0.9997 0.0203 -0.0150
vn 0.6667 0.6667 -0.3333
vn 0.8065 -0.5288 0.2644
vn -0.1700 -0.1700 -0.9707
vn -0.5288 0.8065 0.2644
vn 0.7744 0.2705 -0.5719
vn -0.1054 -0.9865 0.1256
vn -0.9915 0.0171 -0.1289
vn -0.9915 0.0070 -0.1300
vn 0.1428 0.9572 -0.2518
vn 0.7692 0.6161 -0.1694
vn 0.9986 0.0198 -0.0500
vn -0.1263 -0.9799 0.1544
# 33 vertex normals

vt 1.0000 0.0000 0.0000
vt 1.0000 0.5000 0.0000
vt 0.5000 0.5000 0.0000
vt 0.5000 0.0000 0.0000
vt 0.0000 0.5000 0.0000
vt 0.0000 0.0000 0.0000
vt 1.0000 1.0000 0.0000
vt 0.5000 1.0000 0.0000
vt 0.0000 1.0000 0.0000
vt 1.0000 0.9500 0.0000
vt 0.9500 1.0000 0.0000
vt 0.9500 1.0866 0.0000
vt 0.5000 0.1340 0.0000
vt 2.0000 1.0000 0.0000
# 14 texture coords

g Stick_Iteration_1
usemtl wire_108008136
s off
f 1/1/1 2/2/1 3/3/1 4/4/1 
f 4/4/2 3/3/2 5/5/2 6/6/2 
f 2/2/3 7/7/3 8/8/3 3/3/3 
f 3/3/3 8/8/3 9/9/3 5/5/3 
f 10/6/4 11/4/4 12/3/4 13/5/4 
f 11/4/5 14/1/5 15/2/5 12/3/5 
f 13/5/6 12/3/6 16/8/6 17/9/6 
f 15/2/7 18/10/7 16/8/7 12/3/7 
f 1/6/8 4/4/8 19/3/8 20/5/8 
f 4/4/9 6/1/9 21/2/9 19/3/9 
f 20/5/10 19/3/10 11/8/10 10/9/10 
f 19/3/11 21/2/11 14/7/11 11/8/11 
f 6/6/12 5/4/12 22/3/12 21/5/12 
f 5/4/13 9/1/13 23/2/13 22/3/13 
f 21/5/14 22/3/14 15/8/14 14/9/14 
f 22/3/15 23/2/15 18/11/15 15/8/15 
f 24/6/16 25/4/16 26/5/16 
f 25/4/17 27/1/17 28/2/17 
f 29/8/18 28/2/18 30/7/18 
f 7/6/19 2/4/19 31/3/19 32/5/19 
f 2/4/20 1/1/20 20/2/20 31/3/20 
f 32/5/19 31/3/19 13/8/19 17/9/19 
f 31/3/21 20/2/21 10/7/21 13/8/21 
f 33/12/22 34/13/22 35/14/22 
f 18/12/23 23/13/23 34/13/23 33/12/23 
f 23/13/24 16/14/24 35/14/24 34/13/24 
f 16/14/25 18/12/25 33/12/25 35/14/25 
f 25/4/26 28/2/26 29/8/26 26/5/26 
f 25/4/27 8/4/27 7/1/27 27/1/27 
f 7/1/28 32/2/28 28/2/28 27/1/28 
f 32/2/29 17/7/29 30/7/29 28/2/29 
f 30/7/30 17/7/30 16/8/30 29/8/30 
f 16/8/31 23/5/31 26/5/31 29/8/31 
f 23/5/32 9/6/32 24/6/32 26/5/32 
f 24/6/33 9/6/33 8/4/33 25/4/33 
# 31 polygons - 4 triangles

