# 3ds Max Wavefront OBJ Exporter v0.97b - (c)2007 guruware
# File Created: 26.04.2016 02:36:19

mtllib TreeStump_1.mtl

#
# object TreeStump_1
#

v  6.6179 0.0000 0.7106
v  4.7303 0.0000 -4.1741
v  4.7303 3.9287 -4.1741
v  7.0220 3.9287 0.8882
v  9.1216 -0.5833 -13.1239
v  7.0381 -0.6237 -14.3582
v  7.9304 -0.9424 -15.8538
v  10.0138 -0.9020 -14.6195
v  0.3566 0.0000 -7.2974
v  -4.9653 0.0000 -4.9653
v  -4.9653 3.9287 -4.9653
v  0.3566 3.9287 -7.2974
v  -7.0220 0.0000 0.0000
v  -7.0220 3.9287 0.7367
v  -15.6958 -0.0727 5.1907
v  -14.7690 -0.0727 7.4283
v  -14.3533 0.7103 6.6855
v  -15.0324 0.7103 5.6112
v  -4.9653 0.0000 4.9653
v  0.0000 0.0000 7.0220
v  0.0000 3.9287 6.5483
v  -4.9653 3.9287 4.2286
v  4.8641 1.6978 14.8905
v  7.4283 -0.0727 14.7690
v  7.1017 1.6978 13.9637
v  5.1907 -0.0727 15.6958
v  14.7690 -0.0727 7.4283
v  15.6958 -0.0727 5.1907
v  15.4090 1.6978 2.1952
v  15.0558 1.6978 4.5912
v  4.5676 8.6677 -4.5676
v  6.4595 7.8574 0.0000
v  -0.0000 7.3063 -6.4595
v  -4.5676 6.8917 -4.5676
v  -6.4595 8.3315 0.0000
v  -4.5676 8.3833 4.5676
v  0.0000 10.7590 6.4595
v  4.9653 3.9287 5.4390
v  3.2630 7.8574 4.5676
v  4.9653 0.0000 4.9653
v  0.0000 6.4890 0.0000
v  3.8631 2.6671 -10.9375
v  7.0354 2.6671 -8.6721
v  3.8631 5.4694 -10.9375
v  7.0354 5.4694 -8.6721
v  -11.1991 0.3199 4.8878
v  -12.3180 0.3199 2.2789
v  -11.1991 2.4570 4.7037
v  -12.3180 2.4570 2.4630
v  6.1968 -0.6048 7.3040
v  2.5953 -0.2009 8.7958
v  6.1968 3.3817 7.5409
v  3.7625 2.6346 11.0836
v  10.7233 -0.0363 -0.0591
v  10.2641 -0.0363 3.4035
v  10.9409 2.8132 -0.0223
v  10.3218 2.8132 3.6332
v  6.8774 0.5965 -13.7312
v  9.0038 0.3824 -12.5916
v  7.7061 1.2427 -15.1560
v  9.8325 1.0286 -14.0164
# 61 vertices

vn 0.9328 0.0000 -0.3605
vn 0.9084 -0.0748 -0.4112
vn -0.0776 -0.9835 0.1633
vn -0.4014 0.0000 -0.9159
vn -0.9215 0.0716 -0.3817
vn -0.9407 0.0000 -0.3393
vn -0.7027 0.6492 0.2911
vn -0.7767 0.3945 0.4910
vn -0.3803 0.1107 0.9182
vn -0.4173 0.1675 0.8932
vn 0.3435 0.4406 0.8294
vn 0.7224 0.6233 0.2992
vn 0.9867 0.0732 0.1454
vn 0.9110 -0.0030 -0.4124
vn 0.9258 0.0478 -0.3750
vn 0.5620 0.2546 -0.7870
vn 0.3977 -0.0623 -0.9154
vn -0.3952 0.1741 -0.9019
vn -0.3903 0.1826 -0.9024
vn -0.9388 0.0633 -0.3386
vn -0.8886 0.1761 -0.4236
vn -0.8610 0.0383 0.5071
vn -0.9097 0.1789 0.3748
vn -0.4232 0.0118 0.9059
vn -0.3654 -0.0381 0.9301
vn 0.2082 0.2969 0.9319
vn 0.5090 0.0112 0.8607
vn 0.8893 0.2182 0.4019
vn 0.7380 0.4343 0.5165
vn 0.0000 -1.0000 -0.0000
vn 0.0387 0.5759 -0.8166
vn 0.0633 0.9427 -0.3276
vn 0.2735 -0.8823 -0.3830
vn -0.7202 0.0000 -0.6938
vn -0.1711 0.9557 0.2396
vn 0.8899 0.0000 0.4561
vn -0.0515 -0.9984 0.0221
vn -0.0512 -0.9985 0.0212
vn 0.0314 0.1842 0.9824
vn -0.0080 0.0859 0.9963
vn -0.2309 0.9661 0.1153
vn -0.2185 0.9673 0.1287
vn -0.3900 0.0791 -0.9174
vn -0.3483 0.1728 -0.9213
vn -0.1749 -0.9716 -0.1592
vn -0.0291 -0.9971 -0.0703
vn 0.8680 0.0594 -0.4931
vn 0.8874 0.0273 -0.4602
vn 0.0522 0.9709 0.2337
vn 0.0377 0.9722 0.2309
vn -0.5415 -0.3815 0.7491
vn -0.7562 0.0783 0.6497
vn -0.0091 -1.0000 -0.0012
vn -0.0077 -1.0000 -0.0030
vn -0.2081 0.0655 -0.9759
vn -0.1840 0.0268 -0.9826
vn 0.2372 0.9655 0.1072
vn 0.2838 0.9577 0.0481
vn 0.2812 -0.0828 0.9561
vn 0.2959 -0.1143 0.9484
vn 0.2722 0.9543 -0.1236
vn 0.2695 0.9448 -0.1862
vn -0.4125 0.9107 0.0219
vn 0.1563 0.9816 0.1094
vn -0.3284 0.9371 0.1186
vn -0.0380 0.9914 0.1254
vn -0.2875 -0.8832 0.3705
vn -0.2658 -0.8892 0.3723
vn -0.7523 -0.3132 -0.5796
vn -0.7392 0.0000 -0.6734
vn 0.3433 0.8012 -0.4900
vn 0.3467 0.8026 -0.4855
vn 0.8754 -0.0671 0.4787
vn 0.8860 0.0000 0.4637
vn 0.0853 -0.9957 -0.0353
vn 0.0839 -0.9958 -0.0360
vn 0.4829 0.4540 0.7488
vn 0.5007 0.0743 0.8624
vn -0.3399 0.9156 0.2149
vn -0.3813 0.9046 0.1904
vn -0.5109 0.7005 -0.4983
vn -0.7710 0.0547 -0.6345
vn 0.0067 -0.9998 0.0161
vn -0.0768 -0.9935 0.0835
vn 0.9801 0.1039 -0.1691
vn 0.9905 0.0082 -0.1374
vn 0.0991 0.9659 0.2393
vn 0.0351 0.9727 0.2292
vn -0.9358 -0.0124 0.3522
vn -0.9414 0.1399 0.3069
vn -0.0051 -1.0000 -0.0021
vn -0.0072 -1.0000 -0.0010
vn 0.4974 -0.7251 -0.4762
vn 0.4400 -0.0220 -0.8977
vn 0.2265 0.9735 0.0334
vn 0.2220 0.9743 0.0376
vn -0.4006 0.7950 0.4556
vn -0.2146 -0.0742 0.9739
vn -0.4561 -0.4535 0.7657
vn -0.4420 -0.4738 0.7617
vn -0.8749 0.0635 -0.4801
vn -0.8316 0.1633 -0.5309
vn 0.4737 0.3029 -0.8270
vn 0.4799 0.3112 -0.8203
vn 0.8822 -0.1402 0.4495
vn 0.8478 -0.0840 0.5236
# 106 vertex normals

vt 0.7500 0.0000 1.0000
vt 0.8750 0.0000 1.0000
vt 0.8750 0.5000 1.0000
vt 0.7500 0.5000 1.0000
vt 1.0000 0.0000 1.0000
vt 1.0000 0.5000 1.0000
vt 0.0000 0.0000 1.0000
vt 0.1250 0.0000 1.0000
vt 0.1250 0.5000 1.0000
vt 0.0000 0.5000 1.0000
vt 0.2500 0.0000 1.0000
vt 0.2500 0.5000 1.0000
vt 0.3750 0.0000 1.0000
vt 0.3750 0.5000 1.0000
vt 0.5000 0.0000 1.0000
vt 0.5000 0.5000 1.0000
vt 0.6250 0.0000 1.0000
vt 0.6250 0.5000 1.0000
vt 0.8750 1.0000 1.0000
vt 0.7500 1.0000 1.0000
vt 1.0000 1.0000 1.0000
vt 0.1250 1.0000 1.0000
vt 0.0000 1.0000 1.0000
vt 0.2500 1.0000 1.0000
vt 0.3750 1.0000 1.0000
vt 0.5000 1.0000 1.0000
vt 0.6250 1.0000 1.0000
vt 0.1464 0.8536 -0.2500
vt 0.8536 0.1464 -0.2500
vt 0.5000 0.0000 -0.2500
vt 0.1464 0.1464 -0.2500
vt 0.0000 0.5000 -0.2500
vt 1.0000 0.5000 -0.2500
vt 0.5000 1.0000 -0.2500
vt 0.8536 0.8536 -0.2500
vt 0.8536 0.1464 0.2500
vt 1.0000 0.5000 0.2500
vt 0.8536 0.8536 0.2500
vt 0.5000 0.5000 0.2500
vt 0.5000 0.0000 0.2500
vt 0.1464 0.1464 0.2500
vt 0.1464 0.8536 0.2500
vt 0.5000 1.0000 0.2500
vt 0.0000 0.5000 0.2500
# 44 texture coords

g TreeStump_1
usemtl wire_225087143
s off
f 1/1/1 2/2/1 3/3/1 
f 3/3/2 4/4/2 1/1/2 
f 5/2/3 6/5/3 7/6/3 
f 7/6/3 8/3/3 5/2/3 
f 9/7/4 10/8/4 11/9/4 
f 11/9/4 12/10/4 9/7/4 
f 10/8/5 13/11/5 14/12/5 
f 14/12/6 11/9/6 10/8/6 
f 15/11/7 16/13/7 17/14/7 
f 17/14/8 18/12/8 15/11/8 
f 19/13/9 20/15/9 21/16/9 
f 21/16/10 22/14/10 19/13/10 
f 23/16/11 24/17/11 25/18/11 
f 24/17/11 23/16/11 26/15/11 
f 27/17/12 28/1/12 29/4/12 
f 29/4/13 30/18/13 27/17/13 
f 4/4/14 3/3/14 31/19/14 
f 31/19/15 32/20/15 4/4/15 
f 3/3/16 12/6/16 33/21/16 
f 33/21/17 31/19/17 3/3/17 
f 12/10/18 11/9/18 34/22/18 
f 34/22/19 33/23/19 12/10/19 
f 11/9/20 14/12/20 35/24/20 
f 35/24/21 34/22/21 11/9/21 
f 14/12/22 22/14/22 36/25/22 
f 36/25/23 35/24/23 14/12/23 
f 22/14/24 21/16/24 37/26/24 
f 37/26/25 36/25/25 22/14/25 
f 21/16/26 38/18/26 39/27/26 
f 39/27/27 37/26/27 21/16/27 
f 38/18/28 4/4/28 32/20/28 
f 32/20/29 39/27/29 38/18/29 
f 2/28/30 19/29/30 13/30/30 
f 2/28/30 10/31/30 9/32/30 
f 20/33/30 2/28/30 1/34/30 
f 13/30/30 10/31/30 2/28/30 
f 20/33/30 19/29/30 2/28/30 
f 40/35/30 20/33/30 1/34/30 
f 36/36/31 37/37/31 39/38/31 
f 39/38/32 41/39/32 36/36/32 
f 2/2/33 42/5/33 43/2/33 
f 42/5/33 2/2/33 9/5/33 
f 42/5/34 12/6/34 44/6/34 
f 12/6/34 42/5/34 9/5/34 
f 3/3/35 45/3/35 44/6/35 
f 44/6/35 12/6/35 3/3/35 
f 3/3/36 43/2/36 45/3/36 
f 43/2/36 3/3/36 2/2/36 
f 19/13/37 46/13/37 47/11/37 
f 47/11/38 13/11/38 19/13/38 
f 19/13/39 22/14/39 48/14/39 
f 48/14/40 46/13/40 19/13/40 
f 14/12/41 49/12/41 48/14/41 
f 48/14/42 22/14/42 14/12/42 
f 13/11/43 47/11/43 49/12/43 
f 49/12/44 14/12/44 13/11/44 
f 40/17/45 50/17/45 51/15/45 
f 51/15/46 20/15/46 40/17/46 
f 40/17/47 38/18/47 52/18/47 
f 52/18/48 50/17/48 40/17/48 
f 38/18/49 21/16/49 53/16/49 
f 53/16/50 52/18/50 38/18/50 
f 20/15/51 51/15/51 53/16/51 
f 53/16/52 21/16/52 20/15/52 
f 1/1/53 54/1/53 55/17/53 
f 55/17/54 40/17/54 1/1/54 
f 1/1/55 4/4/55 56/4/55 
f 56/4/56 54/1/56 1/1/56 
f 4/4/57 38/18/57 57/18/57 
f 57/18/58 56/4/58 4/4/58 
f 40/17/59 55/17/59 57/18/59 
f 57/18/60 38/18/60 40/17/60 
f 35/40/61 36/36/61 41/39/61 
f 41/39/62 34/41/62 35/40/62 
f 31/42/63 41/39/63 39/38/63 
f 39/38/64 32/43/64 31/42/64 
f 41/39/65 31/42/65 33/44/65 
f 33/44/66 34/41/66 41/39/66 
f 58/5/67 59/2/67 43/2/67 
f 43/2/68 42/5/68 58/5/68 
f 60/6/69 58/5/69 42/5/69 
f 42/5/70 44/6/70 60/6/70 
f 61/3/71 60/6/71 44/6/71 
f 44/6/72 45/3/72 61/3/72 
f 43/2/73 59/2/73 61/3/73 
f 61/3/74 45/3/74 43/2/74 
f 16/13/75 15/11/75 47/11/75 
f 47/11/76 46/13/76 16/13/76 
f 17/14/77 16/13/77 46/13/77 
f 46/13/78 48/14/78 17/14/78 
f 49/12/79 18/12/79 17/14/79 
f 17/14/80 48/14/80 49/12/80 
f 47/11/81 15/11/81 18/12/81 
f 18/12/82 49/12/82 47/11/82 
f 24/17/83 26/15/83 51/15/83 
f 51/15/84 50/17/84 24/17/84 
f 25/18/85 24/17/85 50/17/85 
f 50/17/86 52/18/86 25/18/86 
f 23/16/87 25/18/87 52/18/87 
f 52/18/88 53/16/88 23/16/88 
f 51/15/89 26/15/89 23/16/89 
f 23/16/90 53/16/90 51/15/90 
f 54/1/91 28/1/91 27/17/91 
f 27/17/92 55/17/92 54/1/92 
f 29/4/93 28/1/93 54/1/93 
f 54/1/94 56/4/94 29/4/94 
f 30/18/95 29/4/95 56/4/95 
f 56/4/96 57/18/96 30/18/96 
f 55/17/97 27/17/97 30/18/97 
f 30/18/98 57/18/98 55/17/98 
f 59/2/99 58/5/99 6/5/99 
f 6/5/100 5/2/100 59/2/100 
f 58/5/101 60/6/101 7/6/101 
f 7/6/102 6/5/102 58/5/102 
f 60/6/103 61/3/103 8/3/103 
f 8/3/104 7/6/104 60/6/104 
f 61/3/105 59/2/105 5/2/105 
f 5/2/106 8/3/106 61/3/106 
# 0 polygons - 118 triangles

