# 3ds Max Wavefront OBJ Exporter v0.97b - (c)2007 guruware
# File Created: 02.05.2016 16:58:19

mtllib Rock_Iteration_3.mtl

#
# object Sphere001
#

v  38.5673 101.7856 -27.3850
v  24.0463 47.0711 -46.9099
v  24.0540 100.0991 -29.2478
v  -10.9878 105.9215 10.4384
v  33.3189 116.5792 13.7467
v  39.6379 79.7308 22.6518
v  59.0804 47.1273 10.4384
v  52.1415 52.9498 -29.2478
v  -8.5820 0.2262 -58.4957
v  -24.0923 75.3691 -32.8189
v  -52.2688 31.5106 13.0165
v  8.4547 89.6074 42.2644
v  -28.0245 -1.3195 40.4069
v  23.5506 35.7276 52.7028
v  35.1048 0.9819 13.0165
v  26.4521 8.2424 -36.4715
v  -38.5673 1.9045 0.0000
v  3.1018 -0.3765 35.6860
# 18 vertices

vn 0.0847 0.3149 -0.9453
vn -0.0850 0.9723 -0.2177
vn -0.1937 0.9150 -0.3538
vn 0.9814 0.1827 0.0595
vn 0.8730 0.4528 0.1809
vn 0.9544 0.2701 -0.1272
vn 0.4985 0.1710 -0.8499
vn -0.0991 0.3034 -0.9477
vn -0.8730 0.4817 -0.0757
vn -0.6781 0.3976 0.6181
vn -0.5644 0.5962 0.5709
vn 0.3567 -0.1337 0.9246
vn 0.8610 -0.4595 -0.2180
vn 0.5503 -0.1818 -0.8149
vn 0.5531 -0.1866 -0.8119
vn -0.8899 -0.0281 -0.4553
vn -0.7975 -0.1081 -0.5936
vn -0.8581 -0.4788 0.1857
vn 0.1453 -0.4880 0.8607
vn 0.4862 -0.5824 0.6515
vn 0.0137 -0.9890 -0.1475
vn 0.1565 -0.9817 0.1084
vn 0.0174 -0.9963 -0.0840
vn -0.0015 -0.9981 -0.0620
vn -0.3802 0.8058 -0.4540
vn -0.0916 0.3147 -0.9448
vn -0.2337 0.7999 0.5528
vn 0.5733 0.2840 0.7685
vn 0.4730 -0.2072 0.8564
vn -0.5854 0.2189 0.7806
vn 0.9296 -0.0970 0.3556
# 31 vertex normals

vt 0.6517 0.1575 0.0000
vt 0.7052 0.3575 0.0000
vt 0.5918 0.2063 0.0000
vt 0.4868 0.1431 0.0000
vt 0.5870 0.0237 0.0000
vt 0.7221 0.0447 0.0000
vt 0.8651 0.1541 0.0000
vt 0.8077 0.2737 0.0000
vt 0.7629 0.5377 0.0000
vt 0.4983 0.3598 0.0000
vt 0.8313 0.6726 0.0000
vt 0.6933 0.8786 0.0000
vt 0.6725 0.5383 0.0000
vt 0.4925 0.6046 0.0000
vt 0.5323 0.9882 0.0000
vt 0.3165 0.8183 0.0000
vt 0.4181 0.5967 0.0000
vt 0.2010 0.0710 0.0000
vt 0.1203 0.2702 0.0000
vt 0.0754 0.0898 0.0000
vt 0.9103 0.4282 0.0000
vt 0.9781 0.2804 0.0000
vt 0.3546 0.5414 0.0000
vt 0.3352 0.7056 0.0000
vt 0.0924 0.6790 0.0000
vt 0.7042 0.9834 0.0000
vt 0.3150 0.3209 0.0000
vt 0.3264 0.1380 0.0000
vt 0.4667 0.3881 0.0000
vt 0.0165 0.4847 0.0000
vt 0.5137 0.4580 0.0000
# 31 texture coords

g Sphere001
usemtl 01___Default
s off
f 1/1/1 2/2/1 3/3/1 
f 1/1/2 3/3/2 4/4/2 
f 1/1/3 4/4/3 5/5/3 
f 1/1/4 5/5/4 6/6/4 
f 1/1/5 6/6/5 7/7/5 
f 1/1/6 7/7/6 8/8/6 
f 1/1/7 8/8/7 2/2/7 
f 2/2/8 9/9/8 10/10/8 
f 10/11/9 11/12/9 4/13/9 
f 4/13/10 11/12/10 12/14/10 
f 13/15/11 14/16/11 6/17/11 
f 6/18/12 15/19/12 7/20/12 
f 16/21/13 8/8/13 7/7/13 
f 7/7/13 15/22/13 16/21/13 
f 9/9/14 2/2/14 8/8/14 
f 8/8/15 16/21/15 9/9/15 
f 17/23/16 10/24/16 9/25/16 
f 17/26/17 11/12/17 10/11/17 
f 17/26/18 13/15/18 11/12/18 
f 18/27/19 14/28/19 13/29/19 
f 15/19/20 14/28/20 18/27/20 
f 17/23/21 16/30/21 15/19/21 
f 17/23/22 9/25/22 16/30/22 
f 13/29/23 17/23/23 18/27/23 
f 18/27/24 17/23/24 15/19/24 
f 4/4/25 3/3/25 10/10/25 
f 10/10/26 3/3/26 2/2/26 
f 4/13/27 12/14/27 5/31/27 
f 5/31/28 12/14/28 6/17/28 
f 6/17/29 12/14/29 13/15/29 
f 11/12/30 13/15/30 12/14/30 
f 6/18/31 14/28/31 15/19/31 
# 0 polygons - 32 triangles

