# 3ds Max Wavefront OBJ Exporter v0.97b - (c)2007 guruware
# File Created: 02.05.2016 16:58:51

mtllib Rock_Iteration_4.mtl

#
# object Rock_Iteration_4
#

v  38.5673 67.6091 -62.4170
v  24.0463 -0.9020 -61.6646
v  24.0540 65.9225 -64.2799
v  -10.9878 105.9215 -32.3296
v  33.3189 116.5792 -29.0213
v  39.6379 79.7308 22.6518
v  50.5329 51.7695 -2.4994
v  59.0804 -0.7977 10.4384
v  67.7884 -2.5717 -29.2478
v  -8.5820 0.2262 -58.4957
v  -24.0923 41.1926 -67.8510
v  -28.2894 74.7345 -33.3607
v  -27.8520 63.3092 18.2254
v  -7.6587 89.6074 22.5333
v  23.5506 35.7276 52.7028
v  1.8019 64.2172 43.1651
v  35.1048 0.9819 13.0165
v  26.4521 8.2424 -36.4715
v  -33.4568 1.6683 -48.0252
v  -52.2688 31.5106 13.0165
v  -38.5673 1.9045 0.0000
v  -28.0245 -1.3195 40.4069
v  3.1018 -0.3765 35.6860
v  -32.5829 62.6788 35.2092
# 24 vertices

vn 0.1316 -0.0388 -0.9905
vn 0.0248 0.6371 -0.7704
vn -0.0721 0.5567 -0.8276
vn 0.9528 0.2900 0.0903
vn 0.9605 0.2030 0.1904
vn 0.8777 0.4470 0.1726
vn 0.5868 -0.1331 -0.7987
vn -0.1022 -0.2581 -0.9607
vn -0.7453 0.4303 -0.5092
vn -0.7964 0.5890 0.1372
vn -0.8608 0.4712 0.1923
vn 0.2588 0.4785 0.8391
vn 0.9296 -0.0970 0.3556
vn -0.2511 -0.9679 -0.0118
vn -0.0873 -0.9877 -0.1297
vn -0.2939 -0.8891 0.3508
vn 0.0006 -0.9400 0.3411
vn -0.3815 -0.3407 -0.8593
vn -0.9448 0.0625 -0.3217
vn -0.8581 -0.4788 0.1857
vn 0.1453 -0.4880 0.8607
vn 0.4862 -0.5824 0.6515
vn 0.0137 -0.9890 -0.1475
vn 0.1565 -0.9817 0.1084
vn 0.0174 -0.9963 -0.0840
vn -0.0015 -0.9981 -0.0620
vn -0.1953 0.5019 -0.8426
vn 0.0938 -0.0389 -0.9948
vn -0.2442 0.9253 0.2900
vn 0.1682 0.8122 0.5586
vn -0.2095 0.5684 0.7956
vn -0.7635 0.6173 -0.1898
vn -0.9334 0.1938 -0.3020
vn -0.9585 -0.0902 -0.2704
vn -0.2276 0.0627 0.9717
vn -0.2942 0.0939 0.9511
vn 0.1348 0.6547 0.7438
vn -0.0584 -0.9983 -0.0013
vn -0.9187 -0.3830 -0.0959
vn 0.9793 0.1188 -0.1641
vn 0.9696 0.1999 -0.1408
vn -0.5308 0.2764 0.8011
vn 0.0968 -0.1264 0.9873
# 43 vertex normals

vt 0.7622 0.7315 0.0000
vt 0.7315 0.4679 0.0000
vt 0.8251 0.6946 0.0000
vt 0.9292 0.8705 0.0000
vt 0.8009 0.9733 0.0000
vt 0.5938 0.9712 0.0000
vt 0.5972 0.8253 0.0000
vt 0.4448 0.6788 0.0000
vt 0.5028 0.5703 0.0000
vt 0.8495 0.4160 0.0000
vt 0.9527 0.5618 0.0000
vt 0.0801 0.4785 0.0000
vt 0.1505 0.3111 0.0000
vt 0.0433 0.2037 0.0000
vt 0.3445 0.2292 0.0000
vt 0.2474 0.0837 0.0000
vt 0.3004 0.8259 0.0000
vt 0.1657 0.9691 0.0000
vt 0.1729 0.8088 0.0000
vt 0.4466 0.9486 0.0000
vt 0.5727 0.3104 0.0000
vt 0.6111 0.4762 0.0000
vt 0.7670 0.4288 0.0000
vt 0.7683 0.3303 0.0000
vt 0.4678 0.3123 0.0000
vt 0.4706 0.1796 0.0000
vt 0.9222 0.4191 0.0000
vt 0.3493 0.4214 0.0000
vt 0.2188 0.6034 0.0000
vt 0.3891 0.5391 0.0000
vt 0.4900 0.4246 0.0000
vt 0.8433 0.1980 0.0000
vt 0.9790 0.3099 0.0000
vt 0.8641 0.0777 0.0000
vt 0.6955 0.0409 0.0000
vt 0.0227 0.0821 0.0000
vt 0.2348 0.0140 0.0000
vt 0.0574 0.8338 0.0000
vt 0.1078 0.7036 0.0000
vt 0.0452 0.7148 0.0000
vt 0.0743 0.6473 0.0000
vt 0.3124 0.5982 0.0000
vt 0.5047 0.0764 0.0000
vt 0.3824 0.7443 0.0000
# 44 texture coords

g Rock_Iteration_4
usemtl 01___Default
s off
f 1/1/1 2/2/1 3/3/1 
f 1/1/2 3/3/2 4/4/2 
f 1/1/3 4/4/3 5/5/3 
f 5/5/4 6/6/4 7/7/4 
f 7/7/5 6/6/5 8/8/5 
f 1/1/6 8/8/6 9/9/6 
f 1/1/7 9/9/7 2/2/7 
f 2/2/8 10/10/8 11/11/8 
f 11/12/9 12/13/9 4/14/9 
f 12/13/10 13/15/10 14/16/10 
f 14/16/11 4/14/11 12/13/11 
f 15/17/12 6/18/12 16/19/12 
f 6/18/13 15/17/13 17/20/13 
f 18/21/14 9/22/14 8/23/14 
f 8/23/15 17/24/15 18/21/15 
f 2/25/16 9/22/16 18/21/16 
f 18/21/17 10/26/17 2/25/17 
f 19/27/18 11/11/18 10/10/18 
f 20/28/19 11/12/19 19/29/19 
f 21/30/20 22/31/20 20/28/20 
f 23/32/21 15/33/21 22/34/21 
f 17/24/22 15/33/22 23/32/22 
f 21/35/23 18/21/23 17/24/23 
f 21/35/24 10/26/24 18/21/24 
f 22/34/25 21/35/25 23/32/25 
f 23/32/26 21/35/26 17/24/26 
f 4/4/27 3/3/27 11/11/27 
f 11/11/28 3/3/28 2/2/28 
f 4/14/29 14/16/29 5/36/29 
f 5/36/30 14/16/30 6/37/30 
f 14/38/31 24/39/31 16/19/31 
f 24/39/32 14/38/32 13/40/32 
f 11/12/33 20/28/33 12/13/33 
f 12/13/10 20/28/10 13/15/10 
f 13/41/34 22/42/34 24/39/34 
f 24/39/35 22/42/35 16/19/35 
f 16/19/36 22/42/36 15/17/36 
f 16/19/37 6/18/37 14/38/37 
f 10/26/38 21/35/38 19/43/38 
f 19/29/39 21/30/39 20/28/39 
f 8/8/40 1/1/40 7/7/40 
f 7/7/41 1/1/41 5/5/41 
f 13/15/42 20/28/42 22/31/42 
f 17/44/43 8/8/43 6/6/43 
# 0 polygons - 44 triangles

