# 3ds Max Wavefront OBJ Exporter v0.97b - (c)2007 guruware
# File Created: 02.05.2016 16:59:22

mtllib Rock_Iteration_5.mtl

#
# object Rock_Iteration_5
#

v  38.5673 65.0131 -62.4171
v  24.0463 -2.5961 -61.6646
v  -28.1860 41.9970 -74.9891
v  -34.1688 91.5447 -32.3296
v  33.3189 93.0603 -29.0213
v  39.6379 77.1347 22.6518
v  84.1800 49.1734 -2.4994
v  67.9106 26.8713 27.4065
v  68.2009 21.8016 -14.1051
v  67.7884 -5.1678 -29.2478
v  -8.5820 -2.5961 -58.4957
v  -24.0923 38.5965 -67.8510
v  -28.2894 72.1385 -33.3607
v  -27.8520 60.7131 18.2254
v  -36.8708 76.2568 22.5333
v  7.2505 33.1316 35.4036
v  1.8019 61.6211 43.1651
v  36.5989 24.3418 43.6346
v  11.1024 -2.5961 -11.2320
v  72.4556 -3.3938 10.4384
v  35.1048 -2.5961 53.9510
v  -33.4568 -2.5961 -48.0252
v  -41.5887 18.7188 -45.5872
v  -38.5673 -2.5961 0.0000
v  -44.2747 9.7295 13.0165
v  -28.0245 -2.5961 40.4069
v  3.1018 -2.5961 44.5198
v  -39.9870 60.0828 33.2686
# 28 vertices

vn 0.2029 -0.0545 -0.9777
vn -0.0792 0.6449 -0.7601
vn 0.0142 0.7668 -0.6417
vn 0.5912 0.7883 0.1706
vn 0.6311 0.4169 0.6542
vn 0.9045 0.1982 -0.3776
vn 0.5849 -0.1345 -0.7999
vn -0.0935 -0.2538 -0.9627
vn -0.8691 -0.3788 0.3180
vn -0.9403 -0.2940 0.1715
vn -0.8724 -0.4788 -0.0987
vn -0.9513 -0.2816 -0.1253
vn 0.5139 -0.1326 0.8475
vn 0.1464 0.1744 0.9737
vn 0.1482 0.8929 0.4251
vn -0.0300 -0.9984 0.0482
vn -0.0149 -0.9999 0.0055
vn -0.0493 -0.9987 -0.0127
vn 0.0000 -1.0000 0.0000
vn -0.6877 -0.1820 -0.7029
vn -0.3656 -0.3349 -0.8685
vn -0.9389 -0.3293 -0.0999
vn -0.9336 -0.3452 -0.0957
vn -0.7872 -0.5814 0.2054
vn -0.1265 0.2590 0.9575
vn -0.0000 -1.0000 -0.0000
vn -0.6510 -0.7590 0.0118
vn -0.0347 0.9632 0.2667
vn -0.0114 0.9552 0.2958
vn -0.2094 0.5684 0.7956
vn -0.7455 -0.2629 -0.6124
vn -0.9514 0.2989 0.0743
vn -0.9700 0.2431 -0.0072
vn -0.7558 -0.2147 -0.6187
vn -0.2322 0.0662 0.9704
vn 0.3243 -0.1904 0.9266
vn -0.0102 0.8065 0.5912
vn 0.0000 -1.0000 -0.0000
vn -0.0000 -1.0000 0.0000
vn 0.7596 -0.1783 -0.6254
vn 0.7098 0.5904 -0.3843
vn 0.8403 -0.2988 -0.4524
vn 0.9916 0.0516 -0.1189
vn 0.7450 0.2022 0.6358
vn 0.4490 -0.3847 0.8065
vn -0.2724 0.2675 0.9243
vn -0.1501 0.3608 0.9205
vn 0.9032 -0.0986 0.4178
vn -0.8005 0.2001 0.5650
vn -0.8620 0.3069 -0.4034
# 50 vertex normals

vt 0.6862 0.6839 0.0000
vt 0.9173 0.6274 0.0000
vt 0.7288 0.4398 0.0000
vt 0.4815 0.4751 0.0000
vt 0.5492 0.7248 0.0000
vt 0.2549 0.4958 0.0000
vt 0.2739 0.6501 0.0000
vt 0.4742 0.6300 0.0000
vt 0.4352 0.7685 0.0000
vt 0.8326 0.8924 0.0000
vt 0.9378 0.8341 0.0000
vt 0.4840 0.0410 0.0000
vt 0.5465 0.0242 0.0000
vt 0.5633 0.1973 0.0000
vt 0.6970 0.4070 0.0000
vt 0.5203 0.2433 0.0000
vt 0.7016 0.3042 0.0000
vt 0.8964 0.3091 0.0000
vt 0.9165 0.3970 0.0000
vt 0.2281 0.8380 0.0000
vt 0.1467 0.7620 0.0000
vt 0.3431 0.8614 0.0000
vt 0.2182 0.2479 0.0000
vt 0.2406 0.0206 0.0000
vt 0.3877 0.0644 0.0000
vt 0.4845 0.2620 0.0000
vt 0.0597 0.1260 0.0000
vt 0.0216 0.2460 0.0000
vt 0.6401 0.0159 0.0000
vt 0.6578 0.1245 0.0000
vt 0.8433 0.0300 0.0000
vt 0.8642 0.1246 0.0000
vt 0.9697 0.1012 0.0000
vt 0.2565 0.9833 0.0000
vt 0.1311 0.9654 0.0000
vt 0.4028 0.3606 0.0000
vt 0.3412 0.4641 0.0000
vt 0.1827 0.4400 0.0000
vt 0.0164 0.5132 0.0000
vt 0.0136 0.6720 0.0000
vt 0.0013 0.7672 0.0000
vt 0.9739 0.3415 0.0000
vt 0.0211 0.3497 0.0000
vt 0.7087 0.9537 0.0000
vt 0.9247 0.9828 0.0000
vt 0.3850 0.9641 0.0000
vt 0.5125 0.8238 0.0000
# 47 texture coords

g Rock_Iteration_5
usemtl 01___Default
s off
f 1/1/1 2/2/1 3/3/1 
f 1/1/2 3/3/2 4/4/2 
f 1/1/3 4/4/3 5/5/3 
f 5/6/4 6/7/4 7/8/4 
f 7/8/5 6/7/5 8/9/5 
f 1/1/6 9/10/6 10/11/6 
f 1/1/7 10/11/7 2/2/7 
f 2/12/8 11/13/8 12/14/8 
f 4/15/9 3/16/9 12/14/9 
f 12/14/10 13/17/10 4/15/10 
f 13/17/11 14/18/11 15/19/11 
f 15/19/12 4/15/12 13/17/12 
f 16/20/13 6/7/13 17/21/13 
f 8/9/14 6/7/14 16/20/14 
f 16/20/15 18/22/15 8/9/15 
f 19/23/16 10/24/16 20/25/16 
f 20/25/17 21/26/17 19/23/17 
f 2/27/18 10/24/18 19/23/18 
f 19/23/19 11/28/19 2/27/19 
f 22/29/20 23/30/20 12/14/20 
f 12/14/21 11/13/21 22/29/21 
f 22/29/22 24/31/22 25/32/22 
f 25/32/23 23/30/23 22/29/23 
f 24/31/24 26/33/24 25/32/24 
f 27/34/25 16/20/25 26/35/25 
f 27/36/26 19/23/26 21/26/26 
f 26/37/26 24/38/26 19/23/26 
f 27/36/19 26/37/19 19/23/19 
f 12/14/27 3/16/27 2/12/27 
f 4/39/28 15/40/28 5/6/28 
f 5/6/29 15/40/29 6/7/29 
f 15/40/30 28/41/30 17/21/30 
f 28/42/31 15/19/31 14/18/31 
f 25/32/32 14/18/32 13/17/32 
f 13/17/33 23/30/33 25/32/33 
f 14/18/34 26/33/34 28/42/34 
f 28/41/35 26/35/35 17/21/35 
f 17/21/36 26/35/36 16/20/36 
f 17/21/37 6/7/37 15/40/37 
f 22/43/38 19/23/38 24/38/38 
f 19/23/39 22/43/39 11/28/39 
f 9/10/40 1/1/40 7/44/40 
f 7/44/41 1/1/41 5/5/41 
f 7/44/42 20/45/42 9/10/42 
f 9/10/43 20/45/43 10/11/43 
f 18/22/44 21/46/44 20/47/44 
f 20/47/45 8/9/45 18/22/45 
f 16/20/46 27/34/46 21/46/46 
f 21/46/47 18/22/47 16/20/47 
f 8/9/48 20/47/48 7/8/48 
f 14/18/49 25/32/49 26/33/49 
f 13/17/50 12/14/50 23/30/50 
# 0 polygons - 52 triangles

