# 3ds Max Wavefront OBJ Exporter v0.97b - (c)2007 guruware
# File Created: 02.05.2016 16:57:26

mtllib Rock_Iteration_2_1.mtl

#
# object Rock_Iteration_2
#

v  -13.1158 -18.3107 8.2925
v  10.1395 -18.1295 -8.6769
v  10.1395 -18.4890 29.5739
v  13.7313 -9.4844 3.4020
v  -32.9969 -9.3137 -36.7673
v  -23.3639 -17.5601 -8.6769
v  33.1622 -8.4664 -9.4424
v  41.7225 -13.5589 -25.2241
v  55.7292 0.0000 -59.1190
v  55.9697 1.1063 -10.2008
v  -27.7672 53.7048 22.6804
v  7.3745 52.2348 12.3414
v  13.1900 68.4265 -12.4973
v  -35.2581 65.5999 -8.6769
v  27.4280 48.3603 0.9612
v  8.2320 56.6186 -40.6149
v  -22.8591 48.6697 -36.0748
v  31.6249 67.3524 -36.5613
v  -36.0263 0.0000 25.0101
v  3.7893 29.6523 25.8199
v  -45.2194 26.9798 30.0091
v  43.5594 0.9435 17.9719
v  36.9584 25.9629 12.5892
v  54.0036 27.5152 -9.9125
v  55.5371 53.9597 -8.6769
v  48.2958 32.5647 -40.4981
v  48.0028 4.4966 -58.0329
v  9.9596 1.4435 -50.1211
v  5.7959 30.4978 -45.5290
v  -27.1950 26.9798 -32.3301
v  -51.3185 0.0000 -8.6769
v  -51.9969 26.9798 -8.6769
v  10.0413 -7.4462 -31.2978
# 33 vertices

vn 0.0009 -1.0000 -0.0094
vn 0.9252 -0.3794 -0.0036
vn -0.0163 -0.9609 -0.2765
vn 0.8884 0.1588 0.4307
vn 0.3875 -0.9217 0.0189
vn 0.2004 0.7986 0.5675
vn -0.0260 0.9326 0.3600
vn 0.4516 0.6954 0.5590
vn -0.0833 0.9240 -0.3733
vn -0.2796 0.7550 -0.5931
vn -0.3519 0.8836 -0.3090
vn -0.0711 0.0682 0.9951
vn 0.0924 -0.1509 0.9842
vn 0.1829 0.2527 0.9501
vn 0.3794 0.1216 0.9172
vn 0.0711 0.2203 0.9728
vn 0.3621 0.5462 0.7554
vn 0.5110 0.3793 0.7714
vn 0.9132 0.0636 0.4026
vn 0.7438 0.3222 0.5856
vn 0.9972 0.0743 -0.0066
vn 0.7974 -0.0742 0.5989
vn 0.1849 0.5137 0.8378
vn 0.7778 0.4251 -0.4628
vn -0.2115 0.1229 -0.9696
vn 0.0745 0.5278 -0.8461
vn -0.3305 0.1664 -0.9290
vn -0.3783 0.0914 -0.9212
vn 0.1074 0.1741 -0.9788
vn 0.0977 0.1580 -0.9826
vn -0.1912 0.1987 -0.9612
vn -0.8406 -0.0211 -0.5413
vn -0.6769 0.1950 -0.7098
vn -0.8492 -0.3608 0.3855
vn -0.9847 -0.0248 0.1725
vn -0.6612 0.2866 -0.6933
vn -0.8828 0.0971 -0.4595
vn -0.8105 0.5682 0.1420
vn -0.8605 0.3730 0.3470
vn 0.1417 0.6188 0.7727
vn 0.3020 0.9342 0.1897
vn -0.3619 -0.0879 -0.9281
vn 0.2680 0.4620 0.8454
vn -0.0170 -0.9993 -0.0339
vn 0.3544 -0.8071 0.4722
vn 0.0931 -0.9001 -0.4255
vn -0.4888 -0.7214 -0.4906
vn -0.0311 -0.8731 -0.4865
vn -0.0923 -0.9005 -0.4249
vn 0.9804 -0.0479 -0.1909
vn 0.1849 0.5193 -0.8343
vn 0.9482 0.2902 -0.1290
vn 0.3572 -0.8148 0.4567
vn 0.2113 -0.9463 0.2447
vn 0.3864 -0.9075 0.1650
vn 0.4235 -0.8729 -0.2422
vn -0.3744 -0.8356 0.4021
vn -0.5012 -0.8349 0.2275
vn -0.5117 -0.8146 0.2730
vn -0.5308 -0.8449 -0.0660
# 60 vertex normals

vt 0.7568 0.8406 0.0000
vt 0.6600 0.7005 0.0000
vt 0.6333 0.9260 0.0000
vt 0.5732 0.6450 0.0000
vt 0.4406 0.6814 0.0000
vt 0.9568 0.7020 0.0000
vt 0.8358 0.7842 0.0000
vt 0.6176 0.5469 0.0000
vt 0.6883 0.4965 0.0000
vt 0.7782 0.2996 0.0000
vt 0.5556 0.4039 0.0000
vt 0.2127 0.3179 0.0000
vt 0.3382 0.4250 0.0000
vt 0.3040 0.5049 0.0000
vt 0.1464 0.3993 0.0000
vt 0.3815 0.5130 0.0000
vt 0.1811 0.5798 0.0000
vt 0.0711 0.5178 0.0000
vt 0.2753 0.6171 0.0000
vt 0.2455 0.1703 0.0000
vt 0.4549 0.0305 0.0000
vt 0.4775 0.2341 0.0000
vt 0.2304 0.2935 0.0000
vt 0.6459 0.0637 0.0000
vt 0.6463 0.1761 0.0000
vt 0.3499 0.3776 0.0000
vt 0.6318 0.2882 0.0000
vt 0.5278 0.3261 0.0000
vt 0.7518 0.0510 0.0000
vt 0.7633 0.1636 0.0000
vt 0.9002 0.0243 0.0000
vt 0.7797 0.2754 0.0000
vt 0.2562 0.7236 0.0000
vt 0.3858 0.6367 0.0000
vt 0.0217 0.7788 0.0000
vt 0.1967 0.7708 0.0000
vt 0.2151 0.8791 0.0000
vt 0.0211 0.8932 0.0000
vt 0.3969 0.7358 0.0000
vt 0.3702 0.8705 0.0000
vt 0.1033 0.6383 0.0000
vt 0.5071 0.7804 0.0000
vt 0.5003 0.8800 0.0000
vt 0.6229 0.7781 0.0000
vt 0.6107 0.8865 0.0000
vt 0.0153 0.5208 0.0000
vt 0.0327 0.3801 0.0000
vt 0.1297 0.2768 0.0000
vt 0.9029 0.4815 0.0000
vt 0.7924 0.5895 0.0000
vt 0.8328 0.2848 0.0000
vt 0.8665 0.1718 0.0000
vt 0.9270 0.0589 0.0000
vt 0.4360 0.5035 0.0000
vt 0.8411 0.9741 0.0000
vt 0.9782 0.8584 0.0000
# 56 texture coords

g Rock_Iteration_2
usemtl 01___Default
s off
f 1/1/1 2/2/1 3/3/1 
f 2/2/2 4/4/2 3/5/2 
f 5/6/3 2/2/3 6/7/3 
f 7/8/4 8/9/4 9/10/4 
f 9/10/5 10/11/5 7/8/5 
f 11/12/6 12/13/6 13/14/6 
f 13/14/7 14/15/7 11/12/7 
f 12/13/8 15/16/8 13/14/8 
f 14/15/9 13/14/9 16/17/9 
f 16/17/10 17/18/10 14/15/10 
f 13/14/11 18/19/11 16/17/11 
f 19/20/12 3/21/12 20/22/12 
f 20/22/13 21/23/13 19/20/13 
f 3/21/14 22/24/14 23/25/14 
f 23/25/15 20/22/15 3/21/15 
f 21/23/16 20/22/16 11/26/16 
f 20/22/17 23/25/17 15/27/17 
f 15/27/18 12/28/18 20/22/18 
f 22/24/19 10/29/19 24/30/19 
f 24/30/20 23/25/20 22/24/20 
f 10/29/21 9/31/21 24/30/21 
f 23/25/22 24/30/22 25/32/22 
f 25/32/23 15/27/23 23/25/23 
f 26/33/24 18/19/24 25/34/24 
f 27/35/25 28/36/25 29/37/25 
f 29/37/26 26/38/26 27/35/26 
f 28/36/27 5/39/27 30/40/27 
f 30/40/28 29/37/28 28/36/28 
f 26/33/29 29/41/29 16/17/29 
f 16/17/30 18/19/30 26/33/30 
f 29/41/31 17/18/31 16/17/31 
f 5/39/32 31/42/32 32/43/32 
f 32/43/33 30/40/33 5/39/33 
f 31/42/34 19/44/34 21/45/34 
f 21/45/35 32/43/35 31/42/35 
f 30/46/36 32/47/36 14/15/36 
f 14/15/37 17/18/37 30/46/37 
f 32/47/38 21/48/38 11/12/38 
f 11/12/39 14/15/39 32/47/39 
f 15/16/40 25/34/40 13/14/40 
f 13/14/41 25/34/41 18/19/41 
f 29/41/42 30/46/42 17/18/42 
f 20/22/43 12/28/43 11/26/43 
f 6/7/44 2/2/44 1/1/44 
f 2/2/45 7/8/45 4/4/45 
f 5/6/46 28/49/46 33/50/46 
f 27/51/47 9/10/47 8/9/47 
f 28/49/48 27/51/48 8/9/48 
f 33/50/49 28/49/49 8/9/49 
f 25/32/50 24/30/50 26/52/50 
f 9/31/51 27/53/51 26/52/51 
f 26/52/52 24/30/52 9/31/52 
f 7/8/53 2/2/53 8/9/53 
f 8/9/49 2/2/49 33/50/49 
f 22/54/54 4/4/54 7/8/54 
f 7/8/55 10/11/55 22/54/55 
f 4/4/56 22/54/56 3/5/56 
f 3/3/57 19/55/57 1/1/57 
f 1/1/58 19/55/58 31/56/58 
f 31/56/59 6/7/59 1/1/59 
f 6/7/60 31/56/60 5/6/60 
f 33/50/46 2/2/46 5/6/46 
# 0 polygons - 62 triangles

