# 3ds Max Wavefront OBJ Exporter v0.97b - (c)2007 guruware
# File Created: 02.05.2016 16:55:24

mtllib Rock_Iteration_1_2.mtl

#
# object Rock_Iteration_1
#

v  -33.0994 -7.9267 -13.3636
v  -12.9807 -16.9279 -4.0762
v  -13.9180 -19.7838 27.4533
v  -33.0994 -7.9267 27.4533
v  12.7139 -16.1316 -4.0762
v  28.0988 -7.9267 -4.0762
v  27.0111 -7.9267 27.4533
v  14.0164 -17.9761 27.4533
v  -21.3547 -7.9267 -35.6056
v  -12.1743 -13.2176 -35.6056
v  20.8416 -7.9267 -35.6056
v  11.3853 -13.3155 -35.6056
v  -13.1064 19.6813 4.7612
v  -0.2566 20.4038 14.7334
v  -0.2566 25.6353 -4.0762
v  -14.5729 20.0439 -4.0762
v  20.8416 19.3858 27.4533
v  20.8416 19.3858 -4.0762
v  -0.2566 19.3858 -35.6056
v  -11.8420 19.3858 -24.6443
v  23.1947 13.9820 -22.0957
v  -0.2566 -7.9267 46.5834
v  -0.2566 5.7295 40.7337
v  -9.3259 3.6965 30.6120
v  28.1809 5.7295 27.4533
v  12.7137 12.2046 35.5753
v  14.2926 -9.9598 39.8237
v  28.1809 5.7295 -4.0762
v  20.8416 5.7295 -35.6056
v  -0.2566 -9.9598 -47.2059
v  -0.2566 5.7295 -43.3841
v  -21.3547 5.7295 -35.6056
v  -21.3547 5.7295 -10.1515
v  -21.3547 5.7295 27.4533
v  -15.8624 -9.9598 37.4934
v  -0.2566 -24.7478 27.4533
v  -0.2566 -19.3019 -4.0762
v  -0.2566 -15.4139 -35.6056
# 38 vertices

vn -0.3698 -0.9243 -0.0947
vn -0.5258 -0.8506 -0.0000
vn 0.4705 -0.8822 0.0162
vn 0.6102 -0.7890 -0.0714
vn -0.4961 -0.8608 -0.1140
vn -0.3332 -0.9263 -0.1759
vn 0.4678 -0.8772 -0.1077
vn 0.4927 -0.8646 -0.0980
vn -0.2536 0.9319 0.2592
vn -0.3620 0.9270 0.0981
vn 0.0482 0.9988 -0.0000
vn 0.2744 0.9264 0.2577
vn -0.1809 0.9647 -0.1912
vn 0.2755 0.9301 -0.2429
vn 0.3202 0.9293 -0.1842
vn -0.7442 0.2630 0.6140
vn 0.4518 -0.0387 0.8913
vn 0.6697 0.1855 0.7191
vn -0.5968 0.6988 0.3944
vn 0.5371 0.2886 0.7926
vn -0.2529 0.8363 0.4864
vn 0.9994 -0.0060 0.0345
vn 0.9964 -0.0853 -0.0000
vn 0.9745 0.0000 -0.2243
vn 0.9739 -0.0059 -0.2267
vn 0.8809 0.4734 -0.0000
vn 0.9697 0.0930 -0.2257
vn 0.4553 0.2107 -0.8650
vn 0.3459 0.0000 -0.9383
vn -0.4818 0.0000 -0.8763
vn -0.3372 0.2228 -0.9147
vn 0.3051 0.4713 -0.8275
vn 0.4644 0.7175 -0.5192
vn -0.2453 0.7050 -0.6654
vn -0.6351 0.3823 -0.6712
vn -0.6670 0.6565 -0.3522
vn -1.0000 0.0000 -0.0000
vn -0.7582 0.6520 -0.0000
vn -0.9037 0.4282 -0.0000
vn -0.7659 0.6313 -0.1219
vn -0.8608 0.5089 -0.0000
vn -0.9166 0.3634 0.1670
vn -0.4428 0.7322 0.5175
vn -0.4337 0.3730 0.8202
vn -0.1404 0.4983 0.8555
vn -0.2327 0.8470 0.4780
vn 0.4343 0.3547 0.8280
vn 0.2743 0.1998 0.9406
vn 0.0059 0.8509 0.5253
vn -0.4687 0.5661 0.6781
vn -0.3627 0.9286 -0.0779
vn 0.5474 -0.7078 0.4465
vn -0.4246 -0.6869 0.5899
vn -0.3983 -0.6910 -0.6032
vn 0.3964 -0.6957 -0.5991
vn 0.1979 -0.7361 0.6473
vn 0.3715 -0.7829 0.4991
vn 0.4235 -0.8927 -0.1542
vn 0.2369 -0.9693 -0.0665
vn 0.2357 -0.9645 -0.1189
vn 0.1766 -0.9797 -0.0949
vn 0.1610 -0.8932 -0.4199
vn -0.1645 -0.8926 -0.4197
vn -0.1821 -0.9759 -0.1203
vn -0.1799 -0.9764 -0.1195
vn -0.3371 -0.9277 -0.1602
vn -0.1826 -0.9787 -0.0941
vn -0.2598 -0.7149 0.6492
vn -0.2757 -0.7219 0.6347
vn 0.8805 0.4732 -0.0269
# 70 vertex normals

vt 0.0606 0.7496 0.0000
vt 0.2149 0.6937 0.0000
vt 0.3563 0.8546 0.0000
vt 0.2580 0.9634 0.0000
vt 0.3534 0.5724 0.0000
vt 0.4403 0.4891 0.0000
vt 0.5791 0.6659 0.0000
vt 0.4918 0.7361 0.0000
vt 0.0243 0.5716 0.0000
vt 0.0825 0.5264 0.0000
vt 0.2477 0.3646 0.0000
vt 0.2033 0.4176 0.0000
vt 0.7321 0.2898 0.0000
vt 0.7496 0.3964 0.0000
vt 0.6267 0.2977 0.0000
vt 0.6823 0.2212 0.0000
vt 0.6741 0.5352 0.0000
vt 0.5382 0.4087 0.0000
vt 0.4683 0.1870 0.0000
vt 0.5687 0.1582 0.0000
vt 0.4446 0.3501 0.0000
vt 0.9699 0.4611 0.0000
vt 0.9042 0.4918 0.0000
vt 0.8857 0.3776 0.0000
vt 0.7042 0.6414 0.0000
vt 0.6733 0.6049 0.0000
vt 0.7978 0.5505 0.0000
vt 0.8222 0.6141 0.0000
vt 0.6375 0.6259 0.0000
vt 0.4774 0.5006 0.0000
vt 0.5035 0.4628 0.0000
vt 0.3447 0.3444 0.0000
vt 0.3589 0.3106 0.0000
vt 0.3297 0.2883 0.0000
vt 0.3745 0.1454 0.0000
vt 0.4068 0.1458 0.0000
vt 0.3973 0.1129 0.0000
vt 0.5152 0.0232 0.0000
vt 0.5427 0.0510 0.0000
vt 0.5714 0.0174 0.0000
vt 0.7327 0.0584 0.0000
vt 0.6895 0.1450 0.0000
vt 0.9387 0.2143 0.0000
vt 0.8754 0.2786 0.0000
vt 0.9753 0.3456 0.0000
vt 0.9166 0.5633 0.0000
vt 0.5692 0.7959 0.0000
vt 0.3987 0.9382 0.0000
vt 0.0860 0.4119 0.0000
vt 0.5319 0.9078 0.0000
vt 0.4145 0.7935 0.0000
vt 0.2816 0.6332 0.0000
vt 0.1453 0.4714 0.0000
# 53 texture coords

g Rock_Iteration_1
usemtl 01___Default
s off
f 1/1/1 2/2/1 3/3/1 
f 3/3/2 4/4/2 1/1/2 
f 5/5/3 6/6/3 7/7/3 
f 7/7/4 8/8/4 5/5/4 
f 9/9/5 10/10/5 2/2/5 
f 2/2/6 1/1/6 9/9/6 
f 11/11/7 6/6/7 5/5/7 
f 5/5/8 12/12/8 11/11/8 
f 13/13/9 14/14/9 15/15/9 
f 15/15/10 16/16/10 13/13/10 
f 14/14/11 17/17/11 18/18/11 
f 18/18/12 15/15/12 14/14/12 
f 15/15/13 19/19/13 20/20/13 
f 15/15/14 18/18/14 21/21/14 
f 21/21/15 19/19/15 15/15/15 
f 22/22/16 23/23/16 24/24/16 
f 7/25/17 25/26/17 26/27/17 
f 26/27/18 27/28/18 7/25/18 
f 24/24/19 23/23/19 14/14/19 
f 26/27/20 25/26/20 17/17/20 
f 17/17/21 14/14/21 26/27/21 
f 7/29/22 6/30/22 28/31/22 
f 28/31/23 25/26/23 7/29/23 
f 6/30/24 11/32/24 29/33/24 
f 29/33/25 28/31/25 6/30/25 
f 25/26/26 28/31/26 18/18/26 
f 18/18/26 17/17/26 25/26/26 
f 28/31/27 29/33/27 21/21/27 
f 11/34/28 30/35/28 31/36/28 
f 31/36/29 29/33/29 11/34/29 
f 30/37/30 9/38/30 32/39/30 
f 32/39/31 31/36/31 30/37/31 
f 29/33/32 31/36/32 19/19/32 
f 19/19/33 21/21/33 29/33/33 
f 31/36/34 32/39/34 20/20/34 
f 20/20/35 19/19/35 31/36/35 
f 9/40/36 1/41/36 33/42/36 
f 33/42/37 32/39/37 9/40/37 
f 33/42/38 4/43/38 34/44/38 
f 4/43/38 33/42/38 1/41/38 
f 32/39/39 33/42/39 16/16/39 
f 16/16/40 20/20/40 32/39/40 
f 33/42/41 34/44/41 13/13/41 
f 13/13/42 16/16/42 33/42/42 
f 14/14/43 13/13/43 24/24/43 
f 34/44/44 4/43/44 35/45/44 
f 35/45/45 24/24/45 34/44/45 
f 14/14/46 23/23/46 26/27/46 
f 23/23/47 22/46/47 27/28/47 
f 27/28/48 26/27/48 23/23/48 
f 13/13/49 34/44/49 24/24/49 
f 24/24/50 35/45/50 22/22/50 
f 20/20/51 16/16/51 15/15/51 
f 7/7/52 27/47/52 8/8/52 
f 35/48/53 4/4/53 3/3/53 
f 9/9/54 30/49/54 10/10/54 
f 30/49/55 11/11/55 12/12/55 
f 27/47/56 22/50/56 36/51/56 
f 36/51/57 8/8/57 27/47/57 
f 8/8/58 36/51/58 37/52/58 
f 37/52/59 5/5/59 8/8/59 
f 5/5/60 37/52/60 38/53/60 
f 38/53/61 12/12/61 5/5/61 
f 12/12/62 38/53/62 30/49/62 
f 30/49/63 38/53/63 10/10/63 
f 38/53/64 37/52/64 2/2/64 
f 2/2/65 10/10/65 38/53/65 
f 37/52/66 36/51/66 3/3/66 
f 3/3/67 2/2/67 37/52/67 
f 35/48/68 3/3/68 36/51/68 
f 36/51/69 22/50/69 35/48/69 
f 21/21/70 18/18/70 28/31/70 
# 0 polygons - 72 triangles

