# 3ds Max Wavefront OBJ Exporter v0.97b - (c)2007 guruware
# File Created: 02.05.2016 17:05:15

mtllib SpiderWeb_Iteration_2.mtl

#
# object SpiderWeb_Iteration_2
#

v  -18.8554 0.2598 0.0367
v  -18.3091 0.2598 0.0367
v  -18.3091 -0.2598 0.0367
v  -18.8554 -0.2598 0.0367
v  -16.2773 12.3921 0.5124
v  -15.8354 12.0710 0.5124
v  -16.1408 11.6507 0.5124
v  -16.5827 11.9718 0.5124
v  -5.5796 18.0128 0.0367
v  -5.4108 17.4933 0.0367
v  -5.9049 17.3327 0.0367
v  -6.0737 17.8523 0.0367
v  -14.1887 0.2598 0.0367
v  -13.6425 0.2598 0.0367
v  -13.6425 -0.2598 0.0367
v  -14.1887 -0.2598 0.0367
v  -12.4295 9.4772 0.5124
v  -11.9875 9.1561 0.5124
v  -12.2929 8.7358 0.5124
v  -12.7349 9.0569 0.5124
v  -4.1375 13.5746 0.0367
v  -3.9687 13.0550 0.0367
v  -4.4628 12.8945 0.0367
v  -4.6316 13.4140 0.0367
v  -9.5221 0.2598 0.0367
v  -8.9758 0.2598 0.0367
v  -8.9758 -0.2598 0.0367
v  -9.5221 -0.2598 0.0367
v  -8.7569 6.7125 0.5124
v  -8.3149 6.3914 0.5124
v  -8.6203 5.9711 0.5124
v  -9.0623 6.2922 0.5124
v  -2.6954 9.1363 0.0367
v  -2.5266 8.6168 0.0367
v  -3.0207 8.4562 0.0367
v  -3.1895 8.9758 0.0367
v  -4.8554 0.2598 0.0367
v  -4.3091 0.2598 0.0367
v  -4.3091 -0.2598 0.0367
v  -4.8554 -0.2598 0.0367
v  -5.0843 3.8727 0.5124
v  -4.6424 3.5516 0.5124
v  -4.9477 3.1313 0.5124
v  -5.3897 3.4524 0.5124
v  -1.2533 4.6980 0.0367
v  -1.0845 4.1785 0.0367
v  -1.5786 4.0179 0.0367
v  -1.7475 4.5375 0.0367
v  -16.5304 5.5804 0.2746
v  -17.0245 5.7410 0.2746
v  -24.7948 -0.2808 0.0568
v  -23.1536 0.2383 0.0568
v  -10.3961 14.2936 0.2746
v  -10.7014 14.7140 0.2746
v  -12.2731 4.1230 0.2746
v  -12.7672 4.2835 0.2746
v  -7.7511 10.6171 0.2746
v  -8.0565 11.0374 0.2746
v  -8.1035 2.7406 0.2746
v  -8.5976 2.9012 0.2746
v  -5.1938 7.0156 0.2746
v  -5.4991 7.4359 0.2746
v  -3.9339 1.3207 0.2746
v  -4.4280 1.4813 0.2746
v  -2.6364 3.3766 0.2746
v  -2.9418 3.7969 0.2746
v  -0.3529 0.4858 -0.0134
v  -0.5711 0.1856 -0.0134
v  -0.5711 -0.1856 -0.0134
v  0.0000 0.6005 -0.0134
v  -0.2824 0.3886 -0.0116
v  -0.4569 0.1484 -0.0118
v  -0.4569 -0.1484 -0.0118
v  0.0000 0.4804 -0.0118
v  -7.8273 23.9763 0.0628
v  -7.7817 24.9664 0.0628
# 76 vertices

vn -0.0012 0.0126 -0.9999
vn 0.0002 0.0162 -0.9999
vn 0.0000 0.0000 -1.0000
vn -0.0017 0.0000 -1.0000
vn -0.0107 -0.0147 -0.9998
vn -0.0111 -0.0149 -0.9998
vn 0.0104 0.0146 -0.9998
vn 0.0103 0.0142 -0.9998
vn -0.0155 -0.0053 -0.9999
vn -0.0190 -0.0062 -0.9998
vn 0.0000 0.0166 -0.9999
vn 0.0004 0.0222 -0.9998
vn -0.0086 -0.0118 -0.9999
vn -0.0152 -0.0202 -0.9997
vn 0.0144 0.0204 -0.9997
vn 0.0084 0.0116 -0.9999
vn -0.0208 -0.0073 -0.9998
vn -0.0164 -0.0053 -0.9999
vn 0.0011 0.0263 -0.9997
vn 0.0000 0.0361 -0.9993
vn -0.0118 -0.0162 -0.9998
vn -0.0241 -0.0319 -0.9992
vn 0.0232 0.0330 -0.9992
vn 0.0116 0.0160 -0.9998
vn -0.0332 -0.0108 -0.9994
vn -0.0254 -0.0094 -0.9996
vn 0.0048 0.0582 -0.9983
vn -0.0042 0.0833 -0.9965
vn -0.0067 0.0000 -1.0000
vn -0.0183 -0.0252 -0.9995
vn -0.0746 -0.0527 -0.9958
vn 0.0377 0.0999 -0.9943
vn 0.0184 0.0253 -0.9995
vn -0.0021 0.0063 -1.0000
vn -0.0689 -0.0179 -0.9975
vn -0.0512 -0.0210 -0.9985
vn 0.0128 0.0394 -0.9991
vn 0.0127 0.0393 -0.9991
vn -0.0043 0.0107 -0.9999
vn -0.0047 0.0150 -0.9999
vn -0.0347 -0.0252 -0.9991
vn -0.0345 -0.0250 -0.9991
vn 0.0174 0.0535 -0.9984
vn 0.0172 0.0533 -0.9984
vn -0.0466 -0.0339 -0.9983
vn -0.0463 -0.0335 -0.9984
vn 0.0240 0.0803 -0.9965
vn 0.0267 0.0788 -0.9965
vn -0.0694 -0.0479 -0.9964
vn -0.0671 -0.0502 -0.9965
vn 0.0454 0.1751 -0.9835
vn 0.0563 0.1648 -0.9847
vn -0.1390 -0.0902 -0.9862
vn -0.1287 -0.0971 -0.9869
vn -0.0419 0.0354 -0.9985
vn -0.0471 0.0293 -0.9985
vn -0.0134 0.0000 -0.9999
vn -0.0041 0.0128 -0.9999
vn 0.0123 -0.0084 -0.9999
vn 0.0138 0.0000 -0.9999
vn 0.0042 -0.0143 -0.9999
vn -0.0052 0.0024 -1.0000
# 62 vertex normals

vt 0.2547 0.0410 0.0000
vt 0.2754 0.0410 0.0000
vt 0.2754 0.0212 0.0000
vt 0.2547 0.0212 0.0000
vt 0.3526 0.5019 0.0000
vt 0.3694 0.4897 0.0000
vt 0.3578 0.4737 0.0000
vt 0.3410 0.4859 0.0000
vt 0.7590 0.7154 0.0000
vt 0.7654 0.6957 0.0000
vt 0.7467 0.6896 0.0000
vt 0.7402 0.7093 0.0000
vt 0.4319 0.0410 0.0000
vt 0.4527 0.0410 0.0000
vt 0.4527 0.0212 0.0000
vt 0.4319 0.0212 0.0000
vt 0.4988 0.3911 0.0000
vt 0.5156 0.3789 0.0000
vt 0.5040 0.3630 0.0000
vt 0.4872 0.3752 0.0000
vt 0.8138 0.5468 0.0000
vt 0.8202 0.5271 0.0000
vt 0.8014 0.5210 0.0000
vt 0.7950 0.5407 0.0000
vt 0.6092 0.0410 0.0000
vt 0.6300 0.0410 0.0000
vt 0.6300 0.0212 0.0000
vt 0.6092 0.0212 0.0000
vt 0.6383 0.2861 0.0000
vt 0.6551 0.2739 0.0000
vt 0.6435 0.2579 0.0000
vt 0.6267 0.2701 0.0000
vt 0.8686 0.3782 0.0000
vt 0.8750 0.3584 0.0000
vt 0.8562 0.3523 0.0000
vt 0.8498 0.3721 0.0000
vt 0.7865 0.0410 0.0000
vt 0.8073 0.0410 0.0000
vt 0.8073 0.0212 0.0000
vt 0.7865 0.0212 0.0000
vt 0.7778 0.1782 0.0000
vt 0.7946 0.1660 0.0000
vt 0.7830 0.1501 0.0000
vt 0.7662 0.1623 0.0000
vt 0.9234 0.2096 0.0000
vt 0.9298 0.1898 0.0000
vt 0.9110 0.1837 0.0000
vt 0.9046 0.2035 0.0000
vt 0.3430 0.2431 0.0000
vt 0.3242 0.2492 0.0000
vt 0.0290 0.0204 0.0000
vt 0.0914 0.0401 0.0000
vt 0.5760 0.5741 0.0000
vt 0.5644 0.5901 0.0000
vt 0.5047 0.1877 0.0000
vt 0.4860 0.1938 0.0000
vt 0.6765 0.4344 0.0000
vt 0.6649 0.4504 0.0000
vt 0.6631 0.1352 0.0000
vt 0.6444 0.1413 0.0000
vt 0.7737 0.2976 0.0000
vt 0.7621 0.3136 0.0000
vt 0.8215 0.0813 0.0000
vt 0.8028 0.0874 0.0000
vt 0.8708 0.1594 0.0000
vt 0.8592 0.1753 0.0000
vt 0.9576 0.0495 0.0000
vt 0.9493 0.0381 0.0000
vt 0.9493 0.0240 0.0000
vt 0.9710 0.0539 0.0000
vt 0.9603 0.0459 0.0000
vt 0.9536 0.0367 0.0000
vt 0.9536 0.0255 0.0000
vt 0.9710 0.0493 0.0000
vt 0.6736 0.9420 0.0000
vt 0.6754 0.9796 0.0000
# 76 texture coords

g SpiderWeb_Iteration_2
usemtl 01___Default
s 1
f 1/1/1 2/2/2 3/3/3 4/4/4 
f 5/5/5 6/6/6 7/7/7 8/8/8 
f 9/9/3 10/10/3 11/11/9 12/12/10 
f 13/13/11 14/14/12 15/15/3 16/16/3 
f 17/17/13 18/18/14 19/19/15 20/20/16 
f 21/21/3 22/22/3 23/23/17 24/24/18 
f 25/25/19 26/26/20 27/27/3 28/28/3 
f 29/29/21 30/30/22 31/31/23 32/32/24 
f 33/33/3 34/34/3 35/35/25 36/36/26 
f 37/37/27 38/38/28 39/39/29 40/40/3 
f 41/41/30 42/42/31 43/43/32 44/44/33 
f 45/45/3 46/46/34 47/47/35 48/48/36 
f 7/7/7 49/49/37 50/50/38 8/8/8 
f 1/1/1 4/4/4 51/51/39 52/52/40 
f 11/11/9 53/53/41 54/54/42 12/12/10 
f 7/7/7 6/6/6 17/17/13 20/20/16 
f 19/19/15 55/55/43 56/56/44 20/20/16 
f 13/13/11 16/16/3 3/3/3 2/2/2 
f 11/11/9 10/10/3 21/21/3 24/24/18 
f 23/23/17 57/57/45 58/58/46 24/24/18 
f 19/19/15 18/18/14 29/29/21 32/32/24 
f 31/31/23 59/59/47 60/60/48 32/32/24 
f 25/25/19 28/28/3 15/15/3 14/14/12 
f 23/23/17 22/22/3 33/33/3 36/36/26 
f 36/36/26 35/35/25 61/61/49 62/62/50 
f 31/31/23 30/30/22 41/41/30 44/44/33 
f 43/43/32 63/63/51 64/64/52 44/44/33 
f 37/37/27 40/40/3 27/27/3 26/26/20 
f 35/35/25 34/34/3 45/45/3 48/48/36 
f 48/48/36 47/47/35 65/65/53 66/66/54 
f 43/43/32 42/42/31 67/67/55 68/68/56 
f 68/68/56 69/69/57 39/39/29 38/38/28 
f 47/47/35 46/46/34 70/70/58 67/67/55 
s off
f 68/68/59 67/67/59 71/71/59 72/72/59 
f 69/69/60 68/68/60 72/72/60 73/73/60 
f 67/67/61 70/70/61 74/74/61 71/71/61 
f 9/9/62 12/12/62 75/75/62 76/76/62 
s 1
f 6/6/6 5/5/5 54/54/42 53/53/41 
f 18/18/14 17/17/13 58/58/46 57/57/45 
f 30/30/22 29/29/21 62/62/50 61/61/49 
f 42/42/31 41/41/30 66/66/54 65/65/53 
f 2/2/2 1/1/1 50/50/38 49/49/37 
f 14/14/12 13/13/11 56/56/44 55/55/43 
f 59/59/47 26/26/20 25/25/19 60/60/48 
f 63/63/51 38/38/28 37/37/27 64/64/52 
# 45 polygons

