# 3ds Max Wavefront OBJ Exporter v0.97b - (c)2007 guruware
# File Created: 30.04.2016 15:55:24

mtllib Flower_Iteration_1.mtl

#
# object Flower_Iteration_1
#

v  -0.0359 3.3164 -0.1665
v  -0.2802 3.3381 -0.1989
v  -0.2737 3.5746 -0.1122
v  -0.0291 3.6597 -0.0134
v  0.2059 3.3263 -0.1992
v  0.2106 3.5636 -0.1123
v  -0.2869 3.1072 -0.2874
v  -0.6555 3.1331 -0.3176
v  -0.5284 3.3623 -0.2349
v  -0.0416 3.1028 -0.2871
v  0.2037 3.0982 -0.2864
v  0.5731 3.1066 -0.3173
v  0.4558 3.3404 -0.2350
v  -0.2883 2.9143 -0.4372
v  -0.5373 2.9403 -0.4725
v  -0.0473 2.8890 -0.4073
v  0.1978 2.9028 -0.4381
v  0.4469 2.9184 -0.4728
v  -0.0533 2.5801 -0.6216
v  -0.2921 2.7170 -0.5952
v  0.1922 2.7061 -0.5955
v  -0.2817 3.5575 -0.0660
v  -0.2869 3.3196 -0.1529
v  -0.0373 3.2960 -0.1209
v  -0.0297 3.6450 0.0319
v  0.2130 3.3086 -0.1529
v  0.2182 3.5465 -0.0660
v  -0.5364 3.3452 -0.1886
v  -0.6653 3.1107 -0.2768
v  -0.2921 3.0837 -0.2436
v  -0.0387 3.2339 -0.1559
v  -0.2207 3.0822 -0.2436
v  0.2078 3.0728 -0.2436
v  0.1365 3.0744 -0.2436
v  0.5819 3.0833 -0.2768
v  0.4634 3.3232 -0.1886
v  -0.5459 2.9096 -0.4340
v  -0.2964 2.8840 -0.3983
v  -0.0455 2.9227 -0.3312
v  0.2034 2.8731 -0.3983
v  -0.0469 2.8605 -0.3662
v  0.4538 2.8877 -0.4340
v  -0.3008 2.6864 -0.5567
v  -0.0537 2.5490 -0.5856
v  0.1991 2.6754 -0.5567
v  -0.2937 3.5964 -0.0738
v  -0.0286 3.6886 0.0312
v  -0.2999 3.3431 -0.1665
v  0.2317 3.5846 -0.0739
v  0.2264 3.3309 -0.1667
v  -0.5657 3.3697 -0.2048
v  -0.7023 3.1222 -0.2961
v  0.4935 3.3463 -0.2049
v  0.6194 3.0934 -0.2959
v  -0.3094 2.8843 -0.4247
v  -0.5755 2.9118 -0.4627
v  0.4837 2.8885 -0.4628
v  0.2170 2.8724 -0.4252
v  -0.0543 2.5271 -0.6232
v  -0.3137 2.6735 -0.5936
v  0.2117 2.6618 -0.5938
v  -0.1271 3.0054 -0.1104
v  -0.0422 3.0531 -0.0439
v  -0.0453 2.9543 -0.1783
v  0.0396 3.0020 -0.1119
v  -0.1079 1.9959 0.0114
v  -0.0425 2.0073 0.0733
v  -0.0450 1.9827 -0.0526
v  0.0204 1.9941 0.0092
v  -0.1079 0.9984 0.0498
v  -0.0425 0.9973 0.1127
v  -0.0450 0.9982 -0.0156
v  0.0204 0.9971 0.0474
v  -0.0921 0.0010 0.0018
v  0.0018 -0.0006 0.0921
v  -0.0018 0.0006 -0.0921
v  0.0921 -0.0010 -0.0018
# 77 vertices

vn 0.0358 0.4243 -0.9048
vn 0.1349 0.3694 -0.9194
vn 0.1970 0.3721 -0.9070
vn 0.0189 0.3921 -0.9197
vn -0.1424 0.3526 -0.9249
vn -0.2403 0.3378 -0.9100
vn 0.0844 0.4646 -0.8815
vn 0.1210 0.4761 -0.8710
vn 0.1251 0.3122 -0.9417
vn 0.0108 0.4906 -0.8713
vn -0.0629 0.5136 -0.8557
vn -0.0996 0.4990 -0.8608
vn -0.1514 0.2599 -0.9537
vn 0.1635 0.6064 -0.7782
vn 0.1720 0.6790 -0.7138
vn -0.0143 0.5539 -0.8325
vn -0.1138 0.5959 -0.7949
vn -0.1042 0.6446 -0.7574
vn 0.0025 0.5832 -0.8123
vn 0.2609 0.6003 -0.7560
vn -0.1760 0.5846 -0.7920
vn -0.1898 -0.3685 0.9101
vn -0.1465 -0.3548 0.9234
vn -0.0352 -0.4223 0.9058
vn -0.0176 -0.3873 0.9218
vn 0.1407 -0.3543 0.9245
vn 0.2259 -0.3389 0.9133
vn -0.1301 -0.3188 0.9389
vn -0.1263 -0.4768 0.8699
vn -0.1085 -0.4511 0.8858
vn -0.0702 -0.4639 0.8831
vn -0.0108 -0.4906 0.8713
vn 0.0813 -0.5003 0.8621
vn 0.1050 -0.4978 0.8609
vn 0.1514 -0.2742 0.9497
vn -0.1721 -0.6681 0.7239
vn -0.1639 -0.6064 0.7781
vn 0.1080 -0.5374 0.8364
vn 0.1254 -0.6071 0.7847
vn 0.0473 -0.5565 0.8295
vn 0.1091 -0.6388 0.7616
vn -0.2465 -0.6027 0.7589
vn -0.0037 -0.5875 0.8092
vn 0.1688 -0.5890 0.7903
vn 0.0190 0.8397 -0.5428
vn -0.0835 0.8482 -0.5231
vn -0.4193 0.8484 0.3232
vn 0.0194 0.8517 0.5237
vn -0.8173 0.2159 -0.5342
vn -0.9997 0.0177 0.0188
vn -0.9920 0.0646 -0.1085
vn -0.8077 0.2221 -0.5461
vn 0.4576 0.8289 0.3216
vn 0.1203 0.8419 -0.5260
vn 0.8161 0.1835 -0.5479
vn 0.9933 0.0210 -0.1141
vn 0.9998 -0.0203 -0.0014
vn 0.8195 0.1826 -0.5432
vn 0.1132 0.9885 -0.1000
vn 0.0366 0.9217 0.3862
vn 0.0137 0.8631 0.5049
vn 0.1093 0.9903 -0.0863
vn -0.4590 0.4432 -0.7700
vn -0.9994 0.0021 0.0336
vn -0.8875 0.4508 0.0957
vn -0.4731 0.5190 -0.7119
vn -0.0710 0.9926 -0.0983
vn 0.0199 0.8717 0.4897
vn 0.0018 0.9240 0.3824
vn -0.0711 0.9919 -0.1050
vn 0.4780 0.4237 -0.7694
vn 0.4925 0.4985 -0.7135
vn 0.9056 0.4134 0.0954
vn 0.9986 -0.0403 0.0343
vn 0.0833 -0.4314 -0.8983
vn -0.0199 -0.8705 -0.4918
vn 0.0008 -0.8061 -0.5918
vn 0.0835 -0.4254 -0.9012
vn -0.4737 0.3567 -0.8052
vn -0.9028 -0.2863 -0.3210
vn 0.8903 -0.3249 -0.3192
vn 0.4918 0.3345 -0.8039
vn -0.1009 -0.4260 -0.8991
vn -0.0341 -0.8078 -0.5885
vn -0.0140 -0.8791 -0.4765
vn -0.0972 -0.4386 -0.8934
vn 0.0000 0.0288 -0.9996
vn -0.0203 -0.8892 -0.4571
vn -0.4548 -0.7000 -0.5506
vn -0.1015 0.0144 -0.9947
vn -0.8037 0.3819 -0.4562
vn -0.9907 0.0971 -0.0957
vn -0.9997 0.0223 -0.0021
vn -0.8072 0.3784 -0.4531
vn 0.8294 0.3362 -0.4462
vn 0.9993 -0.0358 0.0134
vn 0.9945 0.0488 -0.0929
vn 0.8201 0.3431 -0.4578
vn 0.1022 0.0065 -0.9947
vn 0.4221 -0.7207 -0.5499
vn -0.3856 0.0624 0.9205
vn -0.0006 0.0171 0.9999
vn -0.8410 -0.1678 0.5144
vn -0.8522 -0.1631 0.4972
vn 0.3894 0.0478 0.9198
vn 0.8470 -0.1981 0.4933
vn 0.8431 -0.2009 0.4989
vn -0.0774 0.4818 0.8729
vn -0.0784 0.4657 0.8815
vn -0.5179 -0.4104 0.7506
vn -0.5044 -0.0402 0.8625
vn 0.0971 0.4793 0.8723
vn 0.0954 0.4866 0.8684
vn 0.5038 -0.0603 0.8617
vn 0.4994 -0.4344 0.7496
vn -0.1084 -0.9933 0.0406
vn -0.1065 -0.9938 0.0323
vn -0.5205 -0.7001 0.4888
vn 0.4877 -0.7219 0.4910
vn 0.0661 -0.9969 0.0420
vn 0.0668 -0.9959 0.0602
vn -0.0179 -0.8637 0.5036
vn -0.4061 -0.8071 0.4287
vn -0.8581 -0.3101 0.4092
vn -0.8543 -0.3134 0.4146
vn 0.8294 -0.3617 0.4258
vn 0.8410 -0.3495 0.4131
vn 0.3689 -0.8235 0.4310
vn -0.6391 0.3805 0.6684
vn -0.6930 0.3891 0.6069
vn -0.6197 -0.7684 0.1598
vn -0.5701 -0.8184 -0.0716
vn 0.6294 -0.7762 0.0365
vn 0.3646 -0.9119 0.1883
vn 0.6679 0.3826 0.6384
vn 0.7070 0.2547 0.6597
vn -0.6415 0.0798 0.7630
vn -0.6926 0.0806 0.7168
vn -0.6707 -0.0954 -0.7356
vn -0.7198 -0.0966 -0.6874
vn 0.6480 -0.1030 -0.7546
vn 0.6930 -0.0922 -0.7150
vn 0.6669 0.0827 0.7405
vn 0.7186 0.0694 0.6919
vn -0.6898 0.0279 0.7235
vn -0.6929 0.0282 0.7205
vn -0.7157 -0.0263 -0.6979
vn -0.7203 -0.0267 -0.6931
vn 0.6897 -0.0277 -0.7235
vn 0.6930 -0.0271 -0.7205
vn 0.7158 0.0273 0.6978
vn 0.7203 0.0265 0.6931
vn -0.6931 -0.0457 0.7194
vn -0.7203 0.0220 -0.6933
vn 0.6917 0.0850 -0.7172
vn 0.7204 0.0176 0.6933
vn -0.0108 -0.9999 -0.0067
vn -0.1563 -0.4822 0.8620
vn -0.1258 -0.5803 0.8046
vn -0.0134 -0.6123 0.7905
# 160 vertex normals

vt 0.5828 0.3222 0.0000
vt 0.4579 0.1849 0.0000
vt 0.5990 0.0596 0.0000
vt 0.7937 0.1321 0.0000
vt 0.7036 0.4599 0.0000
vt 0.8442 0.3333 0.0000
vt 0.3189 0.3079 0.0000
vt 0.1325 0.0992 0.0000
vt 0.3313 0.0451 0.0000
vt 0.4438 0.4459 0.0000
vt 0.5686 0.5838 0.0000
vt 0.7551 0.7926 0.0000
vt 0.8297 0.6010 0.0000
vt 0.1841 0.4318 0.0000
vt 0.0580 0.2907 0.0000
vt 0.3047 0.5696 0.0000
vt 0.4297 0.7068 0.0000
vt 0.5564 0.8466 0.0000
vt 0.0939 0.7596 0.0000
vt 0.0435 0.5585 0.0000
vt 0.2887 0.8321 0.0000
vt 0.5569 0.8573 0.0000
vt 0.4307 0.7160 0.0000
vt 0.5722 0.5898 0.0000
vt 0.7637 0.8041 0.0000
vt 0.7135 0.4634 0.0000
vt 0.8398 0.6047 0.0000
vt 0.2892 0.8421 0.0000
vt 0.0930 0.7634 0.0000
vt 0.3045 0.5747 0.0000
vt 0.5361 0.5495 0.0000
vt 0.3449 0.5387 0.0000
vt 0.5873 0.3221 0.0000
vt 0.5469 0.3582 0.0000
vt 0.7986 0.1332 0.0000
vt 0.8549 0.3369 0.0000
vt 0.0366 0.5593 0.0000
vt 0.1781 0.4332 0.0000
vt 0.3557 0.3474 0.0000
vt 0.4609 0.1806 0.0000
vt 0.3196 0.3070 0.0000
vt 0.6023 0.0541 0.0000
vt 0.0517 0.2916 0.0000
vt 0.1280 0.0924 0.0000
vt 0.3345 0.0390 0.0000
vt 0.6097 0.0291 0.0000
vt 0.8202 0.1083 0.0000
vt 0.4591 0.1636 0.0000
vt 0.8758 0.3259 0.0000
vt 0.7254 0.4611 0.0000
vt 0.3239 0.0136 0.0000
vt 0.1089 0.0728 0.0000
vt 0.8603 0.6118 0.0000
vt 0.7786 0.8189 0.0000
vt 0.1622 0.4306 0.0000
vt 0.0273 0.2800 0.0000
vt 0.5638 0.8781 0.0000
vt 0.4285 0.7281 0.0000
vt 0.0674 0.7835 0.0000
vt 0.0118 0.5658 0.0000
vt 0.2779 0.8626 0.0000
vt 0.7827 0.8252 0.0000
vt 0.5646 0.8805 0.0000
vt 0.4298 0.7304 0.0000
vt 0.8618 0.6149 0.0000
vt 0.7274 0.4641 0.0000
vt 0.2788 0.8644 0.0000
vt 0.0718 0.7821 0.0000
vt 0.8779 0.3291 0.0000
vt 0.8197 0.1143 0.0000
vt 0.0134 0.5670 0.0000
vt 0.1642 0.4323 0.0000
vt 0.6126 0.0317 0.0000
vt 0.4617 0.1660 0.0000
vt 0.1089 0.0712 0.0000
vt 0.0296 0.2812 0.0000
vt 0.3267 0.0156 0.0000
vt 0.8737 0.9920 0.0000
vt 0.8473 0.9462 0.0000
vt 0.8874 0.9231 0.0000
vt 0.9074 0.9375 0.0000
vt 0.8208 0.8982 0.0000
vt 0.8669 0.9077 0.0000
vt 0.8206 0.8998 0.0000
vt 0.8471 0.9455 0.0000
vt 0.8868 0.9237 0.0000
vt 0.8667 0.9094 0.0000
vt 0.8735 0.9936 0.0000
vt 0.9073 0.9391 0.0000
vt 0.9241 0.6187 0.0000
vt 0.9428 0.6222 0.0000
vt 0.9048 0.6147 0.0000
vt 0.9233 0.6198 0.0000
vt 0.9046 0.6164 0.0000
vt 0.9426 0.6238 0.0000
vt 0.9357 0.3180 0.0000
vt 0.9547 0.3176 0.0000
vt 0.9160 0.3179 0.0000
vt 0.9348 0.3192 0.0000
vt 0.9158 0.3196 0.0000
vt 0.9545 0.3193 0.0000
vt 0.9212 0.0173 0.0000
vt 0.9485 0.0168 0.0000
vt 0.8929 0.0171 0.0000
vt 0.8927 0.0188 0.0000
vt 0.9200 0.0183 0.0000
vt 0.9483 0.0184 0.0000
vt 0.4146 0.9867 0.0000
vt 0.5084 0.8964 0.0000
vt 0.4181 0.8026 0.0000
vt 0.3243 0.8929 0.0000
# 111 texture coords

g Flower_Iteration_1
usemtl 01___Default
s 1
f 1/1/1 2/2/2 3/3/3 
f 3/3/3 4/4/4 1/1/1 
f 5/5/5 1/1/1 4/4/4 
f 4/4/4 6/6/6 5/5/5 
f 7/7/7 8/8/8 9/9/9 
f 9/9/9 2/2/2 7/7/7 
f 10/10/10 7/7/7 2/2/2 
f 2/2/2 1/1/1 10/10/10 
f 11/11/11 10/10/10 1/1/1 
f 1/1/1 5/5/5 11/11/11 
f 12/12/12 11/11/11 5/5/5 
f 5/5/5 13/13/13 12/12/12 
f 14/14/14 15/15/15 8/8/8 
f 8/8/8 7/7/7 14/14/14 
f 16/16/16 14/14/14 7/7/7 
f 7/7/7 10/10/10 16/16/16 
f 17/17/17 16/16/16 10/10/10 
f 10/10/10 11/11/11 17/17/17 
f 18/18/18 17/17/17 11/11/11 
f 11/11/11 12/12/12 18/18/18 
f 19/19/19 20/20/20 14/14/14 
f 14/14/14 16/16/16 19/19/19 
f 21/21/21 19/19/19 16/16/16 
f 16/16/16 17/17/17 21/21/21 
f 22/22/22 23/23/23 24/24/24 
f 24/24/24 25/25/25 22/22/22 
f 25/25/25 24/24/24 26/26/26 
f 26/26/26 27/27/27 25/25/25 
f 28/28/28 29/29/29 30/30/30 
f 30/30/30 23/23/23 28/28/28 
f 31/31/31 24/24/24 23/23/23 
f 31/31/31 23/23/23 30/30/30 
f 32/32/32 31/31/31 30/30/30 
f 33/33/33 26/26/26 24/24/24 
f 24/24/24 31/31/31 34/34/32 
f 33/33/33 24/24/24 34/34/32 
f 26/26/26 33/33/33 35/35/34 
f 35/35/34 36/36/35 26/26/26 
f 29/29/29 37/37/36 38/38/37 
f 38/38/37 30/30/30 29/29/29 
f 33/33/33 34/34/32 39/39/38 
f 40/40/39 33/33/33 39/39/38 
f 40/40/39 39/39/38 41/41/40 
f 33/33/33 40/40/39 42/42/41 
f 42/42/41 35/35/34 33/33/33 
f 38/38/37 43/43/42 44/44/43 
f 44/44/43 41/41/40 38/38/37 
f 41/41/40 44/44/43 45/45/44 
f 45/45/44 40/40/39 41/41/40 
s 2
f 4/4/45 3/3/46 46/46/47 
f 46/46/47 47/47/48 4/4/45 
s 4
f 2/2/49 48/48/50 46/46/51 
f 46/46/51 3/3/52 2/2/49 
s 2
f 4/4/45 47/47/48 49/49/53 
f 49/49/53 6/6/54 4/4/45 
s 4
f 6/6/55 49/49/56 50/50/57 
f 50/50/57 5/5/58 6/6/55 
s 2
f 9/9/59 51/51/60 48/48/61 
f 48/48/61 2/2/62 9/9/59 
s 4
f 8/8/63 52/52/64 51/51/65 
f 51/51/65 9/9/66 8/8/63 
s 2
f 5/5/67 50/50/68 53/53/69 
f 53/53/69 13/13/70 5/5/67 
s 4
f 12/12/71 13/13/72 53/53/73 
f 53/53/73 54/54/74 12/12/71 
s 2
f 14/14/75 55/55/76 56/56/77 
f 56/56/77 15/15/78 14/14/75 
s 4
f 8/8/63 15/15/79 56/56/80 
f 56/56/80 52/52/64 8/8/63 
f 12/12/71 54/54/74 57/57/81 
f 57/57/81 18/18/82 12/12/71 
s 2
f 18/18/83 57/57/84 58/58/85 
f 58/58/85 17/17/86 18/18/83 
f 19/19/87 59/59/88 60/60/89 
f 60/60/89 20/20/90 19/19/87 
s 4
f 20/20/91 60/60/92 55/55/93 
f 55/55/93 14/14/94 20/20/91 
f 17/17/95 58/58/96 61/61/97 
f 61/61/97 21/21/98 17/17/95 
s 2
f 19/19/87 21/21/99 61/61/100 
f 61/61/100 59/59/88 19/19/87 
f 22/22/101 25/25/102 47/62/48 
f 47/62/48 46/63/47 22/22/101 
s 4
f 23/23/103 22/22/104 46/63/51 
f 46/63/51 48/64/50 23/23/103 
s 2
f 47/62/48 25/25/102 27/27/105 
f 27/27/105 49/65/53 47/62/48 
s 4
f 27/27/106 26/26/107 50/66/57 
f 50/66/57 49/65/56 27/27/106 
s 2
f 28/28/108 23/23/109 48/64/61 
f 48/64/61 51/67/60 28/28/108 
s 4
f 52/68/64 29/29/110 28/28/111 
f 28/28/111 51/67/65 52/68/64 
s 2
f 26/26/112 36/36/113 53/69/69 
f 53/69/69 50/66/68 26/26/112 
s 4
f 36/36/114 35/35/115 54/70/74 
f 54/70/74 53/69/73 36/36/114 
s 2
f 38/38/116 37/37/117 56/71/77 
f 56/71/77 55/72/76 38/38/116 
s 4
f 37/37/118 29/29/110 52/68/64 
f 52/68/64 56/71/80 37/37/118 
f 54/70/74 35/35/115 42/42/119 
f 42/42/119 57/73/81 54/70/74 
s 2
f 42/42/120 40/40/121 58/74/85 
f 58/74/85 57/73/84 42/42/120 
f 59/75/88 44/44/122 43/43/123 
f 43/43/123 60/76/89 59/75/88 
s 4
f 43/43/124 38/38/125 55/72/93 
f 55/72/93 60/76/92 43/43/124 
f 40/40/126 45/45/127 61/77/97 
f 61/77/97 58/74/96 40/40/126 
s 2
f 45/45/128 44/44/122 59/75/88 
f 59/75/88 61/77/100 45/45/128 
s off
f 31/78/129 32/79/129 62/80/129 
f 62/80/130 63/81/130 31/78/130 
f 32/79/131 39/82/131 64/83/131 
f 64/83/132 62/80/132 32/79/132 
f 39/84/133 34/85/133 65/86/133 
f 65/86/134 64/87/134 39/84/134 
f 34/85/135 31/88/135 63/89/135 
f 63/89/136 65/86/136 34/85/136 
f 63/81/137 62/80/137 66/90/137 
f 66/90/138 67/91/138 63/81/138 
f 62/80/139 64/83/139 68/92/139 
f 68/92/140 66/90/140 62/80/140 
f 64/87/141 65/86/141 69/93/141 
f 69/93/142 68/94/142 64/87/142 
f 65/86/143 63/89/143 67/95/143 
f 67/95/144 69/93/144 65/86/144 
f 67/91/145 66/90/145 70/96/145 
f 70/96/146 71/97/146 67/91/146 
f 66/90/147 68/92/147 72/98/147 
f 72/98/148 70/96/148 66/90/148 
f 68/94/149 69/93/149 73/99/149 
f 73/99/150 72/100/150 68/94/150 
f 69/93/151 67/95/151 71/101/151 
f 71/101/152 73/99/152 69/93/152 
f 71/97/153 70/96/153 74/102/153 
f 74/102/153 75/103/153 71/97/153 
f 74/102/154 72/98/154 76/104/154 
f 72/98/154 74/102/154 70/96/154 
f 76/105/155 73/99/155 77/106/155 
f 73/99/155 76/105/155 72/100/155 
f 73/99/156 71/101/156 75/107/156 
f 75/107/156 77/106/156 73/99/156 
f 76/108/157 77/109/157 75/110/157 
f 75/110/157 74/111/157 76/108/157 
f 38/38/158 41/41/158 39/39/158 
f 38/38/159 39/39/159 32/32/159 
f 30/30/160 38/38/160 32/32/160 
# 0 polygons - 150 triangles

